<svg id="Layer_1" data-name="Layer 1" xmlns="http://www.w3.org/2000/svg" viewBox="0 0 42.21895 21.82514"><defs><style>.cls-1{fill:none;stroke:#010101;stroke-linecap:square;stroke-linejoin:bevel;stroke-width:0.5px;}.cls-2{fill:#231f20;}</style></defs><line class="cls-1" x1="8.01757" y1="0.27518" x2="8.01757" y2="21.52125"/><line class="cls-1" x1="8.01757" y1="0.25" x2="24.90669" y2="0.25"/><line class="cls-1" x1="8.01757" y1="21.57514" x2="25.03435" y2="21.57514"/><path class="cls-1" d="M310.663,407.16257c5.03143,0,8.90426-5.18128,8.90426-10.55319" transform="translate(-285.39053 -385.58743)"/><path class="cls-1" d="M310.44069,385.83743c5.01727,0,9.12653,5.16786,9.12653,10.52264" transform="translate(-285.39053 -385.58743)"/><line class="cls-1" x1="7.96217" y1="3.77264" x2="0.25" y2="3.77264"/><path class="cls-1" d="M319.08672,396.8365" transform="translate(-285.39053 -385.58743)"/><line class="cls-1" x1="7.96217" y1="17.77265" x2="0.25" y2="17.77264"/><line class="cls-1" x1="41.96895" y1="11.02195" x2="34.25678" y2="11.02195"/><path class="cls-2" d="M302.05032,399.79969a.30069.30069,0,0,1,.02685.11963.09031.09031,0,0,1-.03418.0708.19762.19762,0,0,1-.09765.03174,1.57953,1.57953,0,0,1-.16846.00732,1.43808,1.43808,0,0,1-.16357-.00732.36172.36172,0,0,1-.09522-.022.11579.11579,0,0,1-.05127-.03907.32557.32557,0,0,1-.03174-.05859l-.60546-1.68457h-2.77344l-.58106,1.6748a.14965.14965,0,0,1-.083.1001.34157.34157,0,0,1-.09522.02686,1.0206,1.0206,0,0,1-.15381.00976,1.26772,1.26772,0,0,1-.1709-.00976.21668.21668,0,0,1-.10009-.03418.08764.08764,0,0,1-.03418-.06836.29572.29572,0,0,1,.02685-.11719l2.21192-6.01074a.1702.1702,0,0,1,.04394-.06592.19763.19763,0,0,1,.07568-.0415.594.594,0,0,1,.11231-.022,1.36275,1.36275,0,0,1,.14893-.00732,1.41262,1.41262,0,0,1,.1538.00732.59388.59388,0,0,1,.11231.022.177.177,0,0,1,.07324.0415.18271.18271,0,0,1,.0415.06592Zm-2.62207-5.47852h-.00488l-1.19141,3.39844h2.417Z" transform="translate(-285.39053 -385.58743)"/><path class="cls-2" d="M307.73391,399.7118a.3491.3491,0,0,1-.02685.14648.2807.2807,0,0,1-.06836.09522.23875.23875,0,0,1-.09278.05127.34822.34822,0,0,1-.09521.01465h-.12207a.619.619,0,0,1-.17822-.02442.462.462,0,0,1-.15625-.08545.87466.87466,0,0,1-.15137-.16357,2.90211,2.90211,0,0,1-.16846-.26367l-2.22656-3.94531q-.16626-.28785-.33447-.59327-.16847-.30542-.31983-.59326h-.00488q.00513.35669.00488.73v4.82178a.102.102,0,0,1-.01465.05371.10066.10066,0,0,1-.04882.03906.4065.4065,0,0,1-.09034.02442.88822.88822,0,0,1-.144.00976.89871.89871,0,0,1-.1416-.00976.41.41,0,0,1-.09277-.02442.10069.10069,0,0,1-.04883-.03906.102.102,0,0,1-.01465-.05371v-5.91309a.27712.27712,0,0,1,.09277-.2417.3134.3134,0,0,1,.18067-.06591h.24414a.81393.81393,0,0,1,.19531.01953.40893.40893,0,0,1,.1416.06592.56183.56183,0,0,1,.12451.13183,2.36994,2.36994,0,0,1,.13428.21729l1.7041,3.02246q.16113.28344.30518.54443.14429.26148.28076.5127.137.25122.271.4956.134.2439.26611.49317h.00488q-.00513-.41016-.00488-.8545v-4.53125a.102.102,0,0,1,.01465-.05371.11325.11325,0,0,1,.04883-.0415.29248.29248,0,0,1,.09033-.02442,1.15507,1.15507,0,0,1,.144-.00732,1.11564,1.11564,0,0,1,.13672.00732.29819.29819,0,0,1,.09277.02442.13138.13138,0,0,1,.05127.0415.09244.09244,0,0,1,.01709.05371Z" transform="translate(-285.39053 -385.58743)"/><path class="cls-2" d="M314.22317,396.74793a4.49219,4.49219,0,0,1-.20019,1.40381,2.655,2.655,0,0,1-.59083,1.01807,2.492,2.492,0,0,1-.96435.62011,3.98685,3.98685,0,0,1-1.36963.21h-1.24512a.31342.31342,0,0,1-.18066-.06592.27711.27711,0,0,1-.09277-.2417v-5.70313a.27712.27712,0,0,1,.09277-.2417.3134.3134,0,0,1,.18066-.06591h1.32813a3.70239,3.70239,0,0,1,1.35986.21972,2.49908,2.49908,0,0,1,.92774.62256,2.64578,2.64578,0,0,1,.564.9668A3.91313,3.91313,0,0,1,314.22317,396.74793Zm-.63965.0293a3.59775,3.59775,0,0,0-.13916-1.02295,2.19934,2.19934,0,0,0-.42969-.813,1.97977,1.97977,0,0,0-.73486-.53467,2.86627,2.86627,0,0,0-1.13281-.19287h-.97168v5.25391h.97656a3.27737,3.27737,0,0,0,1.09131-.15869,1.78622,1.78622,0,0,0,.74463-.49072,2.1322,2.1322,0,0,0,.44678-.83741A4.2953,4.2953,0,0,0,313.58352,396.77723Z" transform="translate(-285.39053 -385.58743)"/><line class="cls-1" x1="7.96217" y1="11.02195" x2="0.25" y2="11.02195"/></svg>