<svg id="Layer_1" data-name="Layer 1" xmlns="http://www.w3.org/2000/svg" viewBox="0 0 42.42241 19.72258"><defs><style>.cls-1{fill:none;stroke:#010101;stroke-linecap:round;stroke-linejoin:bevel;stroke-width:0.5px;}</style></defs><g id="Artwork_43" data-name="Artwork 43"><path class="cls-1" d="M292.82329,386.912c1.62327,2.84378,3.03542,12.19882.16955,19.19339" transform="translate(-285.28879 -386.63871)"/><line class="cls-1" x1="7.52192" y1="0.25" x2="18.16386" y2="0.25"/><line class="cls-1" x1="7.74699" y1="19.47258" x2="18.16386" y2="19.47258"/><path class="cls-1" d="M303.45266,386.88871c8.0932,0,13.95726,4.31741,15.85693,9.59138" transform="translate(-285.28879 -386.63871)"/><path class="cls-1" d="M303.47924,406.11129c8.05638.00213,13.8914-4.35013,15.83035-9.60269" transform="translate(-285.28879 -386.63871)"/><line class="cls-1" x1="8.40161" y1="2.55396" x2="0.25" y2="2.55396"/><line class="cls-1" x1="8.53318" y1="16.80526" x2="0.38157" y2="16.80526"/><line class="cls-1" x1="42.17241" y1="9.85835" x2="34.0208" y2="9.85835"/></g><path d="M304.51511,396.39952a5.54072,5.54072,0,0,1-.19043,1.50684,3.21583,3.21583,0,0,1-.57226,1.14941,2.53245,2.53245,0,0,1-.96143.73291,3.70828,3.70828,0,0,1-2.68311.01318,2.33645,2.33645,0,0,1-.91308-.69824,2.97642,2.97642,0,0,1-.52637-1.10888,5.94257,5.94257,0,0,1-.16894-1.47706,5.44363,5.44363,0,0,1,.188-1.48242,3.104,3.104,0,0,1,.57178-1.13574,2.57924,2.57924,0,0,1,.96192-.728,3.30149,3.30149,0,0,1,1.356-.25781,3.25529,3.25529,0,0,1,1.31055.2417,2.36912,2.36912,0,0,1,.91553.69287,2.95024,2.95024,0,0,1,.53711,1.0957A5.5609,5.5609,0,0,1,304.51511,396.39952Zm-.69824.05908a5.55645,5.55645,0,0,0-.11524-1.15771,2.69632,2.69632,0,0,0-.38183-.93946,1.85534,1.85534,0,0,0-.70606-.6289,2.35544,2.35544,0,0,0-1.09033-.228,2.266,2.266,0,0,0-1.0874.23877,2.02093,2.02093,0,0,0-.71973.64209,2.67139,2.67139,0,0,0-.39746.93994,5.12049,5.12049,0,0,0-.12109,1.1333,5.93686,5.93686,0,0,0,.11035,1.1792,2.68766,2.68766,0,0,0,.373.94776,1.83174,1.83174,0,0,0,.70361.63134,2.38135,2.38135,0,0,0,1.10107.228,2.26364,2.26364,0,0,0,1.10108-.24463,2.00457,2.00457,0,0,0,.71973-.65527,2.75411,2.75411,0,0,0,.39209-.9502A5.31656,5.31656,0,0,0,303.81687,396.4586Z" transform="translate(-285.28879 -386.63871)"/><path d="M310.47165,399.837a.14593.14593,0,0,1-.01318.06445.11131.11131,0,0,1-.05127.0459.38869.38869,0,0,1-.105.0293,1.07687,1.07687,0,0,1-.16894.01074,1.3281,1.3281,0,0,1-.15332-.00781.30952.30952,0,0,1-.1045-.03223.21077.21077,0,0,1-.06982-.06445.44031.44031,0,0,1-.04834-.105l-.6499-1.68652q-.1128-.28492-.2417-.53711a1.76639,1.76639,0,0,0-.31153-.438,1.33353,1.33353,0,0,0-.44043-.29248,1.59984,1.59984,0,0,0-.61767-.10742h-.71973v3.13134a.11308.11308,0,0,1-.01611.05908.11046.11046,0,0,1-.05371.043.46119.46119,0,0,1-.09961.02686.93338.93338,0,0,1-.1582.01074.94585.94585,0,0,1-.15577-.01074.46444.46444,0,0,1-.102-.02686.11046.11046,0,0,1-.05371-.043.11308.11308,0,0,1-.01611-.05908v-6.50439a.30684.30684,0,0,1,.10205-.26612.34694.34694,0,0,1,.19873-.07226H307.727c.17187,0,.31445.00439.42675.01367.11328.00879.21582.02051.30909.03467a2.33913,2.33913,0,0,1,.69287.22559,1.62553,1.62553,0,0,1,.48877.38427,1.522,1.522,0,0,1,.28759.51563,1.98586,1.98586,0,0,1,.09375.62011,1.82792,1.82792,0,0,1-.09668.61524,1.49888,1.49888,0,0,1-.27392.47754,1.74952,1.74952,0,0,1-.42432.35742,2.794,2.794,0,0,1-.54248.25244,1.4269,1.4269,0,0,1,.31983.19873,1.53877,1.53877,0,0,1,.26269.28467,2.59321,2.59321,0,0,1,.22852.38428q.10766.21679.21484.48584l.6499,1.62207c.04639.12549.07617.21142.08838.25781A.43837.43837,0,0,1,310.47165,399.837Zm-1.15478-4.96826a1.3653,1.3653,0,0,0-.19873-.7544,1.11674,1.11674,0,0,0-.666-.44336,2.02689,2.02689,0,0,0-.33838-.06152c-.12158-.01269-.28125-.019-.478-.019h-.85938v2.55127h.999a2.14127,2.14127,0,0,0,.69287-.09961,1.361,1.361,0,0,0,.48047-.271,1.03051,1.03051,0,0,0,.27929-.40283A1.37108,1.37108,0,0,0,309.31687,394.86876Z" transform="translate(-285.28879 -386.63871)"/><line class="cls-1" x1="9.17924" y1="9.83601" x2="0.25" y2="9.83601"/></svg>