<svg id="Layer_1" data-name="Layer 1" xmlns="http://www.w3.org/2000/svg" viewBox="0 0 85.80686 130.92932">
  <defs>
    <style>
      .cls-1 {
        fill: none;
        stroke: #000;
        stroke-miterlimit: 10;
        stroke-width: 0.5px;
      }
    </style>
  </defs>
  <path d="M743.28259,302.2244V432.15372H679.5V302.2244h63.78259m.5-.5H679V432.65372h64.78259V301.7244Z" transform="translate(-668.43813 -301.7244)"/>
  <line class="cls-1" x1="85.80686" y1="34.41885" x2="75.24503" y2="34.41885"/>
  <line class="cls-1" x1="85.80686" y1="55.24929" x2="75.24503" y2="55.24929"/>
  <line class="cls-1" x1="85.80686" y1="76.07972" x2="75.24503" y2="76.07972"/>
  <line class="cls-1" x1="85.80686" y1="96.91016" x2="75.24503" y2="96.91016"/>
  <line class="cls-1" x1="10.56183" y1="12.07995" y2="12.07995"/>
  <line class="cls-1" x1="10.56183" y1="26.49926" y2="26.49926"/>
  <line class="cls-1" x1="10.56183" y1="40.91857" y2="40.91857"/>
  <line class="cls-1" x1="10.56183" y1="55.33788" y2="55.33788"/>
  <g>
    <path d="M683.93848,315.17578l-.83936,2.54248h-1.07959l2.74658-8.08349h1.25928l2.7583,8.08349h-1.11523l-.86377-2.54248Zm2.65039-.81543-.79151-2.32715c-.17968-.52734-.2998-1.00732-.41943-1.47509h-.02441c-.11963.48-.25147.97168-.40772,1.46337l-.7915,2.33887Z" transform="translate(-668.43813 -301.7244)"/>
    <path d="M691.894,310.90625h-.02392l-1.35547.73145-.2041-.80372,1.70312-.91162h.8999v7.7959H691.894Z" transform="translate(-668.43813 -301.7244)"/>
  </g>
  <g>
    <path d="M683.93848,329.46875l-.83936,2.54248h-1.07959l2.74658-8.0835h1.25928l2.7583,8.0835h-1.11523l-.86377-2.54248Zm2.65039-.81543-.79151-2.32715c-.17968-.52734-.2998-1.00732-.41943-1.4751h-.02441c-.11963.48-.25147.97168-.40772,1.46338l-.7915,2.33887Z" transform="translate(-668.43813 -301.7244)"/>
    <path d="M689.603,332.01123v-.64746l.82763-.80371c1.99122-1.895,2.89063-2.90235,2.90235-4.07764a1.39092,1.39092,0,0,0-1.54688-1.52344,2.65473,2.65473,0,0,0-1.65527.65967l-.33594-.74365a3.42318,3.42318,0,0,1,2.207-.7915,2.19355,2.19355,0,0,1,2.38672,2.26709c0,1.439-1.04346,2.60253-2.68652,4.18554l-.624.57569v.02392h3.50245v.87549Z" transform="translate(-668.43813 -301.7244)"/>
  </g>
  <g>
    <path d="M683.938,343.76172l-.83936,2.54248H682.019l2.74658-8.0835h1.25928l2.7583,8.0835H687.668l-.86377-2.54248Zm2.65039-.81543-.7915-2.32715c-.17969-.52734-.29981-1.00732-.41944-1.4751H685.353c-.11963.48-.25147.97168-.40772,1.46338l-.7915,2.33887Z" transform="translate(-668.43813 -301.7244)"/>
    <path d="M689.85449,345.09277a3.5281,3.5281,0,0,0,1.727.4917c1.35547,0,1.77491-.86328,1.76319-1.51123-.01221-1.09131-.99561-1.55908-2.01514-1.55908h-.5874v-.7915h.5874c.76758,0,1.73926-.39551,1.73926-1.31934,0-.62353-.396-1.17529-1.36719-1.17529a2.862,2.862,0,0,0-1.55908.51562l-.27588-.76758a3.70531,3.70531,0,0,1,2.03857-.59961c1.53516,0,2.231.91163,2.231,1.85889a1.93582,1.93582,0,0,1-1.43945,1.835v.02442a2.0306,2.0306,0,0,1,1.73926,2.00293c0,1.24707-.97168,2.33838-2.84229,2.33838a3.96158,3.96158,0,0,1-2.02686-.52784Z" transform="translate(-668.43813 -301.7244)"/>
  </g>
  <g>
    <path d="M683.93848,358.05469l-.83936,2.54248h-1.07959l2.74658-8.0835h1.25928l2.7583,8.0835h-1.11523l-.86377-2.54248Zm2.65039-.81543-.79151-2.32715c-.17968-.52734-.2998-1.00732-.41943-1.4751h-.02441c-.11963.48-.25147.97168-.40772,1.46338l-.7915,2.33887Z" transform="translate(-668.43813 -301.7244)"/>
    <path d="M692.86523,360.59717v-2.123h-3.62207v-.69531l3.47852-4.97754h1.13916v4.8457h1.09131v.82715h-1.09131v2.123Zm0-2.9502v-2.60254q0-.6123.03614-1.22363h-.03614c-.23974.45606-.43164.7915-.64746,1.15137l-1.90722,2.65088v.02392Z" transform="translate(-668.43813 -301.7244)"/>
  </g>
  <line class="cls-1" x1="10.56183" y1="76.04742" y2="76.04742"/>
  <line class="cls-1" x1="10.56183" y1="90.89016" y2="90.89016"/>
  <line class="cls-1" x1="10.56183" y1="105.73291" y2="105.73291"/>
  <line class="cls-1" x1="10.56183" y1="120.57565" y2="120.57565"/>
  <g>
    <path d="M682.63086,373.99756a10.08719,10.08719,0,0,1,1.90674-.168,3.34049,3.34049,0,0,1,2.21875.58789,1.69418,1.69418,0,0,1,.67187,1.42725,1.91969,1.91969,0,0,1-1.36718,1.7749v.02392a2.08348,2.08348,0,0,1,1.667,2.02686,2.17929,2.17929,0,0,1-.6836,1.61914,4.06061,4.06061,0,0,1-2.79443.75537,12.22632,12.22632,0,0,1-1.61914-.0957Zm1.04346,3.31006h.94726c1.10352,0,1.751-.57569,1.751-1.355,0-.94776-.71973-1.31934-1.7749-1.31934a4.46573,4.46573,0,0,0-.92334.07178Zm0,3.874a5.55493,5.55493,0,0,0,.87548.04785c1.07911,0,2.07471-.39551,2.07471-1.57129,0-1.103-.94726-1.55908-2.08691-1.55908h-.86328Z" transform="translate(-668.43813 -301.7244)"/>
    <path d="M691.05371,375.16113h-.02392l-1.35547.73145-.20411-.80371,1.70313-.91162h.8999v7.79589h-1.01953Z" transform="translate(-668.43813 -301.7244)"/>
  </g>
  <g>
    <path d="M682.63135,388.66016a10.08627,10.08627,0,0,1,1.90674-.168,3.34044,3.34044,0,0,1,2.21875.58789,1.69417,1.69417,0,0,1,.67187,1.42724,1.9197,1.9197,0,0,1-1.36719,1.77491v.02392a2.08348,2.08348,0,0,1,1.667,2.02686,2.17929,2.17929,0,0,1-.6836,1.61914,4.06068,4.06068,0,0,1-2.79443.75537,12.2262,12.2262,0,0,1-1.61914-.0957Zm1.04345,3.31h.94727c1.10352,0,1.751-.57568,1.751-1.355,0-.94775-.71973-1.31933-1.77491-1.31933a4.465,4.465,0,0,0-.92334.07178Zm0,3.874a5.55515,5.55515,0,0,0,.87549.04785c1.0791,0,2.07471-.39551,2.07471-1.57129,0-1.103-.94727-1.55908-2.08691-1.55908h-.86329Z" transform="translate(-668.43813 -301.7244)"/>
    <path d="M688.76318,396.63574v-.64746l.82764-.80371c1.99121-1.895,2.89063-2.90234,2.90234-4.07764a1.39091,1.39091,0,0,0-1.54687-1.52343,2.65473,2.65473,0,0,0-1.65527.65966l-.33594-.74365a3.42324,3.42324,0,0,1,2.207-.7915,2.19355,2.19355,0,0,1,2.38672,2.26709c0,1.439-1.04346,2.60254-2.68653,4.18554l-.624.57569v.02392h3.50244v.87549Z" transform="translate(-668.43813 -301.7244)"/>
  </g>
  <g>
    <path d="M682.63135,403.32373a10.08711,10.08711,0,0,1,1.90674-.168,3.34049,3.34049,0,0,1,2.21875.58789,1.69421,1.69421,0,0,1,.67187,1.42725,1.91968,1.91968,0,0,1-1.36719,1.7749v.02393a2.08346,2.08346,0,0,1,1.667,2.02685,2.17927,2.17927,0,0,1-.6836,1.61914,4.06062,4.06062,0,0,1-2.79443.75537,12.2262,12.2262,0,0,1-1.61914-.0957Zm1.04345,3.31006h.94727c1.10352,0,1.751-.57568,1.751-1.355,0-.94776-.71973-1.31934-1.77491-1.31934a4.46573,4.46573,0,0,0-.92334.07178Zm0,3.874a5.55393,5.55393,0,0,0,.87549.04785c1.0791,0,2.07471-.3955,2.07471-1.57128,0-1.103-.94727-1.55909-2.08691-1.55909h-.86329Z" transform="translate(-668.43813 -301.7244)"/>
    <path d="M689.01514,410.08789a3.528,3.528,0,0,0,1.72705.4917c1.35547,0,1.7749-.86328,1.76318-1.51123-.01221-1.09131-.9956-1.55908-2.01514-1.55908h-.5874v-.79151h.5874c.76758,0,1.73926-.3955,1.73926-1.31933,0-.62354-.396-1.1753-1.36719-1.1753a2.86192,2.86192,0,0,0-1.55908.51563l-.27588-.76758a3.70535,3.70535,0,0,1,2.03858-.59961c1.53515,0,2.231.91162,2.231,1.85889a1.93583,1.93583,0,0,1-1.43946,1.835v.02441a2.03062,2.03062,0,0,1,1.73926,2.00293c0,1.24707-.97168,2.33838-2.84229,2.33838a3.96168,3.96168,0,0,1-2.02685-.52783Z" transform="translate(-668.43813 -301.7244)"/>
  </g>
  <g>
    <path d="M682.63135,417.98633a10.08711,10.08711,0,0,1,1.90674-.168,3.34049,3.34049,0,0,1,2.21875.58789,1.69418,1.69418,0,0,1,.67187,1.42725,1.91968,1.91968,0,0,1-1.36719,1.7749v.02392a2.08348,2.08348,0,0,1,1.667,2.02686,2.17929,2.17929,0,0,1-.6836,1.61914,4.06062,4.06062,0,0,1-2.79443.75537,12.2262,12.2262,0,0,1-1.61914-.0957Zm1.04345,3.31006h.94727c1.10352,0,1.751-.57569,1.751-1.355,0-.94776-.71973-1.31934-1.77491-1.31934a4.465,4.465,0,0,0-.92334.07178Zm0,3.874a5.55515,5.55515,0,0,0,.87549.04785c1.0791,0,2.07471-.39551,2.07471-1.57129,0-1.103-.94727-1.55908-2.08691-1.55908h-.86329Z" transform="translate(-668.43813 -301.7244)"/>
    <path d="M692.02539,425.96191v-2.123h-3.62207v-.69532l3.47852-4.97753H693.021v4.8457h1.0913v.82715H693.021v2.123Zm0-2.95019v-2.60254q0-.6123.03613-1.22363h-.03613c-.23975.45605-.43164.7915-.64746,1.15136l-1.90723,2.65088v.02393Z" transform="translate(-668.43813 -301.7244)"/>
  </g>
  <g>
    <path d="M729.99365,337.4668a3.69548,3.69548,0,0,0,1.8711.52783c1.06738,0,1.69091-.56348,1.69091-1.3794,0-.75537-.43164-1.187-1.523-1.60693-1.31933-.46777-2.13476-1.15137-2.13476-2.29053a2.327,2.327,0,0,1,2.61426-2.19482,3.67685,3.67685,0,0,1,1.78711.39551l-.28809.85156a3.21621,3.21621,0,0,0-1.53516-.38379c-1.103,0-1.523.65967-1.523,1.21143,0,.75537.4917,1.12744,1.60694,1.55908,1.36719.52783,2.063,1.1875,2.063,2.375,0,1.24707-.92334,2.32666-2.83057,2.32666a4.17367,4.17367,0,0,1-2.0625-.51611Z" transform="translate(-668.43813 -301.7244)"/>
    <path d="M737.97266,331.92627h-.02393l-1.35547.73144-.2041-.80371,1.70313-.91162h.8999v7.7959h-1.01953Z" transform="translate(-668.43813 -301.7244)"/>
  </g>
  <g>
    <path d="M729.99365,358.40771a3.69539,3.69539,0,0,0,1.8711.52784c1.06738,0,1.69091-.56348,1.69091-1.3794,0-.75537-.43164-1.187-1.523-1.60693-1.31933-.46777-2.13476-1.15137-2.13476-2.29053a2.327,2.327,0,0,1,2.61426-2.19482,3.67685,3.67685,0,0,1,1.78711.39551l-.28809.85156a3.21609,3.21609,0,0,0-1.53516-.38379c-1.103,0-1.523.65967-1.523,1.21142,0,.75538.4917,1.12745,1.60694,1.55909,1.36719.52783,2.063,1.1875,2.063,2.375,0,1.24707-.92334,2.32666-2.83057,2.32666a4.17356,4.17356,0,0,1-2.0625-.51612Z" transform="translate(-668.43813 -301.7244)"/>
    <path d="M735.68164,359.6792v-.64746l.82764-.80371c1.99121-1.895,2.89062-2.90235,2.90234-4.07764a1.39092,1.39092,0,0,0-1.54687-1.52344,2.65479,2.65479,0,0,0-1.65528.65967l-.33593-.74365a3.42315,3.42315,0,0,1,2.207-.79151,2.19355,2.19355,0,0,1,2.38672,2.26709c0,1.439-1.04346,2.60254-2.68653,4.18555l-.624.57569v.02392h3.50244v.87549Z" transform="translate(-668.43813 -301.7244)"/>
  </g>
  <g>
    <path d="M729.99365,379.34766a3.69548,3.69548,0,0,0,1.8711.52783c1.06738,0,1.69091-.56348,1.69091-1.3794,0-.75537-.43164-1.187-1.523-1.60693-1.31933-.46777-2.13476-1.15137-2.13476-2.29053a2.327,2.327,0,0,1,2.61426-2.19482,3.67685,3.67685,0,0,1,1.78711.39551l-.28809.85156a3.21621,3.21621,0,0,0-1.53516-.38379c-1.103,0-1.523.65967-1.523,1.21143,0,.75537.4917,1.12744,1.60694,1.55908,1.36719.52783,2.063,1.1875,2.063,2.375,0,1.24707-.92334,2.32666-2.83057,2.32666a4.17356,4.17356,0,0,1-2.0625-.51612Z" transform="translate(-668.43813 -301.7244)"/>
    <path d="M735.93359,379.40771a3.5281,3.5281,0,0,0,1.727.4917c1.35547,0,1.77491-.86328,1.76319-1.51123-.01221-1.0913-.99561-1.55908-2.01514-1.55908h-.5874v-.7915h.5874c.76758,0,1.73926-.39551,1.73926-1.31934,0-.62353-.396-1.17529-1.36719-1.17529a2.862,2.862,0,0,0-1.55908.51562l-.27588-.76757a3.70527,3.70527,0,0,1,2.03858-.59961c1.53515,0,2.231.91162,2.231,1.85888a1.93582,1.93582,0,0,1-1.43945,1.835v.02442a2.0306,2.0306,0,0,1,1.73926,2.00293c0,1.24707-.97168,2.33838-2.84229,2.33838a3.96154,3.96154,0,0,1-2.02685-.52784Z" transform="translate(-668.43813 -301.7244)"/>
  </g>
  <g>
    <path d="M729.99365,400.28857a3.69539,3.69539,0,0,0,1.8711.52784c1.06738,0,1.69091-.56348,1.69091-1.3794,0-.75537-.43164-1.187-1.523-1.60693-1.31933-.46778-2.13476-1.15137-2.13476-2.29053a2.327,2.327,0,0,1,2.61426-2.19482,3.677,3.677,0,0,1,1.78711.3955l-.28809.85157a3.21609,3.21609,0,0,0-1.53516-.38379c-1.103,0-1.523.65967-1.523,1.21142,0,.75537.4917,1.12745,1.60694,1.55909,1.36719.52783,2.063,1.1875,2.063,2.375,0,1.24707-.92334,2.32666-2.83057,2.32666a4.17356,4.17356,0,0,1-2.0625-.51612Z" transform="translate(-668.43813 -301.7244)"/>
    <path d="M738.94385,401.56006V399.437h-3.62207v-.69531l3.47851-4.97754h1.13916v4.8457h1.09131v.82715h-1.09131v2.12305Zm0-2.9502v-2.60254q0-.6123.03613-1.22363h-.03613c-.23975.45606-.43164.79151-.64746,1.15137l-1.90723,2.65088v.02392Z" transform="translate(-668.43813 -301.7244)"/>
  </g>
  <g>
    <path d="M709.334,332.81445,708.144,336.418h-1.52978l3.89258-11.457H712.292l3.90967,11.457h-1.581l-1.22413-3.60352Zm3.75684-1.15625-1.12207-3.29736c-.25488-.748-.4248-1.42773-.59473-2.09082h-.03418c-.16992.67969-.35693,1.377-.57763,2.07373l-1.12207,3.31445Z" transform="translate(-668.43813 -301.7244)"/>
    <path d="M707.023,342.11426a21.14456,21.14456,0,0,1,3.14453-.23828,6.56045,6.56045,0,0,1,4.64063,1.42822,5.27572,5.27572,0,0,1,1.61474,4.11328,6.05909,6.05909,0,0,1-1.64892,4.45361A7.05739,7.05739,0,0,1,709.7085,353.52a23.86506,23.86506,0,0,1-2.68555-.13623Zm1.47851,10.13086a9.35582,9.35582,0,0,0,1.4961.085c3.16162,0,4.87842-1.76758,4.87842-4.86133.01709-2.70313-1.5127-4.41992-4.64063-4.41992a8.40423,8.40423,0,0,0-1.73389.15332Z" transform="translate(-668.43813 -301.7244)"/>
    <path d="M707.023,359.11426a21.14456,21.14456,0,0,1,3.14453-.23828,6.56045,6.56045,0,0,1,4.64063,1.42822,5.27572,5.27572,0,0,1,1.61474,4.11328,6.05909,6.05909,0,0,1-1.64892,4.45361A7.05739,7.05739,0,0,1,709.7085,370.52a23.86506,23.86506,0,0,1-2.68555-.13623Zm1.47851,10.13086a9.35582,9.35582,0,0,0,1.4961.085c3.16162,0,4.87842-1.76758,4.87842-4.86133.01709-2.70313-1.5127-4.41992-4.64063-4.41992a8.40423,8.40423,0,0,0-1.73389.15332Z" transform="translate(-668.43813 -301.7244)"/>
    <path d="M714.43359,382.04639H709.98v4.13086h4.96387V387.418h-6.44239v-11.457h6.187v1.24121H709.98v3.6206h4.45361Z" transform="translate(-668.43813 -301.7244)"/>
    <path d="M708.11084,393.11426a15.36865,15.36865,0,0,1,2.83838-.23828,4.68553,4.68553,0,0,1,3.31494.93506,2.85432,2.85432,0,0,1,.90088,2.17578,3.009,3.009,0,0,1-2.15869,2.92382v.05079a2.85607,2.85607,0,0,1,1.68261,2.312,18.26284,18.26284,0,0,0,.88379,3.14453H714.043a14.8292,14.8292,0,0,1-.76465-2.73682c-.33984-1.58056-.95215-2.17578-2.29492-2.22656h-1.394V404.418h-1.47852Zm1.47852,5.21826h1.51318c1.58057,0,2.5835-.8667,2.5835-2.17578,0-1.479-1.07081-2.12451-2.63477-2.1416a6.09784,6.09784,0,0,0-1.46191.13574Z" transform="translate(-668.43813 -301.7244)"/>
  </g>
  <g>
    <path d="M730.13477,317.53418A5.17945,5.17945,0,0,1,728,317.918a3.778,3.778,0,0,1-3.99414-4.08985,4.02271,4.02271,0,0,1,4.22168-4.2456,4.32974,4.32974,0,0,1,1.91894.35986l-.25195.85108a3.80691,3.80691,0,0,0-1.63086-.33545,3.00567,3.00567,0,0,0-3.15429,3.334,2.93846,2.93846,0,0,0,3.10644,3.25049,4.18157,4.18157,0,0,0,1.70313-.33594Z" transform="translate(-668.43813 -301.7244)"/>
    <path d="M732.48926,309.71436v8.08349H731.4458v-8.08349Z" transform="translate(-668.43813 -301.7244)"/>
    <path d="M734.31348,317.79785v-8.08349h1.13916l2.59082,4.08984a22.865,22.865,0,0,1,1.45117,2.62646l.02392-.0122c-.09619-1.0791-.12011-2.0625-.12011-3.32227v-3.38183h.9834v8.08349h-1.05518l-2.56689-4.10156a25.72484,25.72484,0,0,1-1.51075-2.69873l-.03613.01221c.06006,1.019.084,1.99072.084,3.334v3.4541Z" transform="translate(-668.43813 -301.7244)"/>
  </g>
  <g>
    <path d="M719.14258,422.23633a5.17945,5.17945,0,0,1-2.13477.38379,3.778,3.778,0,0,1-3.99414-4.08985,4.02271,4.02271,0,0,1,4.22168-4.2456,4.32983,4.32983,0,0,1,1.91895.35986l-.252.85108a3.80687,3.80687,0,0,0-1.63086-.33545,3.00567,3.00567,0,0,0-3.15429,3.334,2.93847,2.93847,0,0,0,3.10644,3.25049,4.18167,4.18167,0,0,0,1.70313-.33594Z" transform="translate(-668.43813 -301.7244)"/>
    <path d="M727.10986,418.37451c0,2.78223-1.6914,4.25733-3.7539,4.25733-2.13477,0-3.63428-1.65479-3.63428-4.10157,0-2.56689,1.59521-4.2456,3.75391-4.2456C725.68262,414.28467,727.10986,415.97559,727.10986,418.37451Zm-6.27246.13184c0,1.72705.93506,3.27392,2.57862,3.27392,1.65478,0,2.59033-1.52295,2.59033-3.35791,0-1.60742-.83936-3.28613-2.57862-3.28613C721.70068,415.13623,720.8374,416.731,720.8374,418.50635Z" transform="translate(-668.43813 -301.7244)"/>
    <path d="M729.5127,414.4165v4.78516c0,1.811.80322,2.57861,1.88281,2.57861,1.19922,0,1.96679-.7915,1.96679-2.57861V414.4165H734.418v4.71338c0,2.48242-1.30762,3.502-3.05859,3.502-1.65479,0-2.90235-.94727-2.90235-3.45411V414.4165Z" transform="translate(-668.43813 -301.7244)"/>
    <path d="M737.76855,415.3042h-2.459v-.8877h5.98486v.8877h-2.4707V422.5h-1.05518Z" transform="translate(-668.43813 -301.7244)"/>
  </g>
  <line class="cls-1" x1="85.80686" y1="13.58842" x2="75.24503" y2="13.58842"/>
  <line class="cls-1" x1="85.80686" y1="117.74059" x2="75.24503" y2="117.74059"/>
</svg>
