<svg id="Layer_1" data-name="Layer 1" xmlns="http://www.w3.org/2000/svg" viewBox="0 0 106.05 130.93"><defs><style>.cls-1,.cls-2{fill:none;stroke:#000;stroke-miterlimit:10;}.cls-1{stroke-linecap:round;stroke-width:0.25px;}.cls-2{stroke-width:0.5px;}</style></defs><path d="M753.5,302.22V432.15h-74V302.22h74m.5-.5H679V432.65h75V301.72Z" transform="translate(-663.47 -301.72)"/><path d="M719.93,315.33a2.71,2.71,0,0,1-.12.82,2.48,2.48,0,0,1-.31.68,2.78,2.78,0,0,1-.5.53,3.17,3.17,0,0,1-.65.38,3.73,3.73,0,0,1-.78.23,5.34,5.34,0,0,1-1,.07h-2.47a.5.5,0,0,1-.32-.11.48.48,0,0,1-.15-.4v-8.45a.48.48,0,0,1,.15-.4.5.5,0,0,1,.32-.11h2.15a4.87,4.87,0,0,1,1.39.16,2.25,2.25,0,0,1,.91.47,1.86,1.86,0,0,1,.54.75,2.53,2.53,0,0,1,.19,1,2.75,2.75,0,0,1-.08.65,2.56,2.56,0,0,1-.24.56,2,2,0,0,1-.4.47,2.15,2.15,0,0,1-.54.34,2,2,0,0,1,.72.26,2.18,2.18,0,0,1,.59.5,2.29,2.29,0,0,1,.4.7A2.52,2.52,0,0,1,719.93,315.33Zm-1.9-4.24a2.08,2.08,0,0,0-.09-.63,1.35,1.35,0,0,0-.3-.47,1.41,1.41,0,0,0-.54-.3,3.35,3.35,0,0,0-.87-.1h-1.3v3.07h1.43a1.94,1.94,0,0,0,.79-.13,1.39,1.39,0,0,0,.5-.34,1.36,1.36,0,0,0,.29-.51A2,2,0,0,0,718,311.09Zm.57,4.31a2,2,0,0,0-.13-.75,1.41,1.41,0,0,0-.4-.54,1.6,1.6,0,0,0-.65-.33,3.4,3.4,0,0,0-1-.12h-1.51V317h1.83a2.39,2.39,0,0,0,.75-.1,1.72,1.72,0,0,0,.57-.3,1.45,1.45,0,0,0,.38-.5A1.56,1.56,0,0,0,718.6,315.4Z" transform="translate(-663.47 -301.72)"/><path d="M717.13,332.85a.2.2,0,0,1,0,.11.2.2,0,0,1-.1.07l-.2,0-.3,0-.3,0-.2,0a.2.2,0,0,1-.1-.07.2.2,0,0,1,0-.11v-9.09a.2.2,0,0,1,0-.11.23.23,0,0,1,.11-.07l.2,0,.29,0,.3,0,.2,0a.2.2,0,0,1,.1.07.2.2,0,0,1,0,.11Z" transform="translate(-663.47 -301.72)"/><path d="M720.08,347.52a.62.62,0,0,1-.05.25.37.37,0,0,1-.13.17.42.42,0,0,1-.17.1l-.2,0h-.42a1.67,1.67,0,0,1-.34,0,.85.85,0,0,1-.28-.15,1.54,1.54,0,0,1-.27-.29,3.64,3.64,0,0,1-.28-.47l-2.89-5.39-.46-.87-.43-.89h0c0,.35,0,.71,0,1.07s0,.73,0,1.09v5.72a.17.17,0,0,1,0,.1.24.24,0,0,1-.11.08l-.19,0-.31,0-.3,0-.19,0a.21.21,0,0,1-.1-.08.17.17,0,0,1,0-.1v-8.74a.48.48,0,0,1,.16-.42.65.65,0,0,1,.37-.12h.62a1.79,1.79,0,0,1,.36,0,1.11,1.11,0,0,1,.27.12,1.33,1.33,0,0,1,.23.24,2.9,2.9,0,0,1,.23.38l2.22,4.16c.14.25.27.5.39.74l.37.71.35.7c.12.22.23.45.35.68h0c0-.39,0-.79,0-1.21s0-.81,0-1.2v-5.14a.17.17,0,0,1,0-.1.23.23,0,0,1,.11-.07.48.48,0,0,1,.19-.05l.31,0,.3,0a.48.48,0,0,1,.19.05.2.2,0,0,1,.1.07.17.17,0,0,1,0,.1Z" transform="translate(-663.47 -301.72)"/><path d="M720.09,365.09a1.34,1.34,0,0,1,0,.21.61.61,0,0,1,0,.15.73.73,0,0,1,0,.12l-.1.13-.31.22a3.47,3.47,0,0,1-.58.29,4.19,4.19,0,0,1-.8.24,4.37,4.37,0,0,1-1,.1,4.2,4.2,0,0,1-1.66-.31,3.28,3.28,0,0,1-1.27-.9,4.18,4.18,0,0,1-.81-1.49,6.87,6.87,0,0,1-.28-2,6.44,6.44,0,0,1,.31-2.1,4.47,4.47,0,0,1,.85-1.57,3.59,3.59,0,0,1,1.31-1,4.1,4.1,0,0,1,1.7-.34,4.26,4.26,0,0,1,.8.08,4.72,4.72,0,0,1,.72.19,3.9,3.9,0,0,1,.58.27,1.87,1.87,0,0,1,.36.26.64.64,0,0,1,.12.15.33.33,0,0,1,0,.12s0,.1,0,.16a1.55,1.55,0,0,1,0,.23,1.85,1.85,0,0,1,0,.25.69.69,0,0,1,0,.17.2.2,0,0,1-.07.1.15.15,0,0,1-.1,0,.51.51,0,0,1-.28-.14,5.1,5.1,0,0,0-.48-.31,3.65,3.65,0,0,0-.71-.32,3.15,3.15,0,0,0-1-.14,2.55,2.55,0,0,0-1.15.25,2.37,2.37,0,0,0-.89.75,3.38,3.38,0,0,0-.57,1.19,5.68,5.68,0,0,0-.21,1.62,5.85,5.85,0,0,0,.2,1.59,3.39,3.39,0,0,0,.56,1.16,2.33,2.33,0,0,0,.89.7,2.92,2.92,0,0,0,1.2.24,3.24,3.24,0,0,0,1-.14,3.9,3.9,0,0,0,.73-.31l.49-.31a.49.49,0,0,1,.3-.14l.09,0a.12.12,0,0,1,0,.08.69.69,0,0,1,0,.18C720.08,364.89,720.09,365,720.09,365.09Z" transform="translate(-663.47 -301.72)"/><path d="M720.73,376.59a7.41,7.41,0,0,1-.27,2.07,4.33,4.33,0,0,1-.81,1.57,3.67,3.67,0,0,1-1.35,1,4.81,4.81,0,0,1-1.9.34,4.89,4.89,0,0,1-1.84-.31,3.4,3.4,0,0,1-1.29-.93,3.91,3.91,0,0,1-.76-1.51,7.62,7.62,0,0,1-.25-2.07,7.2,7.2,0,0,1,.27-2,4.28,4.28,0,0,1,.81-1.56,3.66,3.66,0,0,1,1.36-1,4.64,4.64,0,0,1,1.9-.35,4.85,4.85,0,0,1,1.82.31,3.28,3.28,0,0,1,1.29.92,3.88,3.88,0,0,1,.77,1.5A7.4,7.4,0,0,1,720.73,376.59Zm-1.33.08a7.78,7.78,0,0,0-.14-1.49,3.51,3.51,0,0,0-.48-1.2,2.29,2.29,0,0,0-.89-.8,3,3,0,0,0-1.37-.28,2.87,2.87,0,0,0-1.38.3,2.63,2.63,0,0,0-.9.82,3.42,3.42,0,0,0-.5,1.2,6.76,6.76,0,0,0-.15,1.44,8.16,8.16,0,0,0,.14,1.54,3.36,3.36,0,0,0,.47,1.21,2.24,2.24,0,0,0,.88.79,3,3,0,0,0,1.39.28,2.94,2.94,0,0,0,1.39-.3,2.59,2.59,0,0,0,.9-.84,3.28,3.28,0,0,0,.49-1.21A6.81,6.81,0,0,0,719.4,376.67Z" transform="translate(-663.47 -301.72)"/><path d="M720.07,392.93a4.42,4.42,0,0,1-.25,1.55,3.17,3.17,0,0,1-.72,1.14,3,3,0,0,1-1.14.71,4.55,4.55,0,0,1-1.53.24,4.29,4.29,0,0,1-1.43-.22,3.11,3.11,0,0,1-1.11-.67,3,3,0,0,1-.71-1.11,4.56,4.56,0,0,1-.25-1.54v-5.88a.15.15,0,0,1,0-.1.18.18,0,0,1,.1-.07.83.83,0,0,1,.2-.05l.3,0,.3,0a.72.72,0,0,1,.2.05.18.18,0,0,1,.1.07.15.15,0,0,1,0,.1v5.73a3.67,3.67,0,0,0,.16,1.15,2.15,2.15,0,0,0,.46.81,1.92,1.92,0,0,0,.73.49,2.7,2.7,0,0,0,1,.17,2.9,2.9,0,0,0,1-.16,1.85,1.85,0,0,0,.73-.49,2,2,0,0,0,.45-.8,3.34,3.34,0,0,0,.16-1.11v-5.79a.15.15,0,0,1,0-.1.15.15,0,0,1,.1-.07l.2-.05.3,0,.3,0a.74.74,0,0,1,.19.05.18.18,0,0,1,.1.07.15.15,0,0,1,0,.1Z" transform="translate(-663.47 -301.72)"/><path d="M720.08,410.92a.57.57,0,0,1-.05.24.37.37,0,0,1-.13.17.42.42,0,0,1-.17.1l-.2,0h-.42a1.67,1.67,0,0,1-.34,0,.85.85,0,0,1-.28-.15,1.54,1.54,0,0,1-.27-.29,3.64,3.64,0,0,1-.28-.47l-2.89-5.39-.46-.87-.43-.89h0c0,.35,0,.71,0,1.07s0,.73,0,1.09v5.72a.17.17,0,0,1,0,.1.19.19,0,0,1-.11.08l-.19,0-.31,0-.3,0-.19,0a.16.16,0,0,1-.1-.08.17.17,0,0,1,0-.1V402.5a.5.5,0,0,1,.16-.42.65.65,0,0,1,.37-.12h.62a1.79,1.79,0,0,1,.36,0,1.11,1.11,0,0,1,.27.12,1.33,1.33,0,0,1,.23.24,3.77,3.77,0,0,1,.23.38l2.22,4.16c.14.25.27.5.39.74l.37.71.35.7c.12.22.23.45.35.68h0c0-.38,0-.79,0-1.2s0-.82,0-1.21v-5.14a.19.19,0,0,1,0-.1A.35.35,0,0,1,719,402a.74.74,0,0,1,.19-.05h.61a.74.74,0,0,1,.19.05.29.29,0,0,1,.1.07.19.19,0,0,1,0,.1Z" transform="translate(-663.47 -301.72)"/><path d="M720,417.5a1.77,1.77,0,0,1,0,.24.69.69,0,0,1,0,.17.24.24,0,0,1-.08.09.19.19,0,0,1-.1,0h-2.67v8.21a.2.2,0,0,1,0,.11.2.2,0,0,1-.1.07l-.2,0-.3,0-.3,0-.2,0a.2.2,0,0,1-.1-.07.2.2,0,0,1,0-.11V418H713.2a.19.19,0,0,1-.1,0,.24.24,0,0,1-.08-.09c0-.05,0-.1,0-.17a1.77,1.77,0,0,1,0-.24,2,2,0,0,1,0-.25c0-.07,0-.12,0-.17a.24.24,0,0,1,.08-.09.19.19,0,0,1,.1,0h6.6a.19.19,0,0,1,.1,0,.24.24,0,0,1,.08.09.69.69,0,0,1,0,.17A2,2,0,0,1,720,417.5Z" transform="translate(-663.47 -301.72)"/><path d="M691.69,320a.83.83,0,0,1,.06.27c0,.07,0,.13-.06.16a.34.34,0,0,1-.2.07l-.39,0h-.39a1,1,0,0,1-.22,0,.16.16,0,0,1-.1-.08.41.41,0,0,1-.07-.11l-.87-2.46h-4.2l-.83,2.43-.06.12a.36.36,0,0,1-.12.08.54.54,0,0,1-.21.05l-.35,0-.37,0a.43.43,0,0,1-.21-.07.21.21,0,0,1-.05-.16.71.71,0,0,1,.07-.28l3.39-9.39a.33.33,0,0,1,.23-.23,1.31,1.31,0,0,1,.25,0h.8a1.3,1.3,0,0,1,.26,0,.35.35,0,0,1,.16.09.54.54,0,0,1,.09.15Zm-4.36-8.29h0l-1.75,5h3.52Z" transform="translate(-663.47 -301.72)"/><path d="M690.78,338.34a3,3,0,0,1-.12.88,2.88,2.88,0,0,1-.34.73,2.56,2.56,0,0,1-.53.56,3.15,3.15,0,0,1-.69.41,4.42,4.42,0,0,1-.83.24,5.17,5.17,0,0,1-1,.08h-2.64a.54.54,0,0,1-.34-.12.48.48,0,0,1-.16-.42v-9a.52.52,0,0,1,.16-.43.54.54,0,0,1,.34-.12h2.29a5.13,5.13,0,0,1,1.49.18,2.58,2.58,0,0,1,1,.5,2,2,0,0,1,.58.8,2.85,2.85,0,0,1,.2,1.08,2.61,2.61,0,0,1-.09.69,2.12,2.12,0,0,1-.25.6,2,2,0,0,1-.42.5,2.83,2.83,0,0,1-.58.36,2.38,2.38,0,0,1,.77.28,2.47,2.47,0,0,1,.63.53,2.28,2.28,0,0,1,.42.75A2.61,2.61,0,0,1,690.78,338.34Zm-2-4.52a2,2,0,0,0-.11-.66,1.21,1.21,0,0,0-.31-.51,1.56,1.56,0,0,0-.57-.31,3,3,0,0,0-.93-.11h-1.39v3.27H687a2,2,0,0,0,.84-.14,1.55,1.55,0,0,0,.53-.36,1.62,1.62,0,0,0,.31-.54A2.31,2.31,0,0,0,688.76,333.82Zm.61,4.6a2,2,0,0,0-.15-.79,1.45,1.45,0,0,0-.42-.58,1.81,1.81,0,0,0-.69-.36,3.89,3.89,0,0,0-1.05-.12h-1.61v3.56h1.95a2.38,2.38,0,0,0,.8-.11,1.87,1.87,0,0,0,.61-.32,1.54,1.54,0,0,0,.41-.53A1.79,1.79,0,0,0,689.37,338.42Z" transform="translate(-663.47 -301.72)"/><path d="M690.87,360.58c0,.09,0,.16,0,.22l0,.17a.43.43,0,0,1-.05.12.58.58,0,0,1-.11.13,1.39,1.39,0,0,1-.33.24,3.24,3.24,0,0,1-.62.31,4.49,4.49,0,0,1-.85.26,4.9,4.9,0,0,1-1,.11,4.59,4.59,0,0,1-1.78-.33,3.54,3.54,0,0,1-1.35-1,4.44,4.44,0,0,1-.86-1.58,7.16,7.16,0,0,1-.3-2.17,7.34,7.34,0,0,1,.32-2.24,5,5,0,0,1,.91-1.67,3.93,3.93,0,0,1,1.41-1,4.4,4.4,0,0,1,1.81-.36,4.8,4.8,0,0,1,.85.08,5.24,5.24,0,0,1,.76.21,3.33,3.33,0,0,1,.63.29,2.26,2.26,0,0,1,.38.27.69.69,0,0,1,.13.16.39.39,0,0,1,0,.13.43.43,0,0,1,0,.17,1.66,1.66,0,0,1,0,.24,1.87,1.87,0,0,1,0,.27.78.78,0,0,1,0,.18.23.23,0,0,1-.07.11.15.15,0,0,1-.11,0,.54.54,0,0,1-.3-.16,4.57,4.57,0,0,0-.51-.33,4.41,4.41,0,0,0-.75-.34A3.37,3.37,0,0,0,688,353a2.77,2.77,0,0,0-1.23.27,2.54,2.54,0,0,0-.94.79,3.71,3.71,0,0,0-.61,1.28A6,6,0,0,0,685,357a6.23,6.23,0,0,0,.21,1.7,3.58,3.58,0,0,0,.6,1.24,2.48,2.48,0,0,0,1,.75A3.08,3.08,0,0,0,688,361a3.39,3.39,0,0,0,1.06-.15,4.68,4.68,0,0,0,.77-.33,6.09,6.09,0,0,0,.52-.33.63.63,0,0,1,.32-.15l.1,0,.06.09a.84.84,0,0,1,0,.19A2.07,2.07,0,0,1,690.87,360.58Z" transform="translate(-663.47 -301.72)"/><path d="M691.89,377.58a6.86,6.86,0,0,1-.34,2.29,4.09,4.09,0,0,1-1,1.63,4,4,0,0,1-1.58,1,6.73,6.73,0,0,1-2.23.32h-2.14a.54.54,0,0,1-.34-.12.48.48,0,0,1-.16-.42v-9a.48.48,0,0,1,.16-.42.5.5,0,0,1,.34-.13h2.28a6.48,6.48,0,0,1,2.22.34,4.11,4.11,0,0,1,1.52,1,4.21,4.21,0,0,1,.93,1.54A6.25,6.25,0,0,1,691.89,377.58Zm-1.41.06a5.34,5.34,0,0,0-.21-1.53,3.29,3.29,0,0,0-.63-1.22,2.9,2.9,0,0,0-1.1-.81,4.42,4.42,0,0,0-1.71-.29h-1.37v7.87h1.38a4.89,4.89,0,0,0,1.64-.24,2.58,2.58,0,0,0,1.1-.75,3.19,3.19,0,0,0,.67-1.25A6.25,6.25,0,0,0,690.48,377.64Z" transform="translate(-663.47 -301.72)"/><path d="M737.66,319.72a.85.85,0,0,1,0,.25.38.38,0,0,1-.06.17l-.09.09a.2.2,0,0,1-.11,0h-5.28a.19.19,0,0,1-.1,0,.38.38,0,0,1-.09-.09.38.38,0,0,1-.06-.17.85.85,0,0,1,0-.25.88.88,0,0,1,0-.24.84.84,0,0,1,0-.17l.09-.1a.2.2,0,0,1,.11,0h2.11v-7.69l-2,1.16a.72.72,0,0,1-.24.1.14.14,0,0,1-.14,0,.3.3,0,0,1-.08-.17,2.07,2.07,0,0,1,0-.29c0-.09,0-.17,0-.23a.54.54,0,0,1,0-.15.3.3,0,0,1,.07-.11.27.27,0,0,1,.11-.1l2.33-1.49a.15.15,0,0,1,.08,0l.11,0,.17,0h.54l.2,0a.15.15,0,0,1,.09.08.11.11,0,0,1,0,.08v8.89h1.82a.21.21,0,0,1,.12,0,.28.28,0,0,1,.09.1l.06.17A1.66,1.66,0,0,1,737.66,319.72Z" transform="translate(-663.47 -301.72)"/><path d="M749.58,321.15a2.36,2.36,0,0,1,0,.3.54.54,0,0,1-.06.18.19.19,0,0,1-.09.09l-.09,0a1.57,1.57,0,0,1-.5-.13,5.6,5.6,0,0,1-.8-.38,9.71,9.71,0,0,1-1-.59,7.63,7.63,0,0,1-1-.82,4.23,4.23,0,0,1-1,.4,4.68,4.68,0,0,1-1.36.17,5.31,5.31,0,0,1-2-.33,3.4,3.4,0,0,1-1.38-1,4.28,4.28,0,0,1-.81-1.61,8.22,8.22,0,0,1-.26-2.21,7.38,7.38,0,0,1,.29-2.18,4.59,4.59,0,0,1,.86-1.66,4,4,0,0,1,1.45-1.05,5.7,5.7,0,0,1,3.93,0,3.62,3.62,0,0,1,1.38,1,4,4,0,0,1,.84,1.59,7.57,7.57,0,0,1,.29,2.18,9.46,9.46,0,0,1-.08,1.21,7.24,7.24,0,0,1-.23,1.09,4.78,4.78,0,0,1-.41.95,3.55,3.55,0,0,1-.57.79,8.14,8.14,0,0,0,1,.73,7.41,7.41,0,0,0,.72.4c.18.09.33.15.43.19a.76.76,0,0,1,.24.13.42.42,0,0,1,.11.21A1.83,1.83,0,0,1,749.58,321.15Zm-2.66-6a8,8,0,0,0-.15-1.59,3.58,3.58,0,0,0-.51-1.28,2.44,2.44,0,0,0-1-.85,3.21,3.21,0,0,0-1.47-.3,3,3,0,0,0-1.47.32,2.79,2.79,0,0,0-1,.88,3.45,3.45,0,0,0-.53,1.27,7,7,0,0,0-.16,1.54,8.32,8.32,0,0,0,.15,1.64,3.55,3.55,0,0,0,.5,1.29,2.27,2.27,0,0,0,.94.85,3.22,3.22,0,0,0,1.48.3,3,3,0,0,0,1.48-.33,2.66,2.66,0,0,0,1-.88,3.87,3.87,0,0,0,.53-1.3A7.79,7.79,0,0,0,746.92,315.17Z" transform="translate(-663.47 -301.72)"/><path d="M737.63,340.49a.94.94,0,0,1,0,.25.87.87,0,0,1-.05.19.19.19,0,0,1-.1.1.17.17,0,0,1-.12,0h-5.59a.54.54,0,0,1-.19,0,.34.34,0,0,1-.14-.09.38.38,0,0,1-.09-.18,1.17,1.17,0,0,1,0-.29,2.13,2.13,0,0,1,0-.27.46.46,0,0,1,0-.21,1.62,1.62,0,0,1,.1-.18,1.24,1.24,0,0,1,.16-.19l2-2.08a12.58,12.58,0,0,0,1.12-1.28,6.83,6.83,0,0,0,.65-1,3,3,0,0,0,.3-.86,3.68,3.68,0,0,0,.08-.71,1.69,1.69,0,0,0-.12-.64,1.51,1.51,0,0,0-.32-.53,1.6,1.6,0,0,0-.54-.36,1.88,1.88,0,0,0-.74-.13,2.67,2.67,0,0,0-.88.13,5.74,5.74,0,0,0-.69.29c-.19.11-.36.2-.49.29a.61.61,0,0,1-.29.13.2.2,0,0,1-.11,0,.29.29,0,0,1-.07-.1.78.78,0,0,1,0-.19,2.16,2.16,0,0,1,0-.28,1.21,1.21,0,0,1,0-.2.33.33,0,0,1,0-.15.61.61,0,0,1,.05-.12.64.64,0,0,1,.12-.13,2.8,2.8,0,0,1,.33-.23,3.57,3.57,0,0,1,.58-.27,4.87,4.87,0,0,1,.76-.23,3.6,3.6,0,0,1,.88-.1,3.63,3.63,0,0,1,1.29.21,2.61,2.61,0,0,1,.91.57,2.29,2.29,0,0,1,.54.83,2.88,2.88,0,0,1,.18,1,6.22,6.22,0,0,1-.08,1,3.85,3.85,0,0,1-.37,1,7.27,7.27,0,0,1-.8,1.24,18.26,18.26,0,0,1-1.39,1.58l-1.6,1.67h4.4l.12,0a.36.36,0,0,1,.1.11.48.48,0,0,1,.06.18A.9.9,0,0,1,737.63,340.49Z" transform="translate(-663.47 -301.72)"/><path d="M749.58,342a2.36,2.36,0,0,1,0,.3.47.47,0,0,1-.06.19.26.26,0,0,1-.09.09l-.09,0a1.57,1.57,0,0,1-.5-.13,5.44,5.44,0,0,1-.8-.37c-.31-.17-.63-.37-1-.6a6.91,6.91,0,0,1-1-.82,4.22,4.22,0,0,1-1,.41,5.05,5.05,0,0,1-1.36.17,5.11,5.11,0,0,1-2-.34,3.38,3.38,0,0,1-1.38-1,4.25,4.25,0,0,1-.81-1.62,8.65,8.65,0,0,1-.26-2.21,7.42,7.42,0,0,1,.29-2.18,4.55,4.55,0,0,1,.86-1.65,3.87,3.87,0,0,1,1.45-1.06,5.24,5.24,0,0,1,2-.37,4.9,4.9,0,0,1,1.91.34,3.52,3.52,0,0,1,1.38,1,4,4,0,0,1,.84,1.59,7.5,7.5,0,0,1,.29,2.17,9.34,9.34,0,0,1-.08,1.21,7,7,0,0,1-.23,1.09,4.63,4.63,0,0,1-.41,1,4.07,4.07,0,0,1-.57.79,11,11,0,0,0,1,.73q.44.25.72.39c.18.09.33.15.43.19a.66.66,0,0,1,.24.14.42.42,0,0,1,.11.21A1.73,1.73,0,0,1,749.58,342Zm-2.66-6a8,8,0,0,0-.15-1.59,3.66,3.66,0,0,0-.51-1.28,2.42,2.42,0,0,0-1-.84,3.56,3.56,0,0,0-2.93,0,2.74,2.74,0,0,0-1,.88,3.68,3.68,0,0,0-.53,1.28,6.87,6.87,0,0,0-.16,1.54,8.22,8.22,0,0,0,.15,1.63,3.67,3.67,0,0,0,.5,1.3,2.39,2.39,0,0,0,.94.84,3.25,3.25,0,0,0,1.48.3,3.15,3.15,0,0,0,1.48-.32,2.68,2.68,0,0,0,1-.89,3.78,3.78,0,0,0,.53-1.3A7.79,7.79,0,0,0,746.92,336Z" transform="translate(-663.47 -301.72)"/><path d="M737.55,359a3.15,3.15,0,0,1-.24,1.26,2.62,2.62,0,0,1-.69.95,3.28,3.28,0,0,1-1.12.62,4.94,4.94,0,0,1-1.5.21,5.61,5.61,0,0,1-1-.08,4.65,4.65,0,0,1-.78-.2,3.2,3.2,0,0,1-.57-.23,1.23,1.23,0,0,1-.29-.18.41.41,0,0,1-.09-.1.58.58,0,0,1-.05-.14.78.78,0,0,1,0-.19,2.27,2.27,0,0,1,0-.28,1.18,1.18,0,0,1,0-.39.2.2,0,0,1,.17-.11,1,1,0,0,1,.28.13q.21.12.54.27t.78.27a3.84,3.84,0,0,0,1,.12,2.94,2.94,0,0,0,.93-.13,1.88,1.88,0,0,0,.67-.37,1.54,1.54,0,0,0,.41-.58,1.89,1.89,0,0,0,.14-.72,1.79,1.79,0,0,0-.17-.78,1.89,1.89,0,0,0-.51-.59,2.44,2.44,0,0,0-.83-.38,4.1,4.1,0,0,0-1.1-.13h-1a.27.27,0,0,1-.12,0,.31.31,0,0,1-.11-.09.54.54,0,0,1-.07-.17.88.88,0,0,1,0-.26.9.9,0,0,1,0-.25.34.34,0,0,1,.06-.15.28.28,0,0,1,.1-.09l.12,0h.89a2.92,2.92,0,0,0,.92-.13,2,2,0,0,0,.7-.38,1.86,1.86,0,0,0,.44-.6,1.94,1.94,0,0,0,.15-.78,2,2,0,0,0-.1-.6,1.32,1.32,0,0,0-.31-.49,1.37,1.37,0,0,0-.52-.33,2,2,0,0,0-.73-.12,2.45,2.45,0,0,0-.83.13,4.79,4.79,0,0,0-.68.3,4.9,4.9,0,0,0-.49.29.61.61,0,0,1-.27.13h-.1a.19.19,0,0,1-.07-.08.61.61,0,0,1,0-.17,2.1,2.1,0,0,1,0-.27,1.34,1.34,0,0,1,0-.21.41.41,0,0,1,0-.16.61.61,0,0,1,.05-.12l.11-.13a1.74,1.74,0,0,1,.3-.21,3.24,3.24,0,0,1,.56-.28,4.56,4.56,0,0,1,.76-.23,4.62,4.62,0,0,1,.94-.09,3.8,3.8,0,0,1,1.23.18,2.4,2.4,0,0,1,.89.5,2,2,0,0,1,.53.79,2.71,2.71,0,0,1,.18,1,3.19,3.19,0,0,1-.13.89,2.23,2.23,0,0,1-.37.72,2.35,2.35,0,0,1-.59.54,2.32,2.32,0,0,1-.81.31v0a2.62,2.62,0,0,1,.95.26,2.71,2.71,0,0,1,.75.52,2.29,2.29,0,0,1,.49.73A2.24,2.24,0,0,1,737.55,359Z" transform="translate(-663.47 -301.72)"/><path d="M749.58,362.77a2.69,2.69,0,0,1,0,.31.38.38,0,0,1-.06.18c0,.05,0,.08-.09.09l-.09,0a1.91,1.91,0,0,1-.5-.13,5.6,5.6,0,0,1-.8-.38,8.29,8.29,0,0,1-1-.6,6.3,6.3,0,0,1-1-.82,3.82,3.82,0,0,1-1,.41,5.05,5.05,0,0,1-1.36.17,5.31,5.31,0,0,1-2-.33,3.5,3.5,0,0,1-1.38-1,4.28,4.28,0,0,1-.81-1.61,8.67,8.67,0,0,1-.26-2.22,7.35,7.35,0,0,1,.29-2.17,4.59,4.59,0,0,1,.86-1.66A3.85,3.85,0,0,1,741.9,352a5.7,5.7,0,0,1,3.93,0,3.62,3.62,0,0,1,1.38,1,4,4,0,0,1,.84,1.59,7.55,7.55,0,0,1,.29,2.17,9.49,9.49,0,0,1-.08,1.22A7.24,7.24,0,0,1,748,359a4.78,4.78,0,0,1-.41.95,3.79,3.79,0,0,1-.57.79,9.36,9.36,0,0,0,1,.73,7.41,7.41,0,0,0,.72.4l.43.19a.66.66,0,0,1,.24.13.42.42,0,0,1,.11.21A1.73,1.73,0,0,1,749.58,362.77Zm-2.66-6a8.05,8.05,0,0,0-.15-1.6,3.53,3.53,0,0,0-.51-1.27,2.36,2.36,0,0,0-1-.85,3.2,3.2,0,0,0-1.47-.31,3,3,0,0,0-1.46.33,2.71,2.71,0,0,0-1,.87,3.76,3.76,0,0,0-.53,1.28,7,7,0,0,0-.16,1.54,8.4,8.4,0,0,0,.15,1.64,3.62,3.62,0,0,0,.5,1.29,2.41,2.41,0,0,0,.94.85,3.25,3.25,0,0,0,1.48.3,3,3,0,0,0,1.48-.33,2.6,2.6,0,0,0,1-.89,3.73,3.73,0,0,0,.53-1.29A7.94,7.94,0,0,0,746.92,356.8Z" transform="translate(-663.47 -301.72)"/><path d="M738.06,379.82a.81.81,0,0,1-.08.41.23.23,0,0,1-.21.15h-1.15v2.12a.2.2,0,0,1,0,.11.23.23,0,0,1-.11.07.81.81,0,0,1-.21.05h-.65a.81.81,0,0,1-.21-.05.2.2,0,0,1-.1-.07.2.2,0,0,1,0-.11v-2.12h-4.13a.35.35,0,0,1-.16,0,.21.21,0,0,1-.11-.08.3.3,0,0,1-.07-.18,2.41,2.41,0,0,1,0-.31,2.17,2.17,0,0,1,0-.26.78.78,0,0,1,0-.22.64.64,0,0,1,.06-.18l.09-.2,3.61-6.14a.38.38,0,0,1,.11-.11.77.77,0,0,1,.2-.07,1.72,1.72,0,0,1,.29-.05h.42l.45,0a2,2,0,0,1,.32.05.51.51,0,0,1,.18.08.17.17,0,0,1,.06.12v6.46h1.15a.24.24,0,0,1,.21.13A.83.83,0,0,1,738.06,379.82Zm-2.78-6.1h0L732,379.27h3.26Z" transform="translate(-663.47 -301.72)"/><path d="M749.58,383.59a2.36,2.36,0,0,1,0,.3.47.47,0,0,1-.06.19.26.26,0,0,1-.09.09l-.09,0a1.57,1.57,0,0,1-.5-.13,5.44,5.44,0,0,1-.8-.37c-.31-.17-.63-.37-1-.6a7.63,7.63,0,0,1-1-.82,4.23,4.23,0,0,1-1,.4,4.67,4.67,0,0,1-1.36.18,5.3,5.3,0,0,1-2-.34,3.38,3.38,0,0,1-1.38-1,4.33,4.33,0,0,1-.81-1.62,8.65,8.65,0,0,1-.26-2.21,7.42,7.42,0,0,1,.29-2.18,4.47,4.47,0,0,1,.86-1.65,3.87,3.87,0,0,1,1.45-1.06,5.06,5.06,0,0,1,2-.37,4.9,4.9,0,0,1,1.91.34,3.52,3.52,0,0,1,1.38,1,4,4,0,0,1,.84,1.59,7.5,7.5,0,0,1,.29,2.17,9.46,9.46,0,0,1-.08,1.21,7.24,7.24,0,0,1-.23,1.09,4.87,4.87,0,0,1-.41,1,3.73,3.73,0,0,1-.57.78,9.64,9.64,0,0,0,1,.74q.44.26.72.39c.18.09.33.15.43.19a.66.66,0,0,1,.24.13.42.42,0,0,1,.11.22A1.73,1.73,0,0,1,749.58,383.59Zm-2.66-6a8,8,0,0,0-.15-1.59,3.58,3.58,0,0,0-.51-1.28,2.52,2.52,0,0,0-1-.85,3.21,3.21,0,0,0-1.47-.3,3.06,3.06,0,0,0-1.46.32,2.74,2.74,0,0,0-1,.88,3.63,3.63,0,0,0-.53,1.27,7,7,0,0,0-.16,1.54,8.32,8.32,0,0,0,.15,1.64,3.55,3.55,0,0,0,.5,1.29,2.34,2.34,0,0,0,.94.85,3.25,3.25,0,0,0,1.48.3,3,3,0,0,0,1.48-.33,2.57,2.57,0,0,0,1-.88,3.78,3.78,0,0,0,.53-1.3A7.79,7.79,0,0,0,746.92,377.61Z" transform="translate(-663.47 -301.72)"/><line class="cls-1" x1="15.8" y1="110.69" x2="22.8" y2="116.69"/><line class="cls-1" x1="15.8" y1="122.72" x2="22.8" y2="116.72"/><path d="M694.34,421.21a1.15,1.15,0,0,1,0,.19.59.59,0,0,1,0,.14s0,.08,0,.11a.77.77,0,0,1-.1.12,2.51,2.51,0,0,1-.29.2,2.69,2.69,0,0,1-.54.28,4.2,4.2,0,0,1-.75.22,3.73,3.73,0,0,1-.91.1,4.05,4.05,0,0,1-1.56-.29,3.14,3.14,0,0,1-1.18-.85,3.67,3.67,0,0,1-.75-1.38,6.09,6.09,0,0,1-.27-1.9,6.22,6.22,0,0,1,.29-2,4.26,4.26,0,0,1,.79-1.46,3.35,3.35,0,0,1,1.23-.91,3.88,3.88,0,0,1,1.58-.32,4.54,4.54,0,0,1,.75.07,5.92,5.92,0,0,1,.67.18,3.39,3.39,0,0,1,.54.26,2.14,2.14,0,0,1,.34.23l.12.14s0,.07,0,.12l0,.15c0,.06,0,.13,0,.21a1.4,1.4,0,0,1,0,.23.53.53,0,0,1,0,.16.29.29,0,0,1-.06.1.17.17,0,0,1-.1,0,.47.47,0,0,1-.26-.13l-.45-.3a4.18,4.18,0,0,0-.66-.29,2.86,2.86,0,0,0-.93-.13,2.5,2.5,0,0,0-1.07.23,2.23,2.23,0,0,0-.83.7,3.18,3.18,0,0,0-.53,1.11,5.38,5.38,0,0,0-.19,1.51,5.58,5.58,0,0,0,.18,1.49,3,3,0,0,0,.52,1.08,2.12,2.12,0,0,0,.84.65,2.67,2.67,0,0,0,1.12.23,3.14,3.14,0,0,0,.92-.13,4.32,4.32,0,0,0,.67-.29l.46-.29a.52.52,0,0,1,.28-.13.15.15,0,0,1,.09,0,.12.12,0,0,1,0,.08,1.16,1.16,0,0,1,0,.16A1.86,1.86,0,0,1,694.34,421.21Z" transform="translate(-663.47 -301.72)"/><path d="M700.49,421.94a1.3,1.3,0,0,1,0,.23.62.62,0,0,1,0,.16.27.27,0,0,1-.08.1.17.17,0,0,1-.1,0h-3.91a.48.48,0,0,1-.3-.11.44.44,0,0,1-.14-.37v-8.19a.17.17,0,0,1,0-.1.2.2,0,0,1,.09-.06l.19,0,.28,0,.28,0a.6.6,0,0,1,.18,0,.19.19,0,0,1,.1.06.17.17,0,0,1,0,.1v7.65h3.17a.17.17,0,0,1,.1,0,.24.24,0,0,1,.08.09.54.54,0,0,1,0,.15A1.52,1.52,0,0,1,700.49,421.94Z" transform="translate(-663.47 -301.72)"/><path d="M707.56,422.27a.16.16,0,0,1,0,.09.18.18,0,0,1-.09.08l-.19,0-.3,0-.39,0a.51.51,0,0,1-.22-.08.46.46,0,0,1-.12-.12L703,417.86v4.42a.16.16,0,0,1,0,.09s0,.05-.09.07l-.18,0-.29,0-.28,0a.69.69,0,0,1-.18,0,.2.2,0,0,1-.1-.07.15.15,0,0,1,0-.09v-8.49a.16.16,0,0,1,0-.1.19.19,0,0,1,.1-.06.69.69,0,0,1,.18,0l.28,0,.29,0,.18,0a.16.16,0,0,1,.09.06.17.17,0,0,1,0,.1v3.93l3.13-3.93a.32.32,0,0,1,.1-.1.4.4,0,0,1,.13-.07l.19,0h.29l.29,0a.61.61,0,0,1,.17,0s.08,0,.09.07a.16.16,0,0,1,0,.09.41.41,0,0,1,0,.18,1.4,1.4,0,0,1-.16.24l-2.94,3.51,3.16,4.2a1.18,1.18,0,0,1,.14.24A.26.26,0,0,1,707.56,422.27Z" transform="translate(-663.47 -301.72)"/><path d="M686.37,401.56c0,.08,0,.14,0,.2s0,.09,0,.13,0,.07-.07.08a.12.12,0,0,1-.09,0h-3.35a.4.4,0,0,1-.25-.09.38.38,0,0,1-.12-.32v-7a.11.11,0,0,1,0-.08s0,0,.08-.06l.16,0,.24,0,.24,0,.16,0a.17.17,0,0,1,.08.06.11.11,0,0,1,0,.08v6.56h2.72l.09,0a.27.27,0,0,1,.07.08,1,1,0,0,1,0,.13C686.36,401.42,686.37,401.48,686.37,401.56Z" transform="translate(-663.47 -301.72)"/><path d="M693.57,398.12a5.7,5.7,0,0,1-.22,1.66,3.43,3.43,0,0,1-.65,1.26,2.71,2.71,0,0,1-1.08.79,3.73,3.73,0,0,1-1.51.28,3.89,3.89,0,0,1-1.48-.25,2.71,2.71,0,0,1-1-.74,3.2,3.2,0,0,1-.6-1.21,6.34,6.34,0,0,1-.2-1.66,5.54,5.54,0,0,1,.22-1.63,3.26,3.26,0,0,1,.65-1.24,2.88,2.88,0,0,1,1.08-.8,3.93,3.93,0,0,1,1.52-.27,3.85,3.85,0,0,1,1.46.25,2.65,2.65,0,0,1,1,.73,3.18,3.18,0,0,1,.62,1.2A6.16,6.16,0,0,1,693.57,398.12Zm-1.07.07a6.44,6.44,0,0,0-.11-1.2,2.76,2.76,0,0,0-.38-1,1.88,1.88,0,0,0-.71-.63,2.32,2.32,0,0,0-1.1-.23,2.27,2.27,0,0,0-1.1.24,2.21,2.21,0,0,0-.73.66,2.77,2.77,0,0,0-.39,1,5.34,5.34,0,0,0-.12,1.15,5.92,5.92,0,0,0,.11,1.23,2.73,2.73,0,0,0,.37,1,1.8,1.8,0,0,0,.71.63,2.41,2.41,0,0,0,1.11.23,2.22,2.22,0,0,0,1.11-.25,1.91,1.91,0,0,0,.72-.66,2.61,2.61,0,0,0,.39-1A5.52,5.52,0,0,0,692.5,398.19Z" transform="translate(-663.47 -301.72)"/><path d="M700.71,401.64a.68.68,0,0,1,0,.21.13.13,0,0,1,0,.12.21.21,0,0,1-.15,0l-.29,0H700l-.17,0-.08-.06a.36.36,0,0,1-.05-.09L699,400h-3.15l-.62,1.82a.36.36,0,0,1,0,.09.22.22,0,0,1-.09.07.49.49,0,0,1-.15,0l-.27,0-.28,0a.26.26,0,0,1-.15-.06s0-.06,0-.12a.64.64,0,0,1,0-.2l2.54-7.05.06-.1a.3.3,0,0,1,.11-.07l.19,0h.6l.2,0a.35.35,0,0,1,.12.07.39.39,0,0,1,.06.11Zm-3.27-6.21h0l-1.31,3.78h2.64Z" transform="translate(-663.47 -301.72)"/><path d="M707.8,398.1a5.28,5.28,0,0,1-.25,1.72,3.13,3.13,0,0,1-.74,1.22,3,3,0,0,1-1.18.72A5.23,5.23,0,0,1,704,402h-1.6a.43.43,0,0,1-.26-.09.38.38,0,0,1-.12-.32v-6.76a.38.38,0,0,1,.12-.32.43.43,0,0,1,.26-.09h1.71a4.82,4.82,0,0,1,1.67.25,3.08,3.08,0,0,1,1.14.74,3,3,0,0,1,.69,1.15A4.65,4.65,0,0,1,707.8,398.1Zm-1.06,0a4.26,4.26,0,0,0-.15-1.15,2.34,2.34,0,0,0-.48-.91,2.29,2.29,0,0,0-.82-.61,3.34,3.34,0,0,0-1.29-.21h-1v5.9h1a3.36,3.36,0,0,0,1.22-.19,2,2,0,0,0,.83-.55,2.49,2.49,0,0,0,.5-.94A4.85,4.85,0,0,0,706.74,398.14Z" transform="translate(-663.47 -301.72)"/><path d="M737.86,400.75v.19c0,.06,0,.1,0,.14a.36.36,0,0,1,0,.11.48.48,0,0,1-.1.12l-.28.21a4.48,4.48,0,0,1-1.29.5,4.42,4.42,0,0,1-.92.09,4.05,4.05,0,0,1-1.56-.29,3.11,3.11,0,0,1-1.18-.85,3.67,3.67,0,0,1-.75-1.38,6.09,6.09,0,0,1-.27-1.9,6.26,6.26,0,0,1,.29-2,4.35,4.35,0,0,1,.79-1.46,3.52,3.52,0,0,1,1.23-.91,3.91,3.91,0,0,1,1.58-.32,3.67,3.67,0,0,1,.75.08,4.37,4.37,0,0,1,.67.18,3.5,3.5,0,0,1,.55.25,2,2,0,0,1,.33.24,1,1,0,0,1,.12.14.36.36,0,0,1,0,.11l0,.15a1.41,1.41,0,0,1,0,.22,1.62,1.62,0,0,1,0,.23.75.75,0,0,1-.05.16.2.2,0,0,1-.06.09l-.09,0a.47.47,0,0,1-.27-.13,3.73,3.73,0,0,0-.44-.29,4.07,4.07,0,0,0-.66-.3,2.88,2.88,0,0,0-.94-.13,2.37,2.37,0,0,0-1.07.24,2.18,2.18,0,0,0-.83.69,3.32,3.32,0,0,0-.53,1.12,5.3,5.3,0,0,0-.19,1.5,5.53,5.53,0,0,0,.18,1.49,3.2,3.2,0,0,0,.52,1.08,2.25,2.25,0,0,0,.84.66,2.67,2.67,0,0,0,1.12.22,2.84,2.84,0,0,0,.92-.13,3.65,3.65,0,0,0,.68-.29c.18-.11.33-.2.45-.29a.54.54,0,0,1,.29-.13l.08,0a.12.12,0,0,1,.05.08.35.35,0,0,1,0,.16A1.93,1.93,0,0,1,737.86,400.75Z" transform="translate(-663.47 -301.72)"/><path d="M744,401.49c0,.09,0,.16,0,.23a.53.53,0,0,1,0,.15.2.2,0,0,1-.07.1.2.2,0,0,1-.11,0h-3.91a.5.5,0,0,1-.3-.11.44.44,0,0,1-.14-.37v-8.19a.14.14,0,0,1,0-.09.2.2,0,0,1,.1-.07l.18,0,.28,0,.28,0,.19,0a.22.22,0,0,1,.09.07.14.14,0,0,1,0,.09V401h3.17a.2.2,0,0,1,.11,0,.22.22,0,0,1,.07.09.53.53,0,0,1,0,.15C744,401.32,744,401.4,744,401.49Z" transform="translate(-663.47 -301.72)"/><path d="M751.21,401.82a.3.3,0,0,1,0,.1.22.22,0,0,1-.09.07l-.19,0h-.62a.56.56,0,0,1-.18,0,.31.31,0,0,1-.11-.08.45.45,0,0,1-.06-.14l-.82-2.08a6.86,6.86,0,0,0-.29-.66,2.23,2.23,0,0,0-.37-.51,1.41,1.41,0,0,0-.5-.33,1.78,1.78,0,0,0-.69-.12h-.79v3.76a.17.17,0,0,1,0,.1.15.15,0,0,1-.09.06l-.18,0a1.19,1.19,0,0,1-.28,0,1.23,1.23,0,0,1-.29,0l-.18,0s-.08,0-.09-.06a.17.17,0,0,1,0-.1v-8.19a.42.42,0,0,1,.14-.37.48.48,0,0,1,.3-.11h1.88l.55,0,.4,0a3.35,3.35,0,0,1,.91.28,2.34,2.34,0,0,1,.66.48,2,2,0,0,1,.4.68,2.47,2.47,0,0,1,.13.84,2.43,2.43,0,0,1-.12.79,1.86,1.86,0,0,1-.34.62,2.23,2.23,0,0,1-.54.47,3.59,3.59,0,0,1-.71.34,1.47,1.47,0,0,1,.4.24,2.2,2.2,0,0,1,.33.35,4.19,4.19,0,0,1,.29.47c.09.18.18.38.27.61l.8,1.94c.06.17.1.28.12.35A.56.56,0,0,1,751.21,401.82Zm-1.77-6.21a1.54,1.54,0,0,0-.24-.88,1.31,1.31,0,0,0-.77-.52,2.28,2.28,0,0,0-.39-.06,4.17,4.17,0,0,0-.56,0h-1v3h1.15a2.47,2.47,0,0,0,.81-.12,1.59,1.59,0,0,0,.56-.31,1.22,1.22,0,0,0,.33-.48A1.63,1.63,0,0,0,749.44,395.61Z" transform="translate(-663.47 -301.72)"/><line class="cls-2" x1="15.53" y1="13.92" y2="13.92"/><line class="cls-2" x1="15.53" y1="34.48" y2="34.48"/><line class="cls-2" x1="15.53" y1="55.03" y2="55.03"/><line class="cls-2" x1="15.53" y1="75.59" y2="75.59"/><line class="cls-2" x1="15.78" y1="96.15" x2="0.25" y2="96.15"/><line class="cls-2" x1="12.63" y1="116.7" x2="0.25" y2="116.7"/><line class="cls-2" x1="106.05" y1="13.92" x2="90.53" y2="13.92"/><line class="cls-2" x1="106.05" y1="34.63" x2="90.53" y2="34.63"/><line class="cls-2" x1="106.05" y1="55.34" x2="90.53" y2="55.34"/><line class="cls-2" x1="106.05" y1="76.05" x2="90.53" y2="76.05"/><line class="cls-2" x1="106.05" y1="96.76" x2="90.53" y2="96.76"/><path d="M739.09,423.77a1.93,1.93,0,0,1,0,.25.38.38,0,0,1-.06.17.18.18,0,0,1-.09.1.15.15,0,0,1-.11,0H734a.52.52,0,0,1-.34-.13.48.48,0,0,1-.16-.42v-9a.48.48,0,0,1,.16-.42.56.56,0,0,1,.34-.12h4.8a.2.2,0,0,1,.11,0,.21.21,0,0,1,.08.1.69.69,0,0,1,0,.17,1.1,1.1,0,0,1,0,.27.9.9,0,0,1,0,.24.58.58,0,0,1,0,.17.21.21,0,0,1-.08.1.2.2,0,0,1-.11,0h-4v3.18h3.39a.24.24,0,0,1,.12,0,.27.27,0,0,1,.08.1.38.38,0,0,1,.05.17,1.84,1.84,0,0,1,0,.26,1.66,1.66,0,0,1,0,.24.34.34,0,0,1-.05.16.15.15,0,0,1-.08.09.24.24,0,0,1-.12,0h-3.39v3.62h4a.2.2,0,0,1,.11,0,.18.18,0,0,1,.09.1.38.38,0,0,1,.06.17A2,2,0,0,1,739.09,423.77Z" transform="translate(-663.47 -301.72)"/><path d="M748.92,423.77a.57.57,0,0,1,0,.27.49.49,0,0,1-.14.18.57.57,0,0,1-.19.1l-.21,0h-.44a2,2,0,0,1-.37,0,.88.88,0,0,1-.3-.16,1.73,1.73,0,0,1-.28-.31,4.11,4.11,0,0,1-.3-.5l-3.08-5.75c-.17-.3-.33-.61-.49-.93s-.32-.64-.46-1h0c0,.37,0,.76,0,1.15s0,.78,0,1.16v6.1a.17.17,0,0,1,0,.11.24.24,0,0,1-.11.08l-.2,0a2.73,2.73,0,0,1-.66,0l-.2,0a.21.21,0,0,1-.1-.08.17.17,0,0,1,0-.11v-9.33a.52.52,0,0,1,.18-.44.63.63,0,0,1,.39-.13h.66a1.51,1.51,0,0,1,.39,0,.7.7,0,0,1,.28.12,1.15,1.15,0,0,1,.24.25,4.37,4.37,0,0,1,.25.41l2.37,4.43c.15.28.29.54.42.8s.27.51.39.76.26.49.38.74l.36.73h0c0-.41,0-.84,0-1.29v-6.77a.19.19,0,0,1,0-.1.24.24,0,0,1,.11-.08.93.93,0,0,1,.21-.05l.33,0,.32,0,.2.05a.24.24,0,0,1,.11.08.19.19,0,0,1,0,.1Z" transform="translate(-663.47 -301.72)"/><line class="cls-2" x1="106.05" y1="117.47" x2="90.53" y2="117.47"/><circle class="cls-2" cx="14.14" cy="116.7" r="1.51"/></svg>