<svg id="Layer_1" data-name="Layer 1" xmlns="http://www.w3.org/2000/svg" viewBox="0 0 96.12373 130.92932">
  <defs>
    <style>
      .cls-1, .cls-2, .cls-3 {
        fill: none;
        stroke: #000;
        stroke-miterlimit: 10;
      }

      .cls-1, .cls-3 {
        stroke-linecap: round;
      }

      .cls-1, .cls-2 {
        stroke-width: 0.5px;
      }
    </style>
  </defs>
  <path d="M85.06189.5V130.42932h-74V.5h74m.5-.5h-75V130.92932h75Z"/>
  <path d="M19.86414,18.218a1.128,1.128,0,0,1-.02344.25.54213.54213,0,0,1-.0625.16406.24646.24646,0,0,1-.08985.08984.21755.21755,0,0,1-.10546.02735H14.30164a.195.195,0,0,1-.10157-.02735.28531.28531,0,0,1-.08984-.08984.47328.47328,0,0,1-.06641-.16406,1.12736,1.12736,0,0,1-.02343-.25,1.09094,1.09094,0,0,1,.02343-.24219.70322.70322,0,0,1,.0586-.168.27851.27851,0,0,1,.08593-.10156.19347.19347,0,0,1,.11329-.03516H16.411V9.98361l-1.95312,1.16406a.87133.87133,0,0,1-.23829.09375.15825.15825,0,0,1-.14453-.03515.28531.28531,0,0,1-.07422-.168,1.83849,1.83849,0,0,1-.01953-.29688,1.87439,1.87439,0,0,1,.01172-.22656.70323.70323,0,0,1,.03516-.15625.33249.33249,0,0,1,.0664-.10937.60879.60879,0,0,1,.11329-.09375L16.536,8.66327a.27727.27727,0,0,1,.07813-.03906c.03125-.01026.07031-.02051.11718-.03125a.99527.99527,0,0,1,.16407-.01953c.0625-.00245.14062-.00391.23437-.00391a2.62666,2.62666,0,0,1,.3125.01562.88166.88166,0,0,1,.19531.043.17484.17484,0,0,1,.09375.07032.18511.18511,0,0,1,.02344.08984v8.88281h1.82813a.21359.21359,0,0,1,.11718.03516.26932.26932,0,0,1,.08985.10156.61691.61691,0,0,1,.05468.168A1.33053,1.33053,0,0,1,19.86414,18.218Z"/>
  <path d="M29.84851,13.54611a7.08653,7.08653,0,0,1-.33594,2.293,4.16471,4.16471,0,0,1-.98047,1.625,4.04844,4.04844,0,0,1-1.582.96485,6.92719,6.92719,0,0,1-2.23437.32031H22.57513a.5509.5509,0,0,1-.33984-.1211.50142.50142,0,0,1-.16016-.42578V9.18677a.5022.5022,0,0,1,.16016-.42578.55391.55391,0,0,1,.33984-.1211H24.8642a6.35117,6.35117,0,0,1,2.21875.33985,4.05155,4.05155,0,0,1,1.51953.97656,4.1788,4.1788,0,0,1,.92969,1.543A6.1898,6.1898,0,0,1,29.84851,13.54611Zm-1.41406.05469a5.519,5.519,0,0,0-.20313-1.52734,3.2855,3.2855,0,0,0-.63672-1.22266,2.94687,2.94687,0,0,0-1.09765-.80469A4.32885,4.32885,0,0,0,24.786,9.75705H23.41882v7.86719h1.38282a4.79557,4.79557,0,0,0,1.63281-.24219,2.6906,2.6906,0,0,0,1.10937-.74219,3.22349,3.22349,0,0,0,.668-1.2539A6.33885,6.33885,0,0,0,28.43445,13.6008Z"/>
  <path d="M19.8407,38.94159a1.45986,1.45986,0,0,1-.01953.25.73344.73344,0,0,1-.05469.18359.24314.24314,0,0,1-.09375.10938.24567.24567,0,0,1-.12891.03515H13.95789a.59558.59558,0,0,1-.19141-.02734.3303.3303,0,0,1-.14063-.08984.384.384,0,0,1-.08593-.17969,1.27757,1.27757,0,0,1-.02735-.28906,2.63889,2.63889,0,0,1,.01221-.27344.66523.66523,0,0,1,.05225-.207,1.2559,1.2559,0,0,1,.10058-.17969,1.5002,1.5002,0,0,1,.15723-.19141l2.02051-2.07812a12.95368,12.95368,0,0,0,1.123-1.28906,6.80473,6.80473,0,0,0,.65186-1.03907,3.445,3.445,0,0,0,.30224-.85156,3.90809,3.90809,0,0,0,.07227-.71875,1.7994,1.7994,0,0,0-.11279-.63672,1.56114,1.56114,0,0,0-.32666-.52734,1.53014,1.53014,0,0,0-.53614-.35938,1.93587,1.93587,0,0,0-.74121-.13281,2.74006,2.74006,0,0,0-.88281.13281,4.72463,4.72463,0,0,0-.68555.28907q-.29443.15673-.4917.28906a.62681.62681,0,0,1-.29394.13281.17106.17106,0,0,1-.10108-.03125.21854.21854,0,0,1-.07226-.10156.80157.80157,0,0,1-.04443-.1875A2.10363,2.10363,0,0,1,13.7,30.69162c0-.07813.00244-.14551.00781-.20313a.69733.69733,0,0,1,.02735-.14843.57311.57311,0,0,1,.05078-.11719.60459.60459,0,0,1,.125-.13672,2.55558,2.55558,0,0,1,.32422-.22266,3.76554,3.76554,0,0,1,.57812-.27734,5.22773,5.22773,0,0,1,.76563-.23047,4.00175,4.00175,0,0,1,.8789-.09375,3.65357,3.65357,0,0,1,1.28516.207,2.5645,2.5645,0,0,1,.91406.56641,2.31687,2.31687,0,0,1,.543.83594,2.85831,2.85831,0,0,1,.17969,1.01562,5.48125,5.48125,0,0,1-.08594.96485,3.93288,3.93288,0,0,1-.36328,1.03906,7.834,7.834,0,0,1-.80078,1.24219,18.14494,18.14494,0,0,1-1.39062,1.57421l-1.60157,1.67188H19.536a.23275.23275,0,0,1,.12109.03516.30651.30651,0,0,1,.10157.10546.52673.52673,0,0,1,.0625.17579A1.39724,1.39724,0,0,1,19.8407,38.94159Z"/>
  <path d="M29.84851,34.31659a7.08653,7.08653,0,0,1-.33594,2.293,4.16485,4.16485,0,0,1-.98047,1.625,4.04842,4.04842,0,0,1-1.582.96484,6.92692,6.92692,0,0,1-2.23437.32031H22.57513a.55089.55089,0,0,1-.33984-.12109.50143.50143,0,0,1-.16016-.42578V29.95724a.50222.50222,0,0,1,.16016-.42578.55358.55358,0,0,1,.33984-.12109H24.8642a6.35116,6.35116,0,0,1,2.21875.33984,4.05158,4.05158,0,0,1,1.51953.97657,4.1788,4.1788,0,0,1,.92969,1.543A6.18976,6.18976,0,0,1,29.84851,34.31659Zm-1.41406.05469a5.51906,5.51906,0,0,0-.20313-1.52735,3.28553,3.28553,0,0,0-.63672-1.22265,2.94676,2.94676,0,0,0-1.09765-.80469,4.32867,4.32867,0,0,0-1.71094-.28906H23.41882v7.86718h1.38282a4.79531,4.79531,0,0,0,1.63281-.24218,2.6906,2.6906,0,0,0,1.10937-.74219,3.22346,3.22346,0,0,0,.668-1.25391,6.33852,6.33852,0,0,0,.2226-1.78512Z"/>
  <path d="M19.76257,57.39914a3.12455,3.12455,0,0,1-.24218,1.25391,2.67972,2.67972,0,0,1-.69532.957,3.124,3.124,0,0,1-1.11718.61328,4.86948,4.86948,0,0,1-1.5.21484,5.19078,5.19078,0,0,1-.94922-.082,6.018,6.018,0,0,1-.78516-.19531,3.5693,3.5693,0,0,1-.57031-.23438,1.6196,1.6196,0,0,1-.28516-.17578.45764.45764,0,0,1-.08984-.10937.61851.61851,0,0,1-.05469-.13282,1.04538,1.04538,0,0,1-.03516-.1914,2.76727,2.76727,0,0,1-.01171-.27735.94069.94069,0,0,1,.05615-.39062.17453.17453,0,0,1,.16015-.10938.77706.77706,0,0,1,.28467.125,5.0647,5.0647,0,0,0,.54492.26954,6.025,6.025,0,0,0,.77735.26953,3.64733,3.64733,0,0,0,.98974.125,2.94689,2.94689,0,0,0,.92969-.13282,1.89221,1.89221,0,0,0,.67334-.375,1.53836,1.53836,0,0,0,.40869-.57421,1.88318,1.88318,0,0,0,.13623-.72266,1.63047,1.63047,0,0,0-.68164-1.36719,2.4376,2.4376,0,0,0-.82324-.38281,4.23959,4.23959,0,0,0-1.10937-.13281h-.99219a.2968.2968,0,0,1-.12549-.02735.26053.26053,0,0,1-.105-.08984.52377.52377,0,0,1-.07227-.16406,1.00831,1.00831,0,0,1-.02832-.26563,1.0861,1.0861,0,0,1,.02344-.24609.43267.43267,0,0,1,.06641-.15625.27345.27345,0,0,1,.09765-.08594.277.277,0,0,1,.125-.02734h.88282a2.98878,2.98878,0,0,0,.92578-.13282,1.94617,1.94617,0,0,0,.69531-.38281,1.68345,1.68345,0,0,0,.4375-.59765,1.91523,1.91523,0,0,0,.15234-.77735,1.77811,1.77811,0,0,0-.10156-.59765,1.37305,1.37305,0,0,0-.30469-.4961,1.41224,1.41224,0,0,0-.51953-.332,2.03951,2.03951,0,0,0-.73047-.12109,2.44133,2.44133,0,0,0-.832.13672,5.379,5.379,0,0,0-.67578.293,4.67855,4.67855,0,0,0-.49219.293.62992.62992,0,0,1-.27343.13672.22957.22957,0,0,1-.09766-.01953.14754.14754,0,0,1-.07031-.07812.53149.53149,0,0,1-.03906-.16407,2.62826,2.62826,0,0,1-.01172-.27734c0-.07812.00244-.147.00781-.207a.62618.62618,0,0,1,.03125-.15625.7468.7468,0,0,1,.05469-.12109.65039.65039,0,0,1,.10547-.12891,1.87625,1.87625,0,0,1,.30078-.21484,3.83294,3.83294,0,0,1,.55859-.27735,4.56071,4.56071,0,0,1,.76563-.23047,4.414,4.414,0,0,1,.93359-.09375,3.85929,3.85929,0,0,1,1.23437.17969,2.44726,2.44726,0,0,1,.88672.50781,2.06231,2.06231,0,0,1,.53125.78516,2.798,2.798,0,0,1,.17578,1.01172,3.03648,3.03648,0,0,1-.125.88672,2.23767,2.23767,0,0,1-1.77343,1.57422V54.993a2.91862,2.91862,0,0,1,.957.26172,2.68461,2.68461,0,0,1,.74609.51953,2.27991,2.27991,0,0,1,.66406,1.625Z"/>
  <path d="M29.84851,55.08661a7.08653,7.08653,0,0,1-.33594,2.293,4.16485,4.16485,0,0,1-.98047,1.625,4.04854,4.04854,0,0,1-1.582.96484,6.92692,6.92692,0,0,1-2.23437.32031H22.57513a.55089.55089,0,0,1-.33984-.12109.50143.50143,0,0,1-.16016-.42578V50.72726a.50222.50222,0,0,1,.16016-.42578.55358.55358,0,0,1,.33984-.12109H24.8642a6.35116,6.35116,0,0,1,2.21875.33984,4.05158,4.05158,0,0,1,1.51953.97657,4.17884,4.17884,0,0,1,.92969,1.543A6.18986,6.18986,0,0,1,29.84851,55.08661Zm-1.41406.05469a5.51906,5.51906,0,0,0-.20313-1.52735,3.28546,3.28546,0,0,0-.63672-1.22265,2.94676,2.94676,0,0,0-1.09765-.80469,4.32867,4.32867,0,0,0-1.71094-.28906H23.41882v7.86718h1.38282a4.79531,4.79531,0,0,0,1.63281-.24218,2.6906,2.6906,0,0,0,1.10937-.74219,3.22346,3.22346,0,0,0,.668-1.25391,6.33852,6.33852,0,0,0,.2226-1.78512Z"/>
  <path d="M20.27039,78.18527a.88393.88393,0,0,1-.07813.40625.24027.24027,0,0,1-.21875.14844H18.83289v2.125a.16919.16919,0,0,1-.03223.10547.24714.24714,0,0,1-.11279.07422.92238.92238,0,0,1-.209.04687,2.87191,2.87191,0,0,1-.33008.01563,2.78428,2.78428,0,0,1-.32177-.01563.84129.84129,0,0,1-.20508-.04687.21439.21439,0,0,1-.10449-.07422.18481.18481,0,0,1-.02832-.10547V78.74H13.35339a.44442.44442,0,0,1-.15527-.02344.26625.26625,0,0,1-.1123-.08594.38468.38468,0,0,1-.06934-.17968,1.90526,1.90526,0,0,1-.01953-.30469c0-.09863.00244-.1875.00781-.26563a1.31533,1.31533,0,0,1,.03076-.21484,1.15757,1.15757,0,0,1,.062-.1875c.02539-.05957.05664-.12353.09278-.19141l3.60351-6.14062a.35613.35613,0,0,1,.11524-.10938.72761.72761,0,0,1,.19531-.07812,1.63563,1.63563,0,0,1,.29492-.043q.175-.01172.41406-.01172c.1753,0,.32813.00684.458.01953a2.19283,2.19283,0,0,1,.31446.05078.50812.50812,0,0,1,.18359.082.15253.15253,0,0,1,.06348.1211v6.45322h1.14062a.24527.24527,0,0,1,.21484.13671A.83361.83361,0,0,1,20.27039,78.18527Zm-2.78125-6.10156h-.01563l-3.25,5.54687h3.26563Z"/>
  <path d="M29.84851,75.85715a7.08657,7.08657,0,0,1-.33594,2.293,4.16485,4.16485,0,0,1-.98047,1.625,4.04854,4.04854,0,0,1-1.582.96484,6.92692,6.92692,0,0,1-2.23437.32031H22.57513a.551.551,0,0,1-.33984-.12109.50144.50144,0,0,1-.16016-.42578V71.4978a.50222.50222,0,0,1,.16016-.42578.55358.55358,0,0,1,.33984-.12109H24.8642a6.35116,6.35116,0,0,1,2.21875.33984,4.05155,4.05155,0,0,1,1.51953.97656,4.179,4.179,0,0,1,.92969,1.543A6.18986,6.18986,0,0,1,29.84851,75.85715Zm-1.41406.05468a5.519,5.519,0,0,0-.20313-1.52734,3.28558,3.28558,0,0,0-.63672-1.22266,2.94674,2.94674,0,0,0-1.09765-.80468,4.32868,4.32868,0,0,0-1.71094-.28907H23.41882v7.86719h1.38282a4.79557,4.79557,0,0,0,1.63281-.24219,2.69048,2.69048,0,0,0,1.10937-.74218,3.22353,3.22353,0,0,0,.668-1.25391A6.3388,6.3388,0,0,0,28.43445,75.91183Z"/>
  <path d="M69.21765,18.00021a1.12726,1.12726,0,0,1-.02344.25.54173.54173,0,0,1-.0625.16407.24651.24651,0,0,1-.08984.08984.218.218,0,0,1-.10547.02734H63.65515a.19487.19487,0,0,1-.10156-.02734.28531.28531,0,0,1-.08984-.08984.47217.47217,0,0,1-.06641-.16407,1.12786,1.12786,0,0,1-.02344-.25,1.09026,1.09026,0,0,1,.02344-.24218.70365.70365,0,0,1,.05859-.168.2784.2784,0,0,1,.08594-.10157.19347.19347,0,0,1,.11328-.03515h2.10938V9.76581L63.8114,10.92987a.87337.87337,0,0,1-.23828.09375.15825.15825,0,0,1-.14453-.03516.28519.28519,0,0,1-.07422-.168,1.83629,1.83629,0,0,1-.01953-.29688,1.87225,1.87225,0,0,1,.01172-.22656.70252.70252,0,0,1,.03515-.15625.33263.33263,0,0,1,.06641-.10938.60912.60912,0,0,1,.11328-.09375l2.32813-1.49218a.27737.27737,0,0,1,.07812-.03907c.03125-.01025.07031-.02051.11719-.03125a.99636.99636,0,0,1,.16406-.01953c.0625-.00244.14063-.0039.23438-.0039a2.62666,2.62666,0,0,1,.3125.01562.88291.88291,0,0,1,.19531.043.175.175,0,0,1,.09375.07031.18515.18515,0,0,1,.02344.08985v8.88281H68.9364a.21367.21367,0,0,1,.11719.03515.26923.26923,0,0,1,.08984.10157.61659.61659,0,0,1,.05469.168A1.32985,1.32985,0,0,1,69.21765,18.00021Z"/>
  <path d="M81.13953,19.42209a1.97532,1.97532,0,0,1-.01953.30078.55881.55881,0,0,1-.0586.1875.22539.22539,0,0,1-.08594.08984.20765.20765,0,0,1-.09375.02344,1.67543,1.67543,0,0,1-.5039-.12891,6.29783,6.29783,0,0,1-.80078-.375,11.32761,11.32761,0,0,1-.96875-.59765,7.5712,7.5712,0,0,1-1-.82031,4.03479,4.03479,0,0,1-.96875.40625,4.85713,4.85713,0,0,1-1.35938.17187A5.26077,5.26077,0,0,1,73.3075,18.344a3.42976,3.42976,0,0,1-1.375-.98437,4.20664,4.20664,0,0,1-.8086-1.61328,8.36021,8.36021,0,0,1-.26562-2.21485,7.62328,7.62328,0,0,1,.28906-2.17578,4.51551,4.51551,0,0,1,.86719-1.65625,3.83987,3.83987,0,0,1,1.44531-1.05469,5.11589,5.11589,0,0,1,2.02344-.37109,5.04227,5.04227,0,0,1,1.91015.33594,3.59931,3.59931,0,0,1,1.38282.98047,4.2403,4.2403,0,0,1,.83984,1.58984,7.63065,7.63065,0,0,1,.28125,2.17188,9.537,9.537,0,0,1-.07422,1.21093,6.50564,6.50564,0,0,1-.23437,1.09375,5.08925,5.08925,0,0,1-.40235.95313,3.9614,3.9614,0,0,1-.57031.78906,8.96486,8.96486,0,0,0,1,.73047,7.84135,7.84135,0,0,0,.71094.39453q.28125.13257.4375.19141a.6921.6921,0,0,1,.23437.13281.41022.41022,0,0,1,.10938.21094A1.71158,1.71158,0,0,1,81.13953,19.42209Zm-2.65625-5.97656a7.8492,7.8492,0,0,0-.15235-1.59375,3.677,3.677,0,0,0-.50781-1.27735,2.45448,2.45448,0,0,0-.94922-.84765,3.19517,3.19517,0,0,0-1.46875-.30469,3.03479,3.03479,0,0,0-1.46875.32422,2.70919,2.70919,0,0,0-.96484.875,3.669,3.669,0,0,0-.53125,1.27734,7.12853,7.12853,0,0,0-.16016,1.53906,8.38577,8.38577,0,0,0,.14844,1.63672,3.69375,3.69375,0,0,0,.5,1.293,2.38084,2.38084,0,0,0,.94141.84766,3.24009,3.24009,0,0,0,1.48046.30078,3.06794,3.06794,0,0,0,1.48438-.32813,2.67073,2.67073,0,0,0,.96875-.88671,3.758,3.758,0,0,0,.52344-1.29688A7.52869,7.52869,0,0,0,78.48328,13.44553Z"/>
  <path d="M69.1947,38.7673a1.45986,1.45986,0,0,1-.01953.25.73309.73309,0,0,1-.05469.1836.24306.24306,0,0,1-.09375.10937.24564.24564,0,0,1-.1289.03516H63.31189a.59587.59587,0,0,1-.19141-.02735.33021.33021,0,0,1-.14062-.08984.38394.38394,0,0,1-.08594-.17969,1.27751,1.27751,0,0,1-.02734-.28906,2.64166,2.64166,0,0,1,.0122-.27344.66753.66753,0,0,1,.05225-.207,1.25531,1.25531,0,0,1,.10059-.17968,1.49943,1.49943,0,0,1,.15722-.19141l2.02051-2.07813a12.95378,12.95378,0,0,0,1.123-1.28906,6.80506,6.80506,0,0,0,.65185-1.03906,3.44528,3.44528,0,0,0,.30225-.85156,3.909,3.909,0,0,0,.07226-.71875,1.7991,1.7991,0,0,0-.11279-.63672,1.561,1.561,0,0,0-.32666-.52735,1.53,1.53,0,0,0-.53613-.35937,1.93632,1.93632,0,0,0-.74121-.13281,2.73961,2.73961,0,0,0-.88282.13281,4.72493,4.72493,0,0,0-.68554.28906q-.29443.15674-.4917.28906a.62661.62661,0,0,1-.294.13282.17108.17108,0,0,1-.10107-.03125.21859.21859,0,0,1-.07227-.10157.802.802,0,0,1-.04443-.1875,2.10186,2.10186,0,0,1-.01611-.28125c0-.07812.00244-.1455.00781-.20312a.6974.6974,0,0,1,.02734-.14844.57334.57334,0,0,1,.05078-.11719.60478.60478,0,0,1,.125-.13671,2.55525,2.55525,0,0,1,.32422-.22266,3.76427,3.76427,0,0,1,.57813-.27734,5.226,5.226,0,0,1,.76562-.23047,4.0013,4.0013,0,0,1,.87891-.09375,3.653,3.653,0,0,1,1.28515.207,2.56494,2.56494,0,0,1,.91407.5664,2.31713,2.31713,0,0,1,.543.83594,2.85835,2.85835,0,0,1,.17968,1.01563,5.48112,5.48112,0,0,1-.08593.96484,3.93562,3.93562,0,0,1-.36328,1.03906,7.83779,7.83779,0,0,1-.80079,1.24219,18.14339,18.14339,0,0,1-1.39062,1.57422L64.49158,38.2048H68.89a.23291.23291,0,0,1,.1211.03516.30651.30651,0,0,1,.10156.10547.52616.52616,0,0,1,.0625.17578A1.39068,1.39068,0,0,1,69.1947,38.7673Z"/>
  <path d="M81.14,40.23605a1.97523,1.97523,0,0,1-.01953.30078.55836.55836,0,0,1-.05859.1875.22515.22515,0,0,1-.08594.08985.2079.2079,0,0,1-.09375.02344,1.67632,1.67632,0,0,1-.5039-.12891,6.30135,6.30135,0,0,1-.80079-.375,11.32831,11.32831,0,0,1-.96875-.59766,7.57106,7.57106,0,0,1-1-.82031A4.03445,4.03445,0,0,1,76.64,39.322a4.8567,4.8567,0,0,1-1.35937.17188,5.26125,5.26125,0,0,1-1.97266-.33594,3.42982,3.42982,0,0,1-1.375-.98438,4.20669,4.20669,0,0,1-.80859-1.61328,8.36056,8.36056,0,0,1-.26563-2.21484,7.62364,7.62364,0,0,1,.28907-2.17578A4.51572,4.51572,0,0,1,72.015,30.5134a3.8399,3.8399,0,0,1,1.44532-1.05469,5.11588,5.11588,0,0,1,2.02343-.37109,5.04228,5.04228,0,0,1,1.91016.33593,3.59856,3.59856,0,0,1,1.38281.98047,4.24036,4.24036,0,0,1,.83985,1.58985,7.63058,7.63058,0,0,1,.28125,2.17187,9.54077,9.54077,0,0,1-.07422,1.21094,6.5051,6.5051,0,0,1-.23438,1.09375,5.0894,5.0894,0,0,1-.40234.95312,3.96175,3.96175,0,0,1-.57031.78907,8.96511,8.96511,0,0,0,1,.73046,7.84263,7.84263,0,0,0,.71093.39454q.28125.13255.4375.1914a.69231.69231,0,0,1,.23438.13281.41017.41017,0,0,1,.10937.21094A1.71033,1.71033,0,0,1,81.14,40.23605Zm-2.65625-5.97656a7.84861,7.84861,0,0,0-.15234-1.59375,3.67684,3.67684,0,0,0-.50781-1.27734,2.45443,2.45443,0,0,0-.94922-.84766,3.19545,3.19545,0,0,0-1.46875-.30469,3.035,3.035,0,0,0-1.46875.32422,2.709,2.709,0,0,0-.96484.875,3.66908,3.66908,0,0,0-.53125,1.27735,7.12847,7.12847,0,0,0-.16016,1.53906,8.38584,8.38584,0,0,0,.14844,1.63672,3.69356,3.69356,0,0,0,.5,1.293,2.38087,2.38087,0,0,0,.9414.84765,3.24065,3.24065,0,0,0,1.48047.30078,3.06793,3.06793,0,0,0,1.48438-.32812,2.67084,2.67084,0,0,0,.96875-.88672,3.75534,3.75534,0,0,0,.52343-1.29687A7.52817,7.52817,0,0,0,78.48376,34.25949Z"/>
  <path d="M69.11658,57.26877a3.12438,3.12438,0,0,1-.24219,1.2539,2.67952,2.67952,0,0,1-.69531.957,3.1241,3.1241,0,0,1-1.11719.61328,4.86944,4.86944,0,0,1-1.5.21484,5.19078,5.19078,0,0,1-.94922-.082,6.018,6.018,0,0,1-.78516-.19531,3.56968,3.56968,0,0,1-.57031-.23438,1.61915,1.61915,0,0,1-.28515-.17578.45744.45744,0,0,1-.08985-.10937.61953.61953,0,0,1-.05469-.13282,1.04621,1.04621,0,0,1-.03515-.1914,2.76727,2.76727,0,0,1-.01172-.27735.94083.94083,0,0,1,.05615-.39062.17453.17453,0,0,1,.16016-.10938.77713.77713,0,0,1,.28467.125,5.06184,5.06184,0,0,0,.54492.26953,6.02488,6.02488,0,0,0,.77734.26954,3.64735,3.64735,0,0,0,.98975.125,2.947,2.947,0,0,0,.92969-.13282,1.89282,1.89282,0,0,0,.67334-.375,1.53842,1.53842,0,0,0,.40869-.57422,1.88347,1.88347,0,0,0,.13623-.72265,1.63046,1.63046,0,0,0-.68164-1.36719,2.43773,2.43773,0,0,0-.82325-.38281,4.23959,4.23959,0,0,0-1.10937-.13281h-.99219a.29683.29683,0,0,1-.12549-.02735.2606.2606,0,0,1-.105-.08984.52374.52374,0,0,1-.07226-.16406,1.00831,1.00831,0,0,1-.02832-.26563,1.08552,1.08552,0,0,1,.02343-.24609.43267.43267,0,0,1,.06641-.15625.27356.27356,0,0,1,.09766-.08594.277.277,0,0,1,.125-.02734h.88281a2.98874,2.98874,0,0,0,.92578-.13282,1.94608,1.94608,0,0,0,.69531-.38281,1.68348,1.68348,0,0,0,.4375-.59766,1.91532,1.91532,0,0,0,.15235-.77734,1.77822,1.77822,0,0,0-.10157-.59766,1.37312,1.37312,0,0,0-.30468-.49609,1.41228,1.41228,0,0,0-.51953-.332,2.03951,2.03951,0,0,0-.73047-.12109,2.44129,2.44129,0,0,0-.832.13672,5.38045,5.38045,0,0,0-.67578.293,4.67321,4.67321,0,0,0-.49219.293.63.63,0,0,1-.27344.13672.22976.22976,0,0,1-.09766-.01953.14769.14769,0,0,1-.07031-.07812.53149.53149,0,0,1-.03906-.16407,2.62826,2.62826,0,0,1-.01172-.27734c0-.07813.00244-.147.00781-.207a.62663.62663,0,0,1,.03125-.15625.7468.7468,0,0,1,.05469-.12109.65039.65039,0,0,1,.10547-.12891,1.87528,1.87528,0,0,1,.30072-.215,3.8339,3.8339,0,0,1,.55859-.27734,4.56071,4.56071,0,0,1,.76563-.23047,4.414,4.414,0,0,1,.93359-.09375,3.85883,3.85883,0,0,1,1.23438.17969,2.44764,2.44764,0,0,1,.88672.50781,2.06242,2.06242,0,0,1,.53125.78516,2.79842,2.79842,0,0,1,.17578,1.01172,3.03675,3.03675,0,0,1-.125.88671,2.23781,2.23781,0,0,1-1.77344,1.57422v.01563a2.91837,2.91837,0,0,1,.957.26172,2.684,2.684,0,0,1,.74609.51953,2.2799,2.2799,0,0,1,.66407,1.625Z"/>
  <path d="M81.14,61.05a1.9754,1.9754,0,0,1-.01953.30078.55836.55836,0,0,1-.05859.1875.22539.22539,0,0,1-.08594.08984.20765.20765,0,0,1-.09375.02344,1.67543,1.67543,0,0,1-.5039-.12891,6.2986,6.2986,0,0,1-.80079-.375,11.33073,11.33073,0,0,1-.96875-.59765,7.57185,7.57185,0,0,1-1-.82031A4.03485,4.03485,0,0,1,76.64,60.136a4.85706,4.85706,0,0,1-1.35937.17187,5.26086,5.26086,0,0,1-1.97266-.33594,3.4299,3.4299,0,0,1-1.375-.98437,4.20676,4.20676,0,0,1-.80859-1.61328,8.36063,8.36063,0,0,1-.26563-2.21485,7.62364,7.62364,0,0,1,.28907-2.17578,4.51588,4.51588,0,0,1,.86718-1.65625,3.84022,3.84022,0,0,1,1.44532-1.05469,5.11588,5.11588,0,0,1,2.02343-.37109,5.04229,5.04229,0,0,1,1.91016.33594,3.59877,3.59877,0,0,1,1.38281.98047,4.24032,4.24032,0,0,1,.83985,1.58984,7.63065,7.63065,0,0,1,.28125,2.17188,9.54072,9.54072,0,0,1-.07422,1.21093,6.50467,6.50467,0,0,1-.23438,1.09375,5.08921,5.08921,0,0,1-.40234.95313,3.96168,3.96168,0,0,1-.57031.78906,8.96393,8.96393,0,0,0,1,.73047,7.84253,7.84253,0,0,0,.71093.39453q.28125.13257.4375.19141a.69214.69214,0,0,1,.23438.13281.41013.41013,0,0,1,.10937.21094A1.71027,1.71027,0,0,1,81.14,61.05Zm-2.65625-5.97656a7.84847,7.84847,0,0,0-.15234-1.59375,3.677,3.677,0,0,0-.50781-1.27735,2.45448,2.45448,0,0,0-.94922-.84765A3.1952,3.1952,0,0,0,75.40564,51.05a3.03479,3.03479,0,0,0-1.46875.32422,2.70919,2.70919,0,0,0-.96484.875,3.669,3.669,0,0,0-.53125,1.27734,7.12853,7.12853,0,0,0-.16016,1.53906,8.38577,8.38577,0,0,0,.14844,1.63672,3.69356,3.69356,0,0,0,.5,1.293,2.38082,2.38082,0,0,0,.9414.84766,3.24013,3.24013,0,0,0,1.48047.30078,3.06794,3.06794,0,0,0,1.48438-.32813,2.67073,2.67073,0,0,0,.96875-.88671,3.75547,3.75547,0,0,0,.52343-1.29688A7.52808,7.52808,0,0,0,78.48376,55.07346Z"/>
  <path d="M69.62439,78.09836a.88393.88393,0,0,1-.07813.40625.2403.2403,0,0,1-.21875.14844H68.18689v2.125a.16914.16914,0,0,1-.03223.10546.24706.24706,0,0,1-.11279.07422.923.923,0,0,1-.209.04688,2.87416,2.87416,0,0,1-.33008.01562,2.78433,2.78433,0,0,1-.32178-.01562.84131.84131,0,0,1-.20508-.04688.21448.21448,0,0,1-.10449-.07422.18484.18484,0,0,1-.02832-.10546V78.653H62.7074a.44444.44444,0,0,1-.15528-.02344.26633.26633,0,0,1-.1123-.08594.38486.38486,0,0,1-.06934-.17969,1.90521,1.90521,0,0,1-.01953-.30468c0-.09864.00244-.1875.00781-.26563a1.31519,1.31519,0,0,1,.03077-.21484,1.15144,1.15144,0,0,1,.062-.1875c.02539-.05957.05664-.12354.09277-.19141l3.60352-6.14062a.35589.35589,0,0,1,.11523-.10938.7284.7284,0,0,1,.19531-.07812,1.63841,1.63841,0,0,1,.29493-.043q.17505-.01173.41406-.01172c.17529,0,.32812.00683.458.01953a2.19152,2.19152,0,0,1,.31445.05078.5072.5072,0,0,1,.18359.082.15247.15247,0,0,1,.06348.12109v6.45313h1.14062a.24529.24529,0,0,1,.21485.13672A.83315.83315,0,0,1,69.62439,78.09836ZM66.84314,71.9968h-.01563l-3.25,5.54687h3.26563Z"/>
  <path d="M81.14,81.864a1.97523,1.97523,0,0,1-.01953.30078.55836.55836,0,0,1-.05859.1875.22515.22515,0,0,1-.08594.08985.2079.2079,0,0,1-.09375.02344,1.67632,1.67632,0,0,1-.5039-.12891,6.30135,6.30135,0,0,1-.80079-.375,11.32831,11.32831,0,0,1-.96875-.59766,7.57106,7.57106,0,0,1-1-.82031,4.03445,4.03445,0,0,1-.96875.40625,4.8567,4.8567,0,0,1-1.35937.17188,5.26125,5.26125,0,0,1-1.97266-.33594,3.42982,3.42982,0,0,1-1.375-.98438,4.20669,4.20669,0,0,1-.80859-1.61328,8.36056,8.36056,0,0,1-.26563-2.21484,7.62364,7.62364,0,0,1,.28907-2.17578,4.51572,4.51572,0,0,1,.86718-1.65625,3.8399,3.8399,0,0,1,1.44532-1.05469,5.11588,5.11588,0,0,1,2.02343-.37109,5.04228,5.04228,0,0,1,1.91016.33593,3.59856,3.59856,0,0,1,1.38281.98047,4.24036,4.24036,0,0,1,.83985,1.58985,7.63058,7.63058,0,0,1,.28125,2.17187,9.54077,9.54077,0,0,1-.07422,1.21094,6.5051,6.5051,0,0,1-.23438,1.09375,5.0894,5.0894,0,0,1-.40234.95312,3.96175,3.96175,0,0,1-.57031.78907,8.96511,8.96511,0,0,0,1,.73046,7.84263,7.84263,0,0,0,.71093.39454q.28125.13256.4375.1914a.69231.69231,0,0,1,.23438.13281.41017.41017,0,0,1,.10937.21094A1.71033,1.71033,0,0,1,81.14,81.864Zm-2.65625-5.97656a7.84861,7.84861,0,0,0-.15234-1.59375,3.67684,3.67684,0,0,0-.50781-1.27734,2.45443,2.45443,0,0,0-.94922-.84766,3.19532,3.19532,0,0,0-1.46875-.30469,3.035,3.035,0,0,0-1.46875.32422,2.709,2.709,0,0,0-.96484.875,3.66908,3.66908,0,0,0-.53125,1.27735,7.1284,7.1284,0,0,0-.16016,1.53906,8.38584,8.38584,0,0,0,.14844,1.63672,3.69356,3.69356,0,0,0,.5,1.293,2.38087,2.38087,0,0,0,.9414.84765,3.24078,3.24078,0,0,0,1.48047.30078,3.06793,3.06793,0,0,0,1.48438-.32812,2.67084,2.67084,0,0,0,.96875-.88672,3.75649,3.75649,0,0,0,.52343-1.29688A7.528,7.528,0,0,0,78.48376,75.88742Z"/>
  <line class="cls-1" x1="10.83384" y1="110.69038" x2="17.83384" y2="116.69038"/>
  <line class="cls-1" x1="10.83384" y1="122.71595" x2="17.83384" y2="116.71595"/>
  <path d="M26.25671,120.32394c0,.0835-.00293.15625-.00781.21875a.94542.94542,0,0,1-.02734.16407.56089.56089,0,0,1-.05078.125.68865.68865,0,0,1-.10938.13281,2.23364,2.23364,0,0,1-.32812.23828,3.93831,3.93831,0,0,1-.6211.3125,5.17334,5.17334,0,0,1-.85156.25781,4.90333,4.90333,0,0,1-1.05078.10547,4.60778,4.60778,0,0,1-1.77734-.32812,3.58332,3.58332,0,0,1-1.35157-.96875,4.405,4.405,0,0,1-.85937-1.582,7.93848,7.93848,0,0,1,.02344-4.41016,4.86724,4.86724,0,0,1,.91015-1.668,3.89177,3.89177,0,0,1,1.40235-1.043,4.44449,4.44449,0,0,1,1.80859-.35937,4.37526,4.37526,0,0,1,.85156.082,5.49549,5.49549,0,0,1,.76563.207,3.49761,3.49761,0,0,1,.625.28906,2.11759,2.11759,0,0,1,.3789.26953.92722.92722,0,0,1,.13672.16016.55849.55849,0,0,1,.05078.1289,1.35047,1.35047,0,0,1,.03125.17579,2.13869,2.13869,0,0,1,.01172.24218,1.94126,1.94126,0,0,1-.01562.26563.75158.75158,0,0,1-.04737.18359.27063.27063,0,0,1-.0747.10938.16128.16128,0,0,1-.106.03515.58351.58351,0,0,1-.30615-.15234,4.96807,4.96807,0,0,0-.50684-.33594,4.11481,4.11481,0,0,0-.75391-.33594,3.2907,3.2907,0,0,0-1.064-.15234,2.77121,2.77121,0,0,0-1.22949.26953,2.59586,2.59586,0,0,0-.94629.793,3.899,3.899,0,0,0-.60889,1.27734,7.01323,7.01323,0,0,0-.00781,3.42188,3.527,3.527,0,0,0,.59717,1.23437,2.48991,2.48991,0,0,0,.9541.75,3.09052,3.09052,0,0,0,1.28027.25391,3.38291,3.38291,0,0,0,1.05615-.14844,4.0768,4.0768,0,0,0,.76953-.332,5.88821,5.88821,0,0,0,.52246-.332.629.629,0,0,1,.32227-.14844.18128.18128,0,0,1,.09424.02344.16775.16775,0,0,1,.063.08985.82134.82134,0,0,1,.03515.18359Q26.25678,120.14425,26.25671,120.32394Z"/>
  <path d="M33.28015,121.16769a1.85735,1.85735,0,0,1-.01562.26172.64853.64853,0,0,1-.05078.17969.26771.26771,0,0,1-.08594.10938.20811.20811,0,0,1-.1211.03515H28.538a.551.551,0,0,1-.33984-.12109.50144.50144,0,0,1-.16016-.42578v-9.35938a.19155.19155,0,0,1,.03125-.10937.20879.20879,0,0,1,.10938-.07422,1.19994,1.19994,0,0,1,.21094-.04688,2.66963,2.66963,0,0,1,.64453,0,1.22,1.22,0,0,1,.207.04688.21262.21262,0,0,1,.10937.07422.19509.19509,0,0,1,.03125.10937v8.74222h3.625a.208.208,0,0,1,.1211.03516.28344.28344,0,0,1,.08593.10156.55448.55448,0,0,1,.05079.17578A1.941,1.941,0,0,1,33.28015,121.16769Z"/>
  <path d="M41.35828,121.53488a.2354.2354,0,0,1-.02735.11328.195.195,0,0,1-.10547.082.96729.96729,0,0,1-.21093.05078,2.49885,2.49885,0,0,1-.34375.01954,3.40858,3.40858,0,0,1-.44532-.02344.56849.56849,0,0,1-.25781-.08594.58236.58236,0,0,1-.14062-.14062l-3.71875-5.05469v5.05469a.188.188,0,0,1-.14063.18359,1.17228,1.17228,0,0,1-.207.04687,2.66862,2.66862,0,0,1-.64453,0,1.15464,1.15464,0,0,1-.21094-.04687.188.188,0,0,1-.14062-.18359v-9.70313a.19141.19141,0,0,1,.03125-.10937.20867.20867,0,0,1,.10937-.07422,1.20014,1.20014,0,0,1,.21094-.04688,2.66963,2.66963,0,0,1,.64453,0,1.21877,1.21877,0,0,1,.207.04688.21278.21278,0,0,1,.10938.07422.19565.19565,0,0,1,.03125.10937v4.49225l3.57812-4.49219a.4654.4654,0,0,1,.10938-.11719.492.492,0,0,1,.15234-.07421,1.34042,1.34042,0,0,1,.21875-.043,2.89179,2.89179,0,0,1,.332-.01563,2.26168,2.26168,0,0,1,.32813.01953.91218.91218,0,0,1,.19921.05078.20664.20664,0,0,1,.10157.07813.20069.20069,0,0,1,.02734.10156.452.452,0,0,1-.05078.20313,1.87068,1.87068,0,0,1-.19141.28125l-3.35156,4.00781,3.60938,4.79687a1.85518,1.85518,0,0,1,.16015.27735A.37584.37584,0,0,1,41.35828,121.53488Z"/>
  <path d="M19.95837,101.27609a1.72661,1.72661,0,0,1-.01562.2461.52835.52835,0,0,1-.05469.17578.2698.2698,0,0,1-.08984.10156.21158.21158,0,0,1-.11328.03125H14.83337a.551.551,0,0,1-.33984-.12109.50144.50144,0,0,1-.16016-.42578V92.26828a.50218.50218,0,0,1,.16016-.42578.5539.5539,0,0,1,.33984-.12109h4.79688a.21582.21582,0,0,1,.11328.03125.22111.22111,0,0,1,.082.10156.81928.81928,0,0,1,.05078.17578,1.50332,1.50332,0,0,1,.01953.26172,1.38974,1.38974,0,0,1-.01953.24609.73374.73374,0,0,1-.05078.17188.21982.21982,0,0,1-.082.09765.21147.21147,0,0,1-.11328.03125H15.67712v3.17188h3.39063a.19546.19546,0,0,1,.11328.03515.29049.29049,0,0,1,.08594.09766.51056.51056,0,0,1,.05078.17188,1.88487,1.88487,0,0,1,.01562.25781,1.63925,1.63925,0,0,1-.01562.24219.49218.49218,0,0,1-.05078.16406.21882.21882,0,0,1-.08594.08984.23288.23288,0,0,1-.11328.02735H15.67712v3.61718h4.00782a.216.216,0,0,1,.11328.03125.2833.2833,0,0,1,.08984.09766.48806.48806,0,0,1,.05469.17187A1.85753,1.85753,0,0,1,19.95837,101.27609Z"/>
  <path d="M29.7865,101.27609a.6065.6065,0,0,1-.05274.26563.51523.51523,0,0,1-.1372.17969.52574.52574,0,0,1-.18994.10156.74128.74128,0,0,1-.21.03125h-.44433a1.41833,1.41833,0,0,1-.36768-.043.81573.81573,0,0,1-.29883-.15625,1.5499,1.5499,0,0,1-.28271-.3086,4.0064,4.0064,0,0,1-.30029-.5l-3.084-5.75q-.24169-.44531-.48779-.93359-.24535-.48778-.457-.94922h-.01563q.01539.5625.02344,1.14844.00732.58593.00781,1.16406v6.10156a.18665.18665,0,0,1-.0332.10547.20216.20216,0,0,1-.11133.07813,1.15735,1.15735,0,0,1-.206.04687,2.72639,2.72639,0,0,1-.65137,0,1.061,1.061,0,0,1-.20166-.04687.20306.20306,0,0,1-.10693-.07813.18674.18674,0,0,1-.03321-.10547V92.2995a.52178.52178,0,0,1,.17725-.44531.63459.63459,0,0,1,.38721-.13282h.66113a1.665,1.665,0,0,1,.39111.03907.82672.82672,0,0,1,.28223.1289,1.10882,1.10882,0,0,1,.2417.25,3.35357,3.35357,0,0,1,.2456.40235l2.37061,4.4375q.21972.40648.42285.793.20435.38672.39258.76172.189.375.374.73828.18457.36327.36621.73047h.00782q-.01613-.61671-.01953-1.28516-.0044-.668-.00391-1.28516V91.948a.17071.17071,0,0,1,.0332-.10156.25962.25962,0,0,1,.11084-.082.74013.74013,0,0,1,.20654-.05078,2.89287,2.89287,0,0,1,.3335-.01562,2.75189,2.75189,0,0,1,.31348.01562.68962.68962,0,0,1,.20605.05078.264.264,0,0,1,.10694.082.17078.17078,0,0,1,.0332.10156Z"/>
  <path d="M66.29626,100.3576c0,.0835-.00293.15625-.00781.21875a.94526.94526,0,0,1-.02734.16407.56032.56032,0,0,1-.05078.125.68828.68828,0,0,1-.10938.13281,2.2351,2.2351,0,0,1-.32812.23828,3.93489,3.93489,0,0,1-.6211.3125,5.17334,5.17334,0,0,1-.85156.25781,4.90333,4.90333,0,0,1-1.05078.10547,4.60759,4.60759,0,0,1-1.77734-.32812,3.58332,3.58332,0,0,1-1.35157-.96875,4.405,4.405,0,0,1-.85937-1.582,7.93848,7.93848,0,0,1,.02344-4.41016,4.86733,4.86733,0,0,1,.91015-1.668,3.89177,3.89177,0,0,1,1.40235-1.043,4.44449,4.44449,0,0,1,1.80859-.35937,4.37526,4.37526,0,0,1,.85156.082,5.49549,5.49549,0,0,1,.76563.207,3.49761,3.49761,0,0,1,.625.28906,2.11723,2.11723,0,0,1,.3789.26953.92416.92416,0,0,1,.13672.16016.55849.55849,0,0,1,.05078.1289,1.34909,1.34909,0,0,1,.03125.17579,2.13869,2.13869,0,0,1,.01172.24218,1.94126,1.94126,0,0,1-.01562.26563.75158.75158,0,0,1-.04737.18359.27063.27063,0,0,1-.0747.10938.16123.16123,0,0,1-.106.03515.58351.58351,0,0,1-.30615-.15234,4.97307,4.97307,0,0,0-.50684-.33594,4.11481,4.11481,0,0,0-.75391-.33594,3.29066,3.29066,0,0,0-1.064-.15234,2.77135,2.77135,0,0,0-1.22949.26953,2.59664,2.59664,0,0,0-.94629.793,3.899,3.899,0,0,0-.60889,1.27735,7.01331,7.01331,0,0,0-.00781,3.42187,3.52712,3.52712,0,0,0,.59717,1.23438,2.4901,2.4901,0,0,0,.9541.75,3.09067,3.09067,0,0,0,1.28027.2539,3.38291,3.38291,0,0,0,1.05615-.14844,4.07652,4.07652,0,0,0,.76953-.332,5.88838,5.88838,0,0,0,.52247-.332.629.629,0,0,1,.32226-.14844.18128.18128,0,0,1,.09424.02344.16775.16775,0,0,1,.063.08985.82134.82134,0,0,1,.03515.18359Q66.29633,100.178,66.29626,100.3576Z"/>
  <path d="M73.3197,101.20139a1.8573,1.8573,0,0,1-.01562.26171.64853.64853,0,0,1-.05078.17969.26771.26771,0,0,1-.08594.10938.20811.20811,0,0,1-.1211.03515H68.57751a.551.551,0,0,1-.33984-.12109.50144.50144,0,0,1-.16016-.42578V91.88107a.19158.19158,0,0,1,.03125-.10937.20879.20879,0,0,1,.10938-.07422,1.19994,1.19994,0,0,1,.21094-.04688,2.66963,2.66963,0,0,1,.64453,0,1.22,1.22,0,0,1,.207.04688.21262.21262,0,0,1,.10937.07422.195.195,0,0,1,.03125.10937v8.74219h3.625a.20827.20827,0,0,1,.1211.03516.28344.28344,0,0,1,.08593.10156.55429.55429,0,0,1,.05079.17578A1.94122,1.94122,0,0,1,73.3197,101.20139Z"/>
  <path d="M81.54626,101.5842a.2411.2411,0,0,1-.02343.10937.18219.18219,0,0,1-.10157.07813.90287.90287,0,0,1-.21875.04687,3.60284,3.60284,0,0,1-.375.01563,2.89179,2.89179,0,0,1-.332-.01563.7357.7357,0,0,1-.207-.05078.27887.27887,0,0,1-.12109-.09765.60576.60576,0,0,1-.07422-.15625l-.92969-2.38282q-.164-.40575-.33984-.74609a2.40749,2.40749,0,0,0-.418-.58594,1.72213,1.72213,0,0,0-.57031-.38281,2.05457,2.05457,0,0,0-.78906-.13672h-.89844v4.30469a.17675.17675,0,0,1-.03516.10937.23247.23247,0,0,1-.10937.07422,1.07106,1.07106,0,0,1-.20313.04688,2.702,2.702,0,0,1-.64844,0,1.16282,1.16282,0,0,1-.207-.04688.20583.20583,0,0,1-.10937-.07422.1905.1905,0,0,1-.03125-.10937V92.22482a.5022.5022,0,0,1,.16016-.42578.55354.55354,0,0,1,.33984-.12109h2.14844q.38241,0,.63672.01953.2535.01977.457.043a3.88466,3.88466,0,0,1,1.03515.32031,2.46343,2.46343,0,0,1,.75391.55469,2.23893,2.23893,0,0,1,.457.76953,2.87233,2.87233,0,0,1,.15234.957,2.82721,2.82721,0,0,1-.13672.91016,2.19933,2.19933,0,0,1-.39453.71093,2.60715,2.60715,0,0,1-.61719.53516,3.94419,3.94419,0,0,1-.80468.38281,1.93083,1.93083,0,0,1,.45312.27735,2.36028,2.36028,0,0,1,.37891.40234,3.77837,3.77837,0,0,1,.332.53906q.156.3047.3125.6875l.90625,2.22657c.07275.1875.11963.31933.14062.39453A.73173.73173,0,0,1,81.54626,101.5842Zm-2.02343-7.10156a1.81217,1.81217,0,0,0-.26563-1.00391,1.50316,1.50316,0,0,0-.89062-.58984,2.56909,2.56909,0,0,0-.44141-.07813q-.24609-.02343-.64453-.02344H76.14783V96.1936h1.3125a2.91454,2.91454,0,0,0,.918-.1289,1.81122,1.81122,0,0,0,.64453-.35938,1.39769,1.39769,0,0,0,.3789-.543,1.86647,1.86647,0,0,0,.121-.67972Z"/>
  <line class="cls-2" x1="96.12373" y1="13.9188" x2="85.5619" y2="13.9188"/>
  <line class="cls-2" x1="96.12373" y1="34.62834" x2="85.5619" y2="34.62834"/>
  <line class="cls-2" x1="96.12373" y1="55.33788" x2="85.5619" y2="55.33788"/>
  <line class="cls-2" x1="96.12373" y1="76.04742" x2="85.5619" y2="76.04742"/>
  <line class="cls-2" x1="96.12373" y1="96.75696" x2="85.5619" y2="96.75696"/>
  <path d="M72.15613,117.42941a7.85048,7.85048,0,0,1-.28906,2.21094,4.62928,4.62928,0,0,1-.86329,1.67578,3.76383,3.76383,0,0,1-1.4414,1.0625,5.11824,5.11824,0,0,1-2.02344.3711,5.20048,5.20048,0,0,1-1.97266-.33985,3.46658,3.46658,0,0,1-1.375-.98828,4.20933,4.20933,0,0,1-.80859-1.60937,8.31569,8.31569,0,0,1-.26562-2.21094,7.63166,7.63166,0,0,1,.28906-2.17188,4.5144,4.5144,0,0,1,.86719-1.66015,3.84011,3.84011,0,0,1,1.44531-1.05469,5.7497,5.7497,0,0,1,3.96875-.03516,3.5274,3.5274,0,0,1,1.3789.98047,4.16743,4.16743,0,0,1,.82032,1.59375A7.98538,7.98538,0,0,1,72.15613,117.42941Zm-1.42188.09375a7.905,7.905,0,0,0-.15234-1.59765,3.68283,3.68283,0,0,0-.50684-1.28125,2.44837,2.44837,0,0,0-.94824-.84766,3.18658,3.18658,0,0,0-1.4668-.30469,2.99464,2.99464,0,0,0-1.46679.32813,2.761,2.761,0,0,0-.96387.875,3.6385,3.6385,0,0,0-.53027,1.27734,7.14619,7.14619,0,0,0-.16016,1.53516,8.449,8.449,0,0,0,.14844,1.64062,3.66481,3.66481,0,0,0,.499,1.293,2.39367,2.39367,0,0,0,.94043.84375,3.23345,3.23345,0,0,0,1.47852.30078,3.05836,3.05836,0,0,0,1.48242-.32812,2.66769,2.66769,0,0,0,.96777-.88672,3.75424,3.75424,0,0,0,.52246-1.293A7.46508,7.46508,0,0,0,70.73425,117.52316Z"/>
  <path d="M79.90613,122.0466a1.71911,1.71911,0,0,1-.01563.24609.52846.52846,0,0,1-.05468.17579.2699.2699,0,0,1-.08985.10156.21156.21156,0,0,1-.11328.03125H74.78113a.5509.5509,0,0,1-.33985-.1211.50144.50144,0,0,1-.16015-.42578v-9.01562a.50221.50221,0,0,1,.16015-.42578.554.554,0,0,1,.33985-.1211H79.578a.216.216,0,0,1,.11328.03125.22108.22108,0,0,1,.082.10157.81955.81955,0,0,1,.05079.17578,1.51011,1.51011,0,0,1,.01953.26172,1.39739,1.39739,0,0,1-.01953.24609.734.734,0,0,1-.05079.17187.22.22,0,0,1-.082.09766.21153.21153,0,0,1-.11328.03125H75.62488V116.781H79.0155a.19546.19546,0,0,1,.11328.03515.29028.29028,0,0,1,.08594.09766.51055.51055,0,0,1,.05078.17187,1.87711,1.87711,0,0,1,.01563.25782,1.6404,1.6404,0,0,1-.01563.24218.49224.49224,0,0,1-.05078.16407.21864.21864,0,0,1-.08594.08984.23265.23265,0,0,1-.11328.02734H75.62488v3.61719h4.00781a.216.216,0,0,1,.11328.03125.28324.28324,0,0,1,.08985.09766.488.488,0,0,1,.05468.17187A1.85745,1.85745,0,0,1,79.90613,122.0466Z"/>
  <line class="cls-2" x1="96.12373" y1="117.4665" x2="85.5619" y2="117.4665"/>
  <line class="cls-2" x1="10.56183" y1="13.6908" y2="13.6908"/>
  <line class="cls-2" x1="10.56183" y1="34.40034" y2="34.40034"/>
  <line class="cls-2" x1="10.56183" y1="55.10988" y2="55.10988"/>
  <line class="cls-2" x1="10.56183" y1="75.81942" y2="75.81942"/>
  <line class="cls-2" x1="10.56183" y1="96.52896" y2="96.52896"/>
  <line class="cls-2" x1="10.56183" y1="117.2385" y2="117.2385"/>
  <line class="cls-3" x1="62.77844" y1="110.37621" x2="79.90624" y2="110.37621"/>
  <g>
    <path d="M50.86816,23.08008a.18134.18134,0,0,1-.01757.082.13669.13669,0,0,1-.07618.05859.65279.65279,0,0,1-.16406.03516,2.66791,2.66791,0,0,1-.28125.01172,2.14551,2.14551,0,0,1-.249-.01172.54537.54537,0,0,1-.15528-.03809.21316.21316,0,0,1-.09082-.07324.4681.4681,0,0,1-.05566-.11719l-.69727-1.78711q-.123-.30468-.25488-.55957a1.79942,1.79942,0,0,0-.31347-.43945,1.28853,1.28853,0,0,0-.42774-.28711,1.536,1.536,0,0,0-.5918-.10254h-.67382v3.22852a.13294.13294,0,0,1-.02637.082.17444.17444,0,0,1-.082.05566.80758.80758,0,0,1-.15235.03516,2.0253,2.0253,0,0,1-.48632,0,.88713.88713,0,0,1-.15528-.03516.15658.15658,0,0,1-.082-.05566.14445.14445,0,0,1-.02344-.082V16.06055a.37663.37663,0,0,1,.12012-.31934.41557.41557,0,0,1,.25488-.09082h1.61133q.28712,0,.47754.01465t.34277.03223a2.89827,2.89827,0,0,1,.77637.24023,1.84043,1.84043,0,0,1,.56543.416,1.67791,1.67791,0,0,1,.34277.57714,2.1528,2.1528,0,0,1,.11426.71778,2.11527,2.11527,0,0,1-.10254.68261,1.65151,1.65151,0,0,1-.2959.53321,1.95882,1.95882,0,0,1-.46289.40136,2.97206,2.97206,0,0,1-.60351.28711,1.42873,1.42873,0,0,1,.33984.208,1.75564,1.75564,0,0,1,.28418.30176,2.8104,2.8104,0,0,1,.249.4043q.11718.22851.23437.51562l.67969,1.66992q.082.21095.10547.2959A.53548.53548,0,0,1,50.86816,23.08008Zm-1.51757-5.32617a1.35626,1.35626,0,0,0-.19922-.75293,1.1256,1.1256,0,0,0-.668-.44239A1.90141,1.90141,0,0,0,48.15234,16.5q-.18456-.01758-.48339-.01758h-.84961v2.55469h.98437a2.185,2.185,0,0,0,.68848-.09668,1.36,1.36,0,0,0,.4834-.26953,1.04852,1.04852,0,0,0,.28418-.40723A1.39908,1.39908,0,0,0,49.35059,17.75391Z"/>
    <path d="M50.3584,34.81641a1.27549,1.27549,0,0,1-.01172.18457.388.388,0,0,1-.041.13183.2009.2009,0,0,1-.06738.07617.15883.15883,0,0,1-.085.02344H46.51465a.41552.41552,0,0,1-.25488-.09082.37662.37662,0,0,1-.12012-.31933V28.06055a.37663.37663,0,0,1,.12012-.31934.41552.41552,0,0,1,.25488-.09082H50.1123a.15886.15886,0,0,1,.085.02344.1638.1638,0,0,1,.06152.07617.59572.59572,0,0,1,.03809.13184,1.10362,1.10362,0,0,1,.01464.19628,1.02512,1.02512,0,0,1-.01464.18458.53757.53757,0,0,1-.03809.1289.16541.16541,0,0,1-.06152.07324.15886.15886,0,0,1-.085.02344H47.14746v2.37891h2.543a.14591.14591,0,0,1,.085.02636.21542.21542,0,0,1,.06445.07325.37469.37469,0,0,1,.03809.1289,1.38749,1.38749,0,0,1,.01172.19336,1.21425,1.21425,0,0,1-.01172.18164.36587.36587,0,0,1-.03809.123.16558.16558,0,0,1-.06445.06738.17632.17632,0,0,1-.085.02051h-2.543v2.71289h3.00586a.15883.15883,0,0,1,.085.02344.20574.20574,0,0,1,.06738.07324.35744.35744,0,0,1,.041.12891A1.37373,1.37373,0,0,1,50.3584,34.81641Z"/>
    <path d="M50.97949,40.68213a1.45124,1.45124,0,0,1-.01172.19629.56668.56668,0,0,1-.03515.14062.17148.17148,0,0,1-.0586.0791.13457.13457,0,0,1-.07617.02344.53014.53014,0,0,1-.23437-.11133,3.6983,3.6983,0,0,0-.43946-.24609,4.12432,4.12432,0,0,0-.65918-.24609,3.2932,3.2932,0,0,0-.91113-.11133,2.66794,2.66794,0,0,0-1.125.22851,2.426,2.426,0,0,0-.84375.63282,2.83043,2.83043,0,0,0-.53027.96093,4.12622,4.12622,0,0,0,.01758,2.4961,2.74676,2.74676,0,0,0,.55957.94922,2.33023,2.33023,0,0,0,.85254.58593,2.88567,2.88567,0,0,0,1.08691.19922,3.0946,3.0946,0,0,0,.71191-.085,2.66371,2.66371,0,0,0,.6709-.25488v-2.209H48.19629a.15953.15953,0,0,1-.14941-.0996.72959.72959,0,0,1-.04981-.31055,1.32381,1.32381,0,0,1,.01172-.19043.40375.40375,0,0,1,.03809-.12891.195.195,0,0,1,.06152-.07324.15514.15514,0,0,1,.08789-.02344h2.4082a.37515.37515,0,0,1,.12891.02344.36079.36079,0,0,1,.11719.07031.306.306,0,0,1,.082.12891.5558.5558,0,0,1,.02929.1875V46.3833a.61061.61061,0,0,1-.05273.26367.459.459,0,0,1-.22266.19629,4.48558,4.48558,0,0,1-.43945.18457,5.11039,5.11039,0,0,1-.55664.16992,4.90891,4.90891,0,0,1-1.16016.14063A4.25623,4.25623,0,0,1,46.96,47.06592a3.2025,3.2025,0,0,1-1.16894-.77637,3.39455,3.39455,0,0,1-.7295-1.207,5.03026,5.03026,0,0,1,.02051-3.20508,3.57589,3.57589,0,0,1,.76758-1.248,3.425,3.425,0,0,1,1.18945-.7998,4.02449,4.02449,0,0,1,1.53809-.28418,4.15014,4.15014,0,0,1,.81445.07617,5.18229,5.18229,0,0,1,.67676.17871,2.733,2.733,0,0,1,.498.22266,1.52971,1.52971,0,0,1,.27832.19629.40867.40867,0,0,1,.10547.17578A1.07564,1.07564,0,0,1,50.97949,40.68213Z"/>
    <path d="M50.38477,57.106a2.19917,2.19917,0,0,1-.19629.94922,2.0377,2.0377,0,0,1-.54493.706,2.36134,2.36134,0,0,1-.82031.43652,3.41072,3.41072,0,0,1-1.0166.14649,3.63435,3.63435,0,0,1-.70605-.06445,3.86146,3.86146,0,0,1-.58008-.15821,2.80386,2.80386,0,0,1-.42774-.19336,1.13917,1.13917,0,0,1-.24023-.16992.43039.43039,0,0,1-.09961-.17871,1.05181,1.05181,0,0,1-.03223-.29,1.61183,1.61183,0,0,1,.01172-.21387.51936.51936,0,0,1,.03516-.13769.1525.1525,0,0,1,.05859-.07324.15977.15977,0,0,1,.082-.02051.47843.47843,0,0,1,.23145.09961,3.64,3.64,0,0,0,.38379.21679,3.76717,3.76717,0,0,0,.56543.21973,2.58808,2.58808,0,0,0,.76465.10254,1.94822,1.94822,0,0,0,.60058-.08789,1.414,1.414,0,0,0,.46875-.249,1.07558,1.07558,0,0,0,.30176-.39551,1.28635,1.28635,0,0,0,.10547-.5332.99906.99906,0,0,0-.14649-.55079,1.47594,1.47594,0,0,0-.38671-.40136,3.39089,3.39089,0,0,0-.54786-.31641q-.3076-.14355-.62988-.293a6.85271,6.85271,0,0,1-.627-.331,2.66229,2.66229,0,0,1-.54492-.42774,1.98906,1.98906,0,0,1-.38965-.57715,1.91991,1.91991,0,0,1-.14942-.79394,1.98748,1.98748,0,0,1,.17285-.84668,1.74478,1.74478,0,0,1,.48047-.624,2.14452,2.14452,0,0,1,.73243-.38379,3.07883,3.07883,0,0,1,.917-.13184,2.97787,2.97787,0,0,1,.50683.044,3.45681,3.45681,0,0,1,.48047.11718,2.67592,2.67592,0,0,1,.40137.16407,1.03805,1.03805,0,0,1,.23144.14648.44557.44557,0,0,1,.07325.08789.331.331,0,0,1,.02929.082.83432.83432,0,0,1,.01758.12012q.00587.0703.00586.18164a1.77807,1.77807,0,0,1-.00879.1875.72021.72021,0,0,1-.02636.1377.16833.16833,0,0,1-.04981.082.11254.11254,0,0,1-.07324.02636.47249.47249,0,0,1-.20215-.082q-.1377-.082-.33691-.18457a2.96357,2.96357,0,0,0-.47168-.1875,2.05308,2.05308,0,0,0-.61231-.085,1.61579,1.61579,0,0,0-.55078.085,1.12949,1.12949,0,0,0-.38672.22559.89546.89546,0,0,0-.22851.334,1.10871,1.10871,0,0,0-.07618.41016.988.988,0,0,0,.14649.54492,1.49658,1.49658,0,0,0,.38965.4043,3.46857,3.46857,0,0,0,.55371.32226q.31054.14649.63281.2959t.63281.32813a2.64176,2.64176,0,0,1,.55371.42187,1.92052,1.92052,0,0,1,.39258.57422A1.88837,1.88837,0,0,1,50.38477,57.106Z"/>
    <path d="M48.56543,71.08008a.14438.14438,0,0,1-.02344.082.15654.15654,0,0,1-.082.05566.88721.88721,0,0,1-.15527.03516,2.00107,2.00107,0,0,1-.4834,0,.88687.88687,0,0,1-.1582-.03516.15657.15657,0,0,1-.082-.05566.14445.14445,0,0,1-.02343-.082V63.80322a.133.133,0,0,1,.02636-.082.17558.17558,0,0,1,.0879-.05566.97569.97569,0,0,1,.1582-.03516,1.57224,1.57224,0,0,1,.23144-.01465,1.6705,1.6705,0,0,1,.24317.01465.88812.88812,0,0,1,.15527.03516.15654.15654,0,0,1,.082.05566.14438.14438,0,0,1,.02344.082Z"/>
    <path d="M50.89746,76.084a1.38739,1.38739,0,0,1-.01172.19336.40821.40821,0,0,1-.03808.13184.18416.18416,0,0,1-.06446.07324.15883.15883,0,0,1-.085.02344H48.56543v6.57422a.14438.14438,0,0,1-.02344.082.15654.15654,0,0,1-.082.05566.88721.88721,0,0,1-.15527.03516,2.00107,2.00107,0,0,1-.4834,0,.88687.88687,0,0,1-.1582-.03516.15657.15657,0,0,1-.082-.05566.14445.14445,0,0,1-.02343-.082V76.50586H45.4248a.15883.15883,0,0,1-.085-.02344.16541.16541,0,0,1-.06152-.07324.53824.53824,0,0,1-.03809-.13184,1.11463,1.11463,0,0,1-.01464-.19336,1.167,1.167,0,0,1,.01464-.19628.59467.59467,0,0,1,.03809-.1377.1638.1638,0,0,1,.06152-.07617.15883.15883,0,0,1,.085-.02344h5.27344a.15883.15883,0,0,1,.085.02344.18113.18113,0,0,1,.06446.07617.44837.44837,0,0,1,.03808.1377A1.45283,1.45283,0,0,1,50.89746,76.084Z"/>
    <path d="M50.3584,94.81641a1.27549,1.27549,0,0,1-.01172.18457.388.388,0,0,1-.041.13183.2009.2009,0,0,1-.06738.07617.15883.15883,0,0,1-.085.02344H46.51465a.41552.41552,0,0,1-.25488-.09082.37662.37662,0,0,1-.12012-.31933V88.06055a.37663.37663,0,0,1,.12012-.31934.41552.41552,0,0,1,.25488-.09082H50.1123a.15886.15886,0,0,1,.085.02344.1638.1638,0,0,1,.06152.07617.59572.59572,0,0,1,.03809.13184,1.10362,1.10362,0,0,1,.01464.19628,1.02512,1.02512,0,0,1-.01464.18458.53757.53757,0,0,1-.03809.1289.16541.16541,0,0,1-.06152.07324.15886.15886,0,0,1-.085.02344H47.14746v2.37891h2.543a.14591.14591,0,0,1,.085.02636.21542.21542,0,0,1,.06445.07325.37469.37469,0,0,1,.03809.1289,1.38749,1.38749,0,0,1,.01172.19336,1.21425,1.21425,0,0,1-.01172.18164.36587.36587,0,0,1-.03809.12305.16558.16558,0,0,1-.06445.06738.17632.17632,0,0,1-.085.02051h-2.543v2.71289h3.00586a.15883.15883,0,0,1,.085.02344.20574.20574,0,0,1,.06738.07324.35744.35744,0,0,1,.041.12891A1.37373,1.37373,0,0,1,50.3584,94.81641Z"/>
    <path d="M50.86816,107.08008a.18134.18134,0,0,1-.01757.082.13669.13669,0,0,1-.07618.05859.65279.65279,0,0,1-.16406.03516,2.66791,2.66791,0,0,1-.28125.01172,2.14551,2.14551,0,0,1-.249-.01172.54537.54537,0,0,1-.15528-.03809.21316.21316,0,0,1-.09082-.07324.4681.4681,0,0,1-.05566-.11719l-.69727-1.78711q-.123-.30468-.25488-.55957a1.79942,1.79942,0,0,0-.31347-.43945,1.28853,1.28853,0,0,0-.42774-.28711,1.536,1.536,0,0,0-.5918-.10254h-.67382v3.22852a.13294.13294,0,0,1-.02637.082.17444.17444,0,0,1-.082.05566.80758.80758,0,0,1-.15235.03516,2.0253,2.0253,0,0,1-.48632,0,.88713.88713,0,0,1-.15528-.03516.15658.15658,0,0,1-.082-.05566.14445.14445,0,0,1-.02344-.082v-7.01953a.37663.37663,0,0,1,.12012-.31934.41557.41557,0,0,1,.25488-.09082h1.61133q.28712,0,.47754.01465t.34277.03223a2.89827,2.89827,0,0,1,.77637.24023,1.84043,1.84043,0,0,1,.56543.416,1.67791,1.67791,0,0,1,.34277.57714,2.1528,2.1528,0,0,1,.11426.71778,2.11527,2.11527,0,0,1-.10254.68261,1.65151,1.65151,0,0,1-.2959.53321,1.95882,1.95882,0,0,1-.46289.40136,2.97206,2.97206,0,0,1-.60351.28711,1.42873,1.42873,0,0,1,.33984.208,1.75564,1.75564,0,0,1,.28418.30176,2.8104,2.8104,0,0,1,.249.4043q.11718.22851.23437.51562l.67969,1.66992q.082.21094.10547.2959A.53548.53548,0,0,1,50.86816,107.08008Zm-1.51757-5.32617a1.35626,1.35626,0,0,0-.19922-.75293,1.1256,1.1256,0,0,0-.668-.44239,1.90141,1.90141,0,0,0-.33106-.05859q-.18456-.01758-.48339-.01758h-.84961v2.55469h.98437a2.185,2.185,0,0,0,.68848-.09668,1.36,1.36,0,0,0,.4834-.26953,1.04852,1.04852,0,0,0,.28418-.40723A1.39908,1.39908,0,0,0,49.35059,101.75391Z"/>
  </g>
</svg>
