<svg id="Layer_1" data-name="Layer 1" xmlns="http://www.w3.org/2000/svg" viewBox="0 0 85.81 130.93"><defs><style>.cls-1{fill:none;stroke:#000;stroke-miterlimit:10;stroke-width:0.5px;}</style></defs><path d="M992.1,474.8V604.73H928.32V474.8H992.1m.5-.5H927.82V605.23H992.6V474.3Z" transform="translate(-917.25 -474.3)"/><line class="cls-1" x1="85.81" y1="34.42" x2="75.25" y2="34.42"/><line class="cls-1" x1="85.81" y1="55.25" x2="75.25" y2="55.25"/><line class="cls-1" x1="85.81" y1="76.08" x2="75.25" y2="76.08"/><line class="cls-1" x1="85.81" y1="96.91" x2="75.25" y2="96.91"/><line class="cls-1" x1="10.56" y1="12.08" y2="12.08"/><line class="cls-1" x1="10.56" y1="26.5" y2="26.5"/><line class="cls-1" x1="10.56" y1="40.92" y2="40.92"/><line class="cls-1" x1="10.56" y1="55.34" y2="55.34"/><line class="cls-1" x1="10.56" y1="76.05" y2="76.05"/><line class="cls-1" x1="10.56" y1="90.89" y2="90.89"/><line class="cls-1" x1="10.56" y1="105.73" y2="105.73"/><line class="cls-1" x1="10.56" y1="120.58" y2="120.58"/><line class="cls-1" x1="85.81" y1="13.59" x2="75.25" y2="13.59"/><line class="cls-1" x1="85.81" y1="117.74" x2="75.25" y2="117.74"/><path d="M956.14,512.56a18.12,18.12,0,0,1,3.34-.28,5.51,5.51,0,0,1,3.9,1.1,3.36,3.36,0,0,1,1.06,2.56,3.54,3.54,0,0,1-2.54,3.44v.06a3.36,3.36,0,0,1,2,2.72,21.45,21.45,0,0,0,1,3.7h-1.8a17.46,17.46,0,0,1-.9-3.22c-.4-1.86-1.12-2.56-2.7-2.62h-1.64v5.84h-1.74Zm1.74,6.14h1.78c1.86,0,3-1,3-2.56,0-1.74-1.26-2.5-3.1-2.52a7.16,7.16,0,0,0-1.72.16Z" transform="translate(-917.25 -474.3)"/><path d="M957.58,541.62l-1.4,4.24h-1.8L959,532.38h2.1l4.6,13.48H963.8l-1.44-4.24Zm4.42-1.36-1.32-3.88c-.3-.88-.5-1.68-.7-2.46h0c-.2.8-.42,1.62-.68,2.44l-1.32,3.9Z" transform="translate(-917.25 -474.3)"/><path d="M964.84,559.94c-.1-1.88-.22-4.14-.2-5.82h-.06c-.46,1.58-1,3.26-1.7,5.12l-2.38,6.54h-1.32L957,559.36c-.64-1.9-1.18-3.64-1.56-5.24h0c0,1.68-.14,3.94-.26,6l-.36,5.78h-1.66l.94-13.48h2.22l2.3,6.52c.56,1.66,1,3.14,1.36,4.54H960c.34-1.36.82-2.84,1.42-4.54l2.4-6.52H966l.84,13.48h-1.7Z" transform="translate(-917.25 -474.3)"/><path d="M930.75,482.4a14.33,14.33,0,0,1,2.22-.17,4.62,4.62,0,0,1,3.27,1,3.71,3.71,0,0,1,1.14,2.9,4.28,4.28,0,0,1-1.16,3.14,5,5,0,0,1-3.58,1.16,17,17,0,0,1-1.89-.09Zm1,7.14a6.45,6.45,0,0,0,1.06.06,3.1,3.1,0,0,0,3.44-3.43c0-1.9-1.07-3.11-3.28-3.11a6.1,6.1,0,0,0-1.22.1Z" transform="translate(-917.25 -474.3)"/><path d="M940.66,483.56h0l-1.35.73-.2-.8,1.7-.91h.9v7.79h-1Z" transform="translate(-917.25 -474.3)"/><path d="M930.75,511.87a14.33,14.33,0,0,1,2.22-.17,4.62,4.62,0,0,1,3.27,1,3.71,3.71,0,0,1,1.14,2.9,4.28,4.28,0,0,1-1.16,3.14,5,5,0,0,1-3.58,1.16,17,17,0,0,1-1.89-.09Zm1,7.14a6.38,6.38,0,0,0,1.06.06,3.1,3.1,0,0,0,3.44-3.43c0-1.9-1.07-3.11-3.28-3.11a6,6,0,0,0-1.22.1Z" transform="translate(-917.25 -474.3)"/><path d="M938.62,518.63a3.53,3.53,0,0,0,1.73.49c1.35,0,1.77-.86,1.76-1.51,0-1.09-1-1.56-2-1.56h-.58v-.79h.58c.77,0,1.74-.4,1.74-1.32,0-.62-.39-1.17-1.36-1.17a2.83,2.83,0,0,0-1.56.51l-.28-.77a3.71,3.71,0,0,1,2-.6c1.54,0,2.23.92,2.23,1.86a1.94,1.94,0,0,1-1.44,1.84v0a2,2,0,0,1,1.74,2c0,1.25-1,2.34-2.84,2.34a4,4,0,0,1-2-.52Z" transform="translate(-917.25 -474.3)"/><path d="M930.75,497.13A15.69,15.69,0,0,1,933,497a4.62,4.62,0,0,1,3.27,1,3.73,3.73,0,0,1,1.14,2.9,4.32,4.32,0,0,1-1.16,3.15,5,5,0,0,1-3.58,1.16,16.72,16.72,0,0,1-1.89-.1Zm1,7.15a6.38,6.38,0,0,0,1.06.06,3.11,3.11,0,0,0,3.44-3.43c0-1.91-1.07-3.12-3.28-3.12a5.89,5.89,0,0,0-1.22.11Z" transform="translate(-917.25 -474.3)"/><path d="M938.37,505.11v-.65l.82-.8c2-1.9,2.9-2.91,2.91-4.08a1.39,1.39,0,0,0-1.55-1.52,2.66,2.66,0,0,0-1.65.65l-.34-.74a3.46,3.46,0,0,1,2.21-.79,2.19,2.19,0,0,1,2.38,2.27c0,1.44-1,2.6-2.68,4.18l-.63.58v0h3.5v.88Z" transform="translate(-917.25 -474.3)"/><path d="M930.75,526.6a15.69,15.69,0,0,1,2.22-.17,4.62,4.62,0,0,1,3.27,1,3.73,3.73,0,0,1,1.14,2.9,4.32,4.32,0,0,1-1.16,3.15,5,5,0,0,1-3.58,1.16,16.72,16.72,0,0,1-1.89-.1Zm1,7.15a6.38,6.38,0,0,0,1.06.06,3.11,3.11,0,0,0,3.44-3.43c0-1.91-1.07-3.12-3.28-3.12a5.89,5.89,0,0,0-1.22.11Z" transform="translate(-917.25 -474.3)"/><path d="M941.63,534.58v-2.13H938v-.69l3.48-5h1.13v4.85h1.1v.82h-1.1v2.13Zm0-3V529c0-.4,0-.81,0-1.22h0c-.24.46-.43.79-.65,1.15l-1.9,2.65v0Z" transform="translate(-917.25 -474.3)"/><path d="M932.57,553l-.84,2.54h-1.08l2.74-8.08h1.26l2.76,8.08H936.3l-.87-2.54Zm2.65-.82-.8-2.33c-.18-.52-.3-1-.42-1.47h0c-.12.48-.25,1-.41,1.46l-.79,2.34Z" transform="translate(-917.25 -474.3)"/><path d="M940.52,548.69h0l-1.36.73-.2-.81,1.7-.91h.9v7.8h-1Z" transform="translate(-917.25 -474.3)"/><path d="M932.57,582.43l-.84,2.54h-1.08l2.74-8.09h1.26l2.76,8.09H936.3l-.87-2.54Zm2.65-.82-.8-2.33c-.18-.52-.3-1-.42-1.47h0c-.12.48-.25,1-.41,1.46l-.79,2.34Z" transform="translate(-917.25 -474.3)"/><path d="M938.48,583.76a3.57,3.57,0,0,0,1.73.49c1.35,0,1.77-.86,1.76-1.51,0-1.09-1-1.56-2-1.56h-.59v-.79H940c.76,0,1.74-.4,1.74-1.32,0-.63-.4-1.18-1.37-1.18a2.89,2.89,0,0,0-1.56.52l-.28-.77a3.71,3.71,0,0,1,2-.6c1.54,0,2.23.91,2.23,1.86a1.93,1.93,0,0,1-1.44,1.83v0a2,2,0,0,1,1.74,2c0,1.25-1,2.34-2.84,2.34a4,4,0,0,1-2-.53Z" transform="translate(-917.25 -474.3)"/><path d="M932.57,567.69l-.84,2.54h-1.08l2.74-8.08h1.26l2.76,8.08H936.3l-.87-2.54Zm2.65-.81-.8-2.33c-.18-.53-.3-1-.42-1.48h0c-.12.48-.25,1-.41,1.47l-.79,2.34Z" transform="translate(-917.25 -474.3)"/><path d="M938.23,570.23v-.64l.83-.81c2-1.89,2.89-2.9,2.9-4.07a1.39,1.39,0,0,0-1.55-1.53,2.66,2.66,0,0,0-1.65.66l-.34-.74a3.41,3.41,0,0,1,2.21-.79,2.19,2.19,0,0,1,2.39,2.26c0,1.44-1,2.61-2.69,4.19l-.62.57v0h3.5v.87Z" transform="translate(-917.25 -474.3)"/><path d="M932.57,597.16l-.84,2.54h-1.08l2.74-8.08h1.26l2.76,8.08H936.3l-.87-2.54Zm2.65-.81-.8-2.33c-.18-.53-.3-1-.42-1.48h0c-.12.48-.25,1-.41,1.47l-.79,2.34Z" transform="translate(-917.25 -474.3)"/><path d="M941.49,599.7v-2.12h-3.62v-.69l3.48-5h1.14v4.84h1.09v.83h-1.09v2.12Zm0-3v-2.6c0-.41,0-.82,0-1.22h0c-.24.45-.43.79-.65,1.15l-1.9,2.65v0Z" transform="translate(-917.25 -474.3)"/><path d="M978.64,513v-3.43l-2.56-4.65h1.19l1.14,2.23c.31.61.55,1.1.8,1.67h0c.22-.53.5-1.06.81-1.67l1.17-2.23h1.18l-2.71,4.64V513Z" transform="translate(-917.25 -474.3)"/><path d="M985.25,506.16h0l-1.35.73-.2-.8,1.7-.92h.9V513h-1Z" transform="translate(-917.25 -474.3)"/><path d="M979.43,533.62v-3.43l-2.55-4.66h1.19l1.14,2.24c.31.61.55,1.1.8,1.66h0c.23-.53.51-1,.82-1.66l1.16-2.24h1.19l-2.71,4.65v3.44Z" transform="translate(-917.25 -474.3)"/><path d="M983.75,533.62V533l.83-.8c2-1.9,2.89-2.91,2.9-4.08a1.39,1.39,0,0,0-1.54-1.52,2.66,2.66,0,0,0-1.66.66l-.33-.75a3.43,3.43,0,0,1,2.2-.79,2.2,2.2,0,0,1,2.39,2.27c0,1.44-1,2.6-2.69,4.18l-.62.58v0h3.5v.88Z" transform="translate(-917.25 -474.3)"/><path d="M978.64,554.26v-3.43l-2.56-4.65h1.19l1.14,2.23c.31.61.55,1.11.8,1.67h0c.22-.53.5-1.06.81-1.67l1.16-2.23h1.19l-2.71,4.64v3.44Z" transform="translate(-917.25 -474.3)"/><path d="M983.21,553.05a3.46,3.46,0,0,0,1.73.49c1.35,0,1.77-.86,1.76-1.51,0-1.09-1-1.56-2-1.56h-.58v-.79h.58c.77,0,1.74-.39,1.74-1.32,0-.62-.39-1.17-1.36-1.17a2.83,2.83,0,0,0-1.56.51l-.28-.76a3.71,3.71,0,0,1,2-.6c1.53,0,2.23.91,2.23,1.86a1.94,1.94,0,0,1-1.44,1.83v0a2,2,0,0,1,1.74,2c0,1.25-1,2.34-2.84,2.34a4,4,0,0,1-2-.53Z" transform="translate(-917.25 -474.3)"/><path d="M978.64,574.91v-3.43l-2.56-4.65h1.19l1.14,2.23c.31.61.55,1.1.8,1.67h0c.22-.53.5-1.06.81-1.67l1.17-2.23h1.18l-2.71,4.64v3.44Z" transform="translate(-917.25 -474.3)"/><path d="M986.22,574.91v-2.12H982.6v-.7l3.48-5h1.14V572h1.09v.83h-1.09v2.12Zm0-2.95v-2.6c0-.41,0-.82,0-1.23h0c-.24.46-.43.8-.65,1.16l-1.9,2.65v0Z" transform="translate(-917.25 -474.3)"/><path d="M982.6,591.71c0,2.79-1.69,4.26-3.76,4.26s-3.63-1.65-3.63-4.1,1.59-4.24,3.75-4.24S982.6,589.32,982.6,591.71Zm-6.28.14c0,1.72.94,3.27,2.58,3.27s2.59-1.52,2.59-3.36c0-1.6-.84-3.28-2.57-3.28S976.32,590.07,976.32,591.85Z" transform="translate(-917.25 -474.3)"/><path d="M988.14,592.05H985V595h3.5v.87H984v-8.08h4.36v.87H985v2.56h3.14Z" transform="translate(-917.25 -474.3)"/><path d="M976.08,491.05,974,483h1.1l1,4.09c.24,1,.46,2,.6,2.79h0c.14-.8.39-1.76.66-2.8l1.08-4.08h1.09l1,4.1c.23,1,.44,1.92.56,2.77h0c.16-.88.39-1.78.64-2.79l1.07-4.08h1.07l-2.29,8.08h-1.09l-1-4.21a25.48,25.48,0,0,1-.53-2.63h0a27,27,0,0,1-.63,2.63l-1.15,4.21Z" transform="translate(-917.25 -474.3)"/><path d="M989.1,487.26H986v2.92h3.5v.87h-4.55V483h4.37v.88H986v2.55h3.14Z" transform="translate(-917.25 -474.3)"/></svg>