<svg id="Layer_1" data-name="Layer 1" xmlns="http://www.w3.org/2000/svg" viewBox="0 0 42.21894 21.82514"><defs><style>.cls-1{fill:none;stroke:#010101;stroke-linecap:square;stroke-linejoin:bevel;stroke-width:0.5px;}.cls-2{fill:#231f20;}</style></defs><line class="cls-1" x1="8.01757" y1="0.27518" x2="8.01757" y2="21.52125"/><line class="cls-1" x1="8.01757" y1="0.25" x2="24.90669" y2="0.25"/><line class="cls-1" x1="8.01757" y1="21.57514" x2="25.03435" y2="21.57514"/><path class="cls-1" d="M230.41245,345.44882c5.03143,0,8.90425-5.18128,8.90425-10.55319" transform="translate(-205.14001 -323.87368)"/><path class="cls-1" d="M230.19017,324.12368c5.01728,0,9.12653,5.16785,9.12653,10.52264" transform="translate(-205.14001 -323.87368)"/><line class="cls-1" x1="7.96217" y1="3.77264" x2="0.25" y2="3.77264"/><path class="cls-1" d="M238.83621,335.12275" transform="translate(-205.14001 -323.87368)"/><line class="cls-1" x1="7.96217" y1="17.77265" x2="0.25" y2="17.77264"/><line class="cls-1" x1="41.96894" y1="11.02195" x2="34.25677" y2="11.02195"/><path class="cls-2" d="M221.7998,338.08594a.30069.30069,0,0,1,.02686.11963.09032.09032,0,0,1-.03418.0708.19776.19776,0,0,1-.09766.03174,1.57919,1.57919,0,0,1-.16845.00732,1.4384,1.4384,0,0,1-.16358-.00732.36168.36168,0,0,1-.09521-.022.11577.11577,0,0,1-.05127-.03906.32557.32557,0,0,1-.03174-.05859l-.60547-1.68457h-2.77344l-.581,1.6748a.14976.14976,0,0,1-.083.1001.34128.34128,0,0,1-.09521.02685,1.01911,1.01911,0,0,1-.15381.00977,1.26587,1.26587,0,0,1-.1709-.00977.21654.21654,0,0,1-.1001-.03418.08767.08767,0,0,1-.03418-.06836.29593.29593,0,0,1,.02686-.11718l2.21191-6.01074a.17026.17026,0,0,1,.04395-.06592.19778.19778,0,0,1,.07568-.04151.594.594,0,0,1,.11231-.022,1.36269,1.36269,0,0,1,.14892-.00732,1.413,1.413,0,0,1,.15381.00732.59383.59383,0,0,1,.1123.022.17713.17713,0,0,1,.07325.04151.1829.1829,0,0,1,.0415.06592Zm-2.62207-5.47852h-.00488l-1.1914,3.39844h2.417Z" transform="translate(-205.14001 -323.87368)"/><path class="cls-2" d="M227.4834,337.99805a.34894.34894,0,0,1-.02686.14648.28053.28053,0,0,1-.06836.09522.23871.23871,0,0,1-.09277.05127.34824.34824,0,0,1-.09521.01464h-.12208a.61931.61931,0,0,1-.17822-.02441.46214.46214,0,0,1-.15625-.08545.87529.87529,0,0,1-.15136-.16357,2.89886,2.89886,0,0,1-.16846-.26368l-2.22656-3.94531q-.16626-.28784-.33448-.59326-.16845-.30542-.31982-.59326h-.00488q.00511.35668.00488.73v4.82178a.102.102,0,0,1-.01465.05371.10079.10079,0,0,1-.04883.03906.4059.4059,0,0,1-.09033.02441.88711.88711,0,0,1-.144.00977.8973.8973,0,0,1-.1416-.00977.40951.40951,0,0,1-.09278-.02441.10079.10079,0,0,1-.04883-.03906.10209.10209,0,0,1-.01464-.05371v-5.91309a.27711.27711,0,0,1,.09277-.2417.31342.31342,0,0,1,.18066-.06592h.24414a.81448.81448,0,0,1,.19532.01953.40937.40937,0,0,1,.1416.06592.5621.5621,0,0,1,.12451.13184,2.36962,2.36962,0,0,1,.13428.21728l1.7041,3.02246q.16113.28346.30517.54444.1443.26146.28077.51269.13695.25122.271.49561.134.2439.26612.49316h.00488q-.00513-.41014-.00488-.85449V332.085a.10206.10206,0,0,1,.01464-.05371.11331.11331,0,0,1,.04883-.0415.29228.29228,0,0,1,.09033-.02442,1.15514,1.15514,0,0,1,.144-.00732,1.11587,1.11587,0,0,1,.13672.00732.29791.29791,0,0,1,.09277.02442.13138.13138,0,0,1,.05127.0415.09241.09241,0,0,1,.01709.05371Z" transform="translate(-205.14001 -323.87368)"/><path class="cls-2" d="M233.97266,335.03418a4.49222,4.49222,0,0,1-.2002,1.40381,2.65482,2.65482,0,0,1-.59082,1.01806,2.492,2.492,0,0,1-.96435.62012,3.9869,3.9869,0,0,1-1.36963.21h-1.24512a.31335.31335,0,0,1-.18066-.06592.27707.27707,0,0,1-.09278-.24169v-5.70313a.27709.27709,0,0,1,.09278-.2417.31342.31342,0,0,1,.18066-.06592h1.32812a3.70243,3.70243,0,0,1,1.35987.21973,2.49872,2.49872,0,0,1,.92773.62256,2.64571,2.64571,0,0,1,.564.9668A3.91313,3.91313,0,0,1,233.97266,335.03418Zm-.63965.0293a3.59806,3.59806,0,0,0-.13916-1.023,2.1994,2.1994,0,0,0-.42969-.813,1.97993,1.97993,0,0,0-.73486-.53467,2.86611,2.86611,0,0,0-1.13282-.19287h-.97168v5.25391h.97657a3.27718,3.27718,0,0,0,1.09131-.1587,1.78609,1.78609,0,0,0,.74462-.49072,2.132,2.132,0,0,0,.44678-.8374A4.29528,4.29528,0,0,0,233.333,335.06348Z" transform="translate(-205.14001 -323.87368)"/></svg>