<svg id="Layer_1" data-name="Layer 1" xmlns="http://www.w3.org/2000/svg" viewBox="0 0 42.21894 21.82514"><defs><style>.cls-1{fill:none;stroke:#010101;stroke-linecap:square;stroke-linejoin:bevel;stroke-width:0.5px;}</style></defs><line class="cls-1" x1="8.01757" y1="0.27518" x2="8.01757" y2="21.52125"/><line class="cls-1" x1="8.01757" y1="0.25" x2="24.90669" y2="0.25"/><line class="cls-1" x1="8.01757" y1="21.57514" x2="25.03435" y2="21.57514"/><path class="cls-1" d="M25.27243,21.57513c5.03143,0,8.90425-5.18127,8.90425-10.55319" transform="translate(0)"/><path class="cls-1" d="M25.05016.25c5.01727,0,9.12652,5.16785,9.12652,10.52264" transform="translate(0)"/><line class="cls-1" x1="7.96217" y1="3.77264" x2="0.25" y2="3.77264"/><path class="cls-1" d="M33.6962,11.24905" transform="translate(0)"/><line class="cls-1" x1="7.96217" y1="17.77265" x2="0.25" y2="17.77264"/><line class="cls-1" x1="41.96894" y1="11.02195" x2="34.25677" y2="11.02195"/><path d="M16.65979,14.21225a.3009.3009,0,0,1,.02686.11963.09036.09036,0,0,1-.03418.0708.19808.19808,0,0,1-.09766.03174,1.58448,1.58448,0,0,1-.16846.00732,1.43641,1.43641,0,0,1-.16357-.00732.36192.36192,0,0,1-.09522-.022.11572.11572,0,0,1-.05127-.03906.3248.3248,0,0,1-.03173-.05859l-.60547-1.68457H12.66565l-.581,1.6748a.14983.14983,0,0,1-.083.1001.34121.34121,0,0,1-.09521.02686,1.01713,1.01713,0,0,1-.15381.00976,1.2646,1.2646,0,0,1-.1709-.00976.21638.21638,0,0,1-.1001-.03418.08768.08768,0,0,1-.03418-.06836.29587.29587,0,0,1,.02686-.11719l2.21191-6.01074a.17051.17051,0,0,1,.044-.06592.19769.19769,0,0,1,.07568-.0415.59234.59234,0,0,1,.11231-.022,1.36165,1.36165,0,0,1,.14892-.00732,1.40579,1.40579,0,0,1,.15381.00732.59234.59234,0,0,1,.11231.022.17689.17689,0,0,1,.07325.0415.183.183,0,0,1,.04151.06592ZM14.03772,8.73373h-.00488l-1.19141,3.39844h2.417Z" transform="translate(0)"/><path d="M22.34338,14.12436a.34878.34878,0,0,1-.02685.14648.28074.28074,0,0,1-.06836.09522.2386.2386,0,0,1-.09277.05127.34835.34835,0,0,1-.09522.01465H21.9381a.61966.61966,0,0,1-.17823-.02442.46242.46242,0,0,1-.15625-.08545.87486.87486,0,0,1-.15136-.16357,2.90251,2.90251,0,0,1-.16846-.26367L19.05724,9.94955q-.16626-.28784-.33448-.59326-.16845-.30541-.31982-.59326h-.00488q.0051.35668.00488.73v4.82178a.10191.10191,0,0,1-.01465.05371.1006.1006,0,0,1-.04883.03906.40618.40618,0,0,1-.09033.02442.88514.88514,0,0,1-.144.00976.897.897,0,0,1-.1416-.00976.41.41,0,0,1-.09277-.02442.10056.10056,0,0,1-.04883-.03906.10191.10191,0,0,1-.01463-.05371V8.40173a.27712.27712,0,0,1,.09277-.2417.31335.31335,0,0,1,.18066-.06591h.24414a.81336.81336,0,0,1,.19532.01953.4093.4093,0,0,1,.1416.06592.56244.56244,0,0,1,.12451.13183,2.37012,2.37012,0,0,1,.13428.21729l1.7041,3.02246q.16113.28344.30518.54443.1443.26148.28077.5127.137.25122.271.4956.134.2439.26611.49317h.00488q-.00511-.41016-.00488-.8545V8.2113a.102.102,0,0,1,.01463-.05371.11334.11334,0,0,1,.04883-.0415.29242.29242,0,0,1,.09034-.02442,1.15841,1.15841,0,0,1,.144-.00732,1.1133,1.1133,0,0,1,.13672.00732.29868.29868,0,0,1,.09277.02442.13128.13128,0,0,1,.05127.0415.09245.09245,0,0,1,.01709.05371Z" transform="translate(0)"/><path d="M28.83264,11.16049a4.49225,4.49225,0,0,1-.20019,1.40381,2.65479,2.65479,0,0,1-.59082,1.01807,2.492,2.492,0,0,1-.96436.62011,3.98708,3.98708,0,0,1-1.36963.21H24.46252a.31343.31343,0,0,1-.18066-.06592.27707.27707,0,0,1-.09277-.2417V8.40173a.27712.27712,0,0,1,.09277-.2417.31335.31335,0,0,1,.18066-.06591h1.32813a3.702,3.702,0,0,1,1.35986.21972,2.4988,2.4988,0,0,1,.92774.62256,2.64571,2.64571,0,0,1,.564.9668A3.91319,3.91319,0,0,1,28.83264,11.16049Zm-.63965.0293a3.59823,3.59823,0,0,0-.13916-1.023,2.19956,2.19956,0,0,0-.42968-.813,1.97991,1.97991,0,0,0-.73487-.53467,2.8662,2.8662,0,0,0-1.13281-.19287h-.97168v5.25391h.97656a3.27745,3.27745,0,0,0,1.09131-.15869,1.78621,1.78621,0,0,0,.74461-.49073,2.13161,2.13161,0,0,0,.44678-.8374,4.29564,4.29564,0,0,0,.14893-1.20355Z" transform="translate(0)"/></svg>