<svg id="Layer_1" data-name="Layer 1" xmlns="http://www.w3.org/2000/svg" viewBox="0 0 85.63 141.01"><defs><style>.cls-1{fill:#010101;}.cls-2{fill:none;stroke:#010101;stroke-miterlimit:10;stroke-width:0.5px;}.cls-3{fill:#231f20;}</style></defs><path class="cls-1" d="M329.94,355.54V485.46H266.16V355.54h63.78m.5-.5H265.66V486h64.78V355Z" transform="translate(-255.1 -344.95)"/><line class="cls-2" x1="10.56" y1="22.16" y2="22.16"/><line class="cls-2" x1="10.56" y1="37.66" y2="37.66"/><line class="cls-2" x1="10.56" y1="53.16" y2="53.16"/><line class="cls-2" x1="10.56" y1="68.66" y2="68.66"/><line class="cls-2" x1="10.56" y1="84.16" y2="84.16"/><line class="cls-2" x1="10.56" y1="99.66" y2="99.66"/><line class="cls-2" x1="10.56" y1="115.16" y2="115.16"/><line class="cls-2" x1="10.56" y1="130.66" y2="130.66"/><path class="cls-3" d="M275.07,367.07a5.52,5.52,0,0,1-.25,1.72,3.17,3.17,0,0,1-.74,1.22,3.06,3.06,0,0,1-1.19.73,5.17,5.17,0,0,1-1.67.24h-1.61a.4.4,0,0,1-.25-.09.38.38,0,0,1-.12-.32V363.8a.36.36,0,0,1,.12-.31.36.36,0,0,1,.25-.1h1.72a4.7,4.7,0,0,1,1.66.26,2.91,2.91,0,0,1,1.14.73,3.16,3.16,0,0,1,.7,1.16A4.55,4.55,0,0,1,275.07,367.07Zm-1.06.05a3.85,3.85,0,0,0-.16-1.15,2.59,2.59,0,0,0-.47-.92,2.12,2.12,0,0,0-.83-.6,3.13,3.13,0,0,0-1.28-.22h-1v5.9h1a3.67,3.67,0,0,0,1.23-.18,2,2,0,0,0,.83-.56,2.41,2.41,0,0,0,.5-.94A4.72,4.72,0,0,0,274,367.12Z" transform="translate(-255.1 -344.95)"/><path class="cls-3" d="M281,370.58a1.15,1.15,0,0,1,0,.19.73.73,0,0,1,0,.12l-.07.07-.08,0h-4l-.07,0a.23.23,0,0,1-.07-.07.33.33,0,0,1-.05-.12,1.11,1.11,0,0,1,0-.19.9.9,0,0,1,0-.18,1,1,0,0,1,0-.13.27.27,0,0,1,.07-.08l.08,0h1.58V364.4l-1.46.88-.18.07a.2.2,0,0,1-.11,0,.22.22,0,0,1-.05-.13,1.27,1.27,0,0,1,0-.22.86.86,0,0,1,0-.17,1,1,0,0,1,0-.12.22.22,0,0,1,.05-.08l.08-.07,1.75-1.12.06,0,.08,0,.13,0h.41a.39.39,0,0,1,.14,0,.1.1,0,0,1,.07.05.08.08,0,0,1,0,.07v6.66h1.37l.09,0a.27.27,0,0,1,.07.08.4.4,0,0,1,0,.13A1,1,0,0,1,281,370.58Z" transform="translate(-255.1 -344.95)"/><path class="cls-3" d="M301.12,374.07a1.34,1.34,0,0,1,0,.21.54.54,0,0,1,0,.15.27.27,0,0,1-.07.08l-.09,0h-2.32v7.12s0,.07,0,.09a.15.15,0,0,1-.09.06.61.61,0,0,1-.17,0l-.26,0-.26,0a.61.61,0,0,1-.17,0,.15.15,0,0,1-.09-.06.12.12,0,0,1,0-.09v-7.12h-2.31l-.09,0a.27.27,0,0,1-.07-.08,1.55,1.55,0,0,1,0-.15,2.21,2.21,0,0,1,0-.42,1.55,1.55,0,0,1,0-.15.19.19,0,0,1,.07-.08l.09,0h5.72l.09,0a.19.19,0,0,1,.07.08.54.54,0,0,1,0,.15A1.34,1.34,0,0,1,301.12,374.07Z" transform="translate(-255.1 -344.95)"/><path class="cls-3" d="M301.09,394.65a.2.2,0,0,1,0,.09s0,.05-.08.07l-.18,0-.3,0-.27,0a.61.61,0,0,1-.17,0,.2.2,0,0,1-.1-.08.67.67,0,0,1-.06-.12l-.76-1.94c-.08-.22-.18-.42-.27-.61a2.1,2.1,0,0,0-.34-.47,1.29,1.29,0,0,0-.46-.31,1.61,1.61,0,0,0-.65-.11h-.73v3.49a.2.2,0,0,1,0,.09.15.15,0,0,1-.09.06.61.61,0,0,1-.17,0l-.26,0-.27,0-.16,0q-.08,0-.09-.06a.12.12,0,0,1,0-.09v-7.6a.44.44,0,0,1,.13-.35.5.5,0,0,1,.28-.1h1.74l.52,0,.37,0a3.19,3.19,0,0,1,.84.27,1.77,1.77,0,0,1,.62.45,1.86,1.86,0,0,1,.37.62,2.41,2.41,0,0,1,.12.78,2.45,2.45,0,0,1-.11.74,1.73,1.73,0,0,1-.32.58,2.32,2.32,0,0,1-.5.43,3.09,3.09,0,0,1-.66.31,1.54,1.54,0,0,1,.37.23,1.88,1.88,0,0,1,.31.32,2.72,2.72,0,0,1,.27.44c.08.17.17.35.25.56l.74,1.81c.06.15.1.26.12.32A1.15,1.15,0,0,1,301.09,394.65Zm-1.64-5.77a1.48,1.48,0,0,0-.22-.81,1.22,1.22,0,0,0-.72-.48l-.36-.07H296.7v2.76h1.07a2.39,2.39,0,0,0,.75-.1,1.53,1.53,0,0,0,.52-.29,1.31,1.31,0,0,0,.31-.44A1.69,1.69,0,0,0,299.45,388.88Z" transform="translate(-255.1 -344.95)"/><path class="cls-3" d="M298.6,407.65a.12.12,0,0,1,0,.09.15.15,0,0,1-.09.06.61.61,0,0,1-.17,0h-.52a.61.61,0,0,1-.17,0,.15.15,0,0,1-.09-.06.12.12,0,0,1,0-.09v-7.88a.12.12,0,0,1,0-.09.14.14,0,0,1,.1-.06.61.61,0,0,1,.17,0l.25,0,.26,0a.61.61,0,0,1,.17,0,.15.15,0,0,1,.09.06.12.12,0,0,1,0,.09Z" transform="translate(-255.1 -344.95)"/><path class="cls-3" d="M300.57,421.45a2.26,2.26,0,0,1-.22,1,2.12,2.12,0,0,1-.59.77,2.56,2.56,0,0,1-.88.47,4,4,0,0,1-1.11.16,4.47,4.47,0,0,1-.76-.07,5.6,5.6,0,0,1-.63-.17,3.4,3.4,0,0,1-.46-.21,1.45,1.45,0,0,1-.26-.19.4.4,0,0,1-.11-.19,1.23,1.23,0,0,1,0-.31,1.44,1.44,0,0,1,0-.24.54.54,0,0,1,0-.15.16.16,0,0,1,.06-.08l.09,0a.55.55,0,0,1,.25.11,3.54,3.54,0,0,0,.41.23,3.35,3.35,0,0,0,.62.24,2.61,2.61,0,0,0,.83.11,2.27,2.27,0,0,0,.65-.09,1.42,1.42,0,0,0,.5-.27,1.27,1.27,0,0,0,.33-.43,1.34,1.34,0,0,0,.11-.58,1.1,1.1,0,0,0-.15-.59,1.75,1.75,0,0,0-.42-.44,3.77,3.77,0,0,0-.6-.34l-.68-.32c-.23-.11-.46-.23-.68-.36a2.67,2.67,0,0,1-.59-.46,2.31,2.31,0,0,1-.42-.63,2,2,0,0,1-.16-.86,2.21,2.21,0,0,1,.18-.91,2,2,0,0,1,.52-.68,2.54,2.54,0,0,1,.8-.42,3.53,3.53,0,0,1,1-.14,3.41,3.41,0,0,1,.55.05,2.64,2.64,0,0,1,.52.13,3.68,3.68,0,0,1,.44.17,1.57,1.57,0,0,1,.25.16l.08.1,0,.09s0,.08,0,.13v.19a1.34,1.34,0,0,1,0,.21.61.61,0,0,1,0,.15.2.2,0,0,1-.06.09l-.08,0a.55.55,0,0,1-.22-.09l-.36-.2a4.18,4.18,0,0,0-.51-.2,2.31,2.31,0,0,0-.67-.09,1.78,1.78,0,0,0-.59.09,1.09,1.09,0,0,0-.42.25,1,1,0,0,0-.25.36,1.32,1.32,0,0,0-.08.44,1,1,0,0,0,.16.59,1.46,1.46,0,0,0,.42.44,3.39,3.39,0,0,0,.6.35l.68.32a7.49,7.49,0,0,1,.69.36,2.94,2.94,0,0,1,.6.45,1.94,1.94,0,0,1,.59,1.47Z" transform="translate(-255.1 -344.95)"/><path class="cls-3" d="M301.12,429a1.34,1.34,0,0,1,0,.21.54.54,0,0,1,0,.15.16.16,0,0,1-.07.07l-.09,0h-2.32v7.12s0,.07,0,.09a.15.15,0,0,1-.09.06.61.61,0,0,1-.17,0h-.52a.61.61,0,0,1-.17,0,.15.15,0,0,1-.09-.06.12.12,0,0,1,0-.09v-7.12h-2.31l-.09,0a.16.16,0,0,1-.07-.07,1.55,1.55,0,0,1,0-.15,2.21,2.21,0,0,1,0-.42,1.55,1.55,0,0,1,0-.15s0-.07.07-.08l.09,0h5.72l.09,0s.05,0,.07.08a.54.54,0,0,1,0,.15A1.34,1.34,0,0,1,301.12,429Z" transform="translate(-255.1 -344.95)"/><path class="cls-3" d="M301.53,449.37a.92.92,0,0,1,.06.22.2.2,0,0,1,0,.14.49.49,0,0,1-.17,0h-.63a.6.6,0,0,1-.18,0,.15.15,0,0,1-.09-.06l-.05-.09-.7-2H296.3l-.67,2a.31.31,0,0,1-.05.1.22.22,0,0,1-.09.07.6.6,0,0,1-.18,0h-.59a.3.3,0,0,1-.16-.06.17.17,0,0,1-.05-.13,1,1,0,0,1,.06-.23l2.75-7.63a.41.41,0,0,1,.07-.11.35.35,0,0,1,.12-.07.88.88,0,0,1,.2,0h.65a1,1,0,0,1,.22,0,.4.4,0,0,1,.13.07.35.35,0,0,1,.07.12ZM298,442.63h0l-1.42,4.1h2.86Z" transform="translate(-255.1 -344.95)"/><path class="cls-3" d="M301.12,455a1.34,1.34,0,0,1,0,.21.54.54,0,0,1,0,.15.16.16,0,0,1-.07.07l-.09,0h-2.32v7.12s0,.07,0,.09a.15.15,0,0,1-.09.06.61.61,0,0,1-.17,0h-.52a.61.61,0,0,1-.17,0,.15.15,0,0,1-.09-.06.12.12,0,0,1,0-.09v-7.12h-2.31l-.09,0a.16.16,0,0,1-.07-.07,1.55,1.55,0,0,1,0-.15,2.21,2.21,0,0,1,0-.42,1.55,1.55,0,0,1,0-.15s0-.07.07-.08l.09,0h5.72l.09,0s.05,0,.07.08a.54.54,0,0,1,0,.15A1.34,1.34,0,0,1,301.12,455Z" transform="translate(-255.1 -344.95)"/><path class="cls-3" d="M300.54,475.31c0,.07,0,.14,0,.2a.58.58,0,0,1,0,.14.19.19,0,0,1-.07.08l-.09,0h-3.95a.47.47,0,0,1-.27-.1.41.41,0,0,1-.13-.35V468a.41.41,0,0,1,.13-.35.47.47,0,0,1,.27-.1h3.9a.12.12,0,0,1,.09,0s.05,0,.07.08a.57.57,0,0,1,0,.14,1.27,1.27,0,0,1,0,.22,1.23,1.23,0,0,1,0,.2.57.57,0,0,1,0,.14.16.16,0,0,1-.07.07.12.12,0,0,1-.09,0h-3.21V471h2.75a.17.17,0,0,1,.1,0,.29.29,0,0,1,.07.08.39.39,0,0,1,0,.14,1.22,1.22,0,0,1,0,.21,1.09,1.09,0,0,1,0,.19.47.47,0,0,1,0,.14l-.07.07-.1,0h-2.75v2.94h3.26l.09,0a.27.27,0,0,1,.07.08.58.58,0,0,1,0,.14C300.53,475.15,300.54,475.22,300.54,475.31Z" transform="translate(-255.1 -344.95)"/><line class="cls-2" x1="85.63" y1="22.16" x2="75.07" y2="22.16"/><line class="cls-2" x1="85.63" y1="37.66" x2="75.07" y2="37.66"/><line class="cls-2" x1="85.63" y1="53.16" x2="75.07" y2="53.16"/><line class="cls-2" x1="85.63" y1="68.66" x2="75.07" y2="68.66"/><line class="cls-2" x1="85.63" y1="84.16" x2="75.07" y2="84.16"/><line class="cls-2" x1="85.63" y1="99.66" x2="75.07" y2="99.66"/><line class="cls-2" x1="85.63" y1="115.16" x2="75.07" y2="115.16"/><line class="cls-2" x1="85.63" y1="130.66" x2="75.07" y2="130.66"/><path class="cls-3" d="M275.07,382.71a5.52,5.52,0,0,1-.25,1.72,3.17,3.17,0,0,1-.74,1.22,3,3,0,0,1-1.19.72,5.17,5.17,0,0,1-1.67.24h-1.61a.4.4,0,0,1-.25-.09.37.37,0,0,1-.12-.32v-6.76a.38.38,0,0,1,.12-.32.4.4,0,0,1,.25-.09h1.72a4.7,4.7,0,0,1,1.66.26,2.91,2.91,0,0,1,1.14.73,3.08,3.08,0,0,1,.7,1.16A4.55,4.55,0,0,1,275.07,382.71Zm-1.06,0a3.79,3.79,0,0,0-.16-1.14,2.51,2.51,0,0,0-.47-.92,2.12,2.12,0,0,0-.83-.6,3.13,3.13,0,0,0-1.28-.22h-1v5.9h1a3.67,3.67,0,0,0,1.23-.18,2,2,0,0,0,.83-.56,2.41,2.41,0,0,0,.5-.94A4.8,4.8,0,0,0,274,382.75Z" transform="translate(-255.1 -344.95)"/><path class="cls-3" d="M281,386.18a1.11,1.11,0,0,1,0,.19.4.4,0,0,1,0,.13.22.22,0,0,1-.07.09l-.1,0h-4.19a.32.32,0,0,1-.14,0,.17.17,0,0,1-.1-.06.31.31,0,0,1-.07-.14,1.5,1.5,0,0,1,0-.42.42.42,0,0,1,0-.16.83.83,0,0,1,.07-.13.75.75,0,0,1,.12-.14L278,384a10.19,10.19,0,0,0,.84-1,6.35,6.35,0,0,0,.49-.78,2.44,2.44,0,0,0,.22-.64,2.62,2.62,0,0,0,.06-.54,1.23,1.23,0,0,0-.09-.47,1,1,0,0,0-.24-.4,1.28,1.28,0,0,0-.4-.27,1.4,1.4,0,0,0-.56-.1,2,2,0,0,0-.66.1,3.11,3.11,0,0,0-.51.22l-.37.21a.48.48,0,0,1-.22.1.11.11,0,0,1-.08,0,.16.16,0,0,1,0-.08.39.39,0,0,1,0-.14,1.34,1.34,0,0,1,0-.21.66.66,0,0,1,0-.15.36.36,0,0,1,0-.11.36.36,0,0,1,0-.09.26.26,0,0,1,.09-.1l.24-.17a3,3,0,0,1,.44-.21,3.85,3.85,0,0,1,.57-.17,2.84,2.84,0,0,1,.66-.07,2.54,2.54,0,0,1,1,.16,1.83,1.83,0,0,1,.69.42,1.76,1.76,0,0,1,.41.63,2.13,2.13,0,0,1,.13.76,4.37,4.37,0,0,1-.06.72,3.22,3.22,0,0,1-.28.78,5.3,5.3,0,0,1-.6.93,12,12,0,0,1-1,1.18l-1.2,1.26h3.3l.09,0a.27.27,0,0,1,.07.08.29.29,0,0,1,.05.14A.9.9,0,0,1,281,386.18Z" transform="translate(-255.1 -344.95)"/><path class="cls-3" d="M275.07,398.35a5.57,5.57,0,0,1-.25,1.72,3.25,3.25,0,0,1-.74,1.22,3,3,0,0,1-1.19.72,5.17,5.17,0,0,1-1.67.24h-1.61a.4.4,0,0,1-.25-.09.38.38,0,0,1-.12-.32v-6.76a.38.38,0,0,1,.12-.32.4.4,0,0,1,.25-.09h1.72a4.72,4.72,0,0,1,1.66.25,2.93,2.93,0,0,1,1.14.74,3,3,0,0,1,.7,1.15A4.65,4.65,0,0,1,275.07,398.35Zm-1.06,0a3.9,3.9,0,0,0-.16-1.15,2.46,2.46,0,0,0-.47-.91,2.24,2.24,0,0,0-.83-.61,3.32,3.32,0,0,0-1.28-.21h-1v5.9h1a3.67,3.67,0,0,0,1.23-.18,2.11,2.11,0,0,0,.83-.56,2.41,2.41,0,0,0,.5-.94A4.8,4.8,0,0,0,274,398.39Z" transform="translate(-255.1 -344.95)"/><path class="cls-3" d="M281,400.08a2.35,2.35,0,0,1-.18.94,2,2,0,0,1-.53.72,2.29,2.29,0,0,1-.83.46,3.63,3.63,0,0,1-1.13.16,4,4,0,0,1-.71-.06,3.89,3.89,0,0,1-.59-.15,2.57,2.57,0,0,1-.43-.17l-.21-.13-.07-.09,0-.09,0-.15v-.21a.68.68,0,0,1,0-.29.14.14,0,0,1,.12-.08.58.58,0,0,1,.21.09,4,4,0,0,0,.41.2,4.79,4.79,0,0,0,.58.21,2.91,2.91,0,0,0,.75.09,2.09,2.09,0,0,0,.69-.1,1.56,1.56,0,0,0,.51-.28,1.16,1.16,0,0,0,.3-.43,1.41,1.41,0,0,0,.11-.54,1.34,1.34,0,0,0-.13-.58,1.29,1.29,0,0,0-.39-.45,1.92,1.92,0,0,0-.61-.29,3.5,3.5,0,0,0-.83-.1h-.75a.15.15,0,0,1-.09,0,.16.16,0,0,1-.08-.06.81.81,0,0,1-.06-.13,1,1,0,0,1,0-.2.9.9,0,0,1,0-.18.33.33,0,0,1,.05-.12.19.19,0,0,1,.07-.06.16.16,0,0,1,.1,0h.66a2.39,2.39,0,0,0,.69-.1,1.51,1.51,0,0,0,.53-.29,1.12,1.12,0,0,0,.32-.45,1.37,1.37,0,0,0,.12-.58,1.33,1.33,0,0,0-.08-.45,1,1,0,0,0-.23-.37,1,1,0,0,0-.39-.25,1.49,1.49,0,0,0-.54-.09,1.81,1.81,0,0,0-.63.1,3.39,3.39,0,0,0-.5.22,2.78,2.78,0,0,0-.37.22.45.45,0,0,1-.21.1h-.07l-.06-.06a.37.37,0,0,1,0-.12,1.22,1.22,0,0,1,0-.21v-.16a.35.35,0,0,1,0-.11.19.19,0,0,1,0-.09.31.31,0,0,1,.08-.1,1,1,0,0,1,.22-.16,3.27,3.27,0,0,1,.42-.21,2.94,2.94,0,0,1,.57-.17,3.23,3.23,0,0,1,.71-.07,2.84,2.84,0,0,1,.92.13,1.89,1.89,0,0,1,.67.38,1.56,1.56,0,0,1,.39.59,2.06,2.06,0,0,1,.14.76,2.41,2.41,0,0,1-.1.67,1.71,1.71,0,0,1-.27.54,1.78,1.78,0,0,1-.45.41,1.84,1.84,0,0,1-.61.23h0a2.39,2.39,0,0,1,.72.19,2.32,2.32,0,0,1,.56.39,1.72,1.72,0,0,1,.37.55A1.86,1.86,0,0,1,281,400.08Z" transform="translate(-255.1 -344.95)"/><path class="cls-3" d="M275.07,414a5.57,5.57,0,0,1-.25,1.72,3.13,3.13,0,0,1-.74,1.21,3,3,0,0,1-1.19.73,5.17,5.17,0,0,1-1.67.24h-1.61a.4.4,0,0,1-.25-.09.38.38,0,0,1-.12-.32v-6.76a.37.37,0,0,1,.12-.32.4.4,0,0,1,.25-.09h1.72a4.72,4.72,0,0,1,1.66.25,3,3,0,0,1,1.14.73,3.16,3.16,0,0,1,.7,1.16A4.61,4.61,0,0,1,275.07,414ZM274,414a3.85,3.85,0,0,0-.16-1.15,2.59,2.59,0,0,0-.47-.92,2.34,2.34,0,0,0-.83-.6,3.31,3.31,0,0,0-1.28-.22h-1V417h1a3.67,3.67,0,0,0,1.23-.18,2,2,0,0,0,.83-.55,2.49,2.49,0,0,0,.5-.94A4.85,4.85,0,0,0,274,414Z" transform="translate(-255.1 -344.95)"/><path class="cls-3" d="M281.35,415.73a.68.68,0,0,1-.06.31.18.18,0,0,1-.16.11h-.86v1.59a.19.19,0,0,1,0,.08l-.09.06-.16,0h-.48l-.16,0-.08-.06a.19.19,0,0,1,0-.08v-1.59h-3.1l-.12,0a.21.21,0,0,1-.08-.06.46.46,0,0,1,0-.14,1.3,1.3,0,0,1,0-.23c0-.07,0-.14,0-.2a.71.71,0,0,1,.07-.3s0-.09.07-.14l2.7-4.61a.24.24,0,0,1,.09-.08l.14-.06.23,0h.31l.34,0,.23,0a.37.37,0,0,1,.14.07.11.11,0,0,1,0,.09v4.84h.86a.18.18,0,0,1,.16.1A.63.63,0,0,1,281.35,415.73Zm-2.09-4.57h0l-2.44,4.16h2.45Z" transform="translate(-255.1 -344.95)"/><path class="cls-3" d="M275.07,429.62a5.52,5.52,0,0,1-.25,1.72,3,3,0,0,1-1.93,2,5.17,5.17,0,0,1-1.67.24h-1.61a.36.36,0,0,1-.25-.1.36.36,0,0,1-.12-.31v-6.77a.38.38,0,0,1,.12-.32.4.4,0,0,1,.25-.09h1.72a4.7,4.7,0,0,1,1.66.26,2.91,2.91,0,0,1,1.14.73,3.08,3.08,0,0,1,.7,1.16A4.55,4.55,0,0,1,275.07,429.62Zm-1.06,0a3.79,3.79,0,0,0-.16-1.14,2.59,2.59,0,0,0-.47-.92,2.12,2.12,0,0,0-.83-.6,3.13,3.13,0,0,0-1.28-.22h-1v5.9h1a3.67,3.67,0,0,0,1.23-.18,2,2,0,0,0,.83-.56,2.41,2.41,0,0,0,.5-.94A4.75,4.75,0,0,0,274,429.66Z" transform="translate(-255.1 -344.95)"/><path class="cls-3" d="M281,431.09a2.81,2.81,0,0,1-.2,1.08,2.23,2.23,0,0,1-.58.8,2.62,2.62,0,0,1-.9.5,3.75,3.75,0,0,1-1.15.17,4.8,4.8,0,0,1-.67-.05,5.22,5.22,0,0,1-.56-.13,2,2,0,0,1-.4-.14.91.91,0,0,1-.21-.11.21.21,0,0,1-.06-.08l0-.08a.51.51,0,0,1,0-.13c0-.05,0-.11,0-.18s0-.13,0-.18a.5.5,0,0,1,0-.13.18.18,0,0,1,.05-.07.1.1,0,0,1,.07,0,.44.44,0,0,1,.19.07,2.58,2.58,0,0,0,.33.16,5.27,5.27,0,0,0,.51.16,3.17,3.17,0,0,0,.73.07,2.73,2.73,0,0,0,.72-.09,1.54,1.54,0,0,0,.57-.29,1.34,1.34,0,0,0,.37-.5,1.82,1.82,0,0,0,.13-.74,1.62,1.62,0,0,0-.11-.64,1.07,1.07,0,0,0-.35-.46,1.52,1.52,0,0,0-.6-.28,3.63,3.63,0,0,0-.87-.09,3.59,3.59,0,0,0-.61,0l-.48,0a.33.33,0,0,1-.24-.07.46.46,0,0,1-.07-.3v-3.09a.39.39,0,0,1,.09-.28.33.33,0,0,1,.26-.1h3.36a.16.16,0,0,1,.09,0,.19.19,0,0,1,.07.08.39.39,0,0,1,.05.13,1.21,1.21,0,0,1,0,.2,1,1,0,0,1,0,.33.18.18,0,0,1-.16.11H277.6V429l.4,0h.48a3.54,3.54,0,0,1,1.09.15,2.23,2.23,0,0,1,.79.44,1.84,1.84,0,0,1,.47.69A2.36,2.36,0,0,1,281,431.09Z" transform="translate(-255.1 -344.95)"/><path class="cls-3" d="M275.07,445.26a5.52,5.52,0,0,1-.25,1.72,3.17,3.17,0,0,1-.74,1.22,3,3,0,0,1-1.19.72,5.17,5.17,0,0,1-1.67.24h-1.61a.4.4,0,0,1-.25-.09.37.37,0,0,1-.12-.32V442a.38.38,0,0,1,.12-.32.4.4,0,0,1,.25-.09h1.72a4.7,4.7,0,0,1,1.66.26,2.91,2.91,0,0,1,1.14.73,3.08,3.08,0,0,1,.7,1.16A4.55,4.55,0,0,1,275.07,445.26Zm-1.06,0a3.79,3.79,0,0,0-.16-1.14,2.51,2.51,0,0,0-.47-.92,2.12,2.12,0,0,0-.83-.6,3.13,3.13,0,0,0-1.28-.22h-1v5.9h1a3.67,3.67,0,0,0,1.23-.18,2,2,0,0,0,.83-.56,2.41,2.41,0,0,0,.5-.94A4.8,4.8,0,0,0,274,445.3Z" transform="translate(-255.1 -344.95)"/><path class="cls-3" d="M281.22,446.71a3.11,3.11,0,0,1-.15,1,2.25,2.25,0,0,1-1.27,1.39,2.91,2.91,0,0,1-1.15.21,2.67,2.67,0,0,1-.84-.11,1.91,1.91,0,0,1-.63-.34,1.79,1.79,0,0,1-.45-.53,2.93,2.93,0,0,1-.29-.72,5.69,5.69,0,0,1-.15-.89,8.36,8.36,0,0,1-.05-1c0-.32,0-.65.05-1a6,6,0,0,1,.19-1,3.74,3.74,0,0,1,.37-.87,2.48,2.48,0,0,1,.58-.71,2.7,2.7,0,0,1,.83-.48,4.07,4.07,0,0,1,1.57-.15l.41.07a1.74,1.74,0,0,1,.32.1l.17.08.06.07,0,.09s0,.06,0,.1v.32a.37.37,0,0,1,0,.12l-.05.07-.09,0a.54.54,0,0,1-.18,0l-.26-.09-.39-.09a2.68,2.68,0,0,0-.52,0,1.78,1.78,0,0,0-1.58.82,2.63,2.63,0,0,0-.37.87,4.92,4.92,0,0,0-.14,1l.34-.17a4.09,4.09,0,0,1,.42-.16,3.37,3.37,0,0,1,.48-.12,4.56,4.56,0,0,1,.54,0,2.81,2.81,0,0,1,1,.17,1.78,1.78,0,0,1,.69.46,1.88,1.88,0,0,1,.37.7A3.45,3.45,0,0,1,281.22,446.71Zm-1,.09a2.45,2.45,0,0,0-.07-.62,1.2,1.2,0,0,0-.22-.47,1.08,1.08,0,0,0-.42-.3,1.83,1.83,0,0,0-.66-.1,2.15,2.15,0,0,0-.43,0,3.2,3.2,0,0,0-.42.1l-.38.16a2.18,2.18,0,0,0-.34.2,6.42,6.42,0,0,0,.1,1.26,2.32,2.32,0,0,0,.28.82,1.08,1.08,0,0,0,.46.44,1.61,1.61,0,0,0,1.29,0,1.22,1.22,0,0,0,.46-.38,1.66,1.66,0,0,0,.27-.53A2.49,2.49,0,0,0,280.2,446.8Z" transform="translate(-255.1 -344.95)"/><path class="cls-3" d="M275.07,460.9a5.57,5.57,0,0,1-.25,1.72,3.25,3.25,0,0,1-.74,1.22,3,3,0,0,1-1.19.72,5.17,5.17,0,0,1-1.67.24h-1.61a.4.4,0,0,1-.25-.09.38.38,0,0,1-.12-.32v-6.76a.38.38,0,0,1,.12-.32.4.4,0,0,1,.25-.09h1.72a4.72,4.72,0,0,1,1.66.25,2.93,2.93,0,0,1,1.14.74,3,3,0,0,1,.7,1.15A4.65,4.65,0,0,1,275.07,460.9Zm-1.06,0a3.9,3.9,0,0,0-.16-1.15,2.46,2.46,0,0,0-.47-.91,2.24,2.24,0,0,0-.83-.61,3.32,3.32,0,0,0-1.28-.21h-1V464h1a3.42,3.42,0,0,0,1.23-.19,2,2,0,0,0,.83-.55,2.49,2.49,0,0,0,.5-.94A4.85,4.85,0,0,0,274,460.94Z" transform="translate(-255.1 -344.95)"/><path class="cls-3" d="M281.14,457.65c0,.07,0,.14,0,.19s0,.11,0,.17a.88.88,0,0,1-.05.15.47.47,0,0,1-.06.15l-2.73,6.3a.3.3,0,0,1-.18.18l-.17,0h-.57a.27.27,0,0,1-.16-.06.09.09,0,0,1-.05-.09.93.93,0,0,1,0-.13l2.87-6.44h-3.63a.18.18,0,0,1-.17-.11.75.75,0,0,1-.06-.33,1.12,1.12,0,0,1,0-.2.4.4,0,0,1,0-.13.22.22,0,0,1,.07-.09l.1,0h4.41a.34.34,0,0,1,.15,0,.13.13,0,0,1,.09.07.39.39,0,0,1,.05.13A1.25,1.25,0,0,1,281.14,457.65Z" transform="translate(-255.1 -344.95)"/><path class="cls-3" d="M275.07,476.54a5.5,5.5,0,0,1-.25,1.71,3.1,3.1,0,0,1-.74,1.22,3,3,0,0,1-1.19.73,5.17,5.17,0,0,1-1.67.24h-1.61a.4.4,0,0,1-.25-.09.38.38,0,0,1-.12-.32v-6.76a.37.37,0,0,1,.12-.32.4.4,0,0,1,.25-.09h1.72a4.72,4.72,0,0,1,1.66.25,2.91,2.91,0,0,1,1.14.73,3.16,3.16,0,0,1,.7,1.16A4.57,4.57,0,0,1,275.07,476.54Zm-1.06,0a3.85,3.85,0,0,0-.16-1.15,2.59,2.59,0,0,0-.47-.92,2.22,2.22,0,0,0-.83-.6,3.31,3.31,0,0,0-1.28-.22h-1v5.9h1a3.67,3.67,0,0,0,1.23-.18,2,2,0,0,0,.83-.55,2.49,2.49,0,0,0,.5-.94A4.85,4.85,0,0,0,274,476.58Z" transform="translate(-255.1 -344.95)"/><path class="cls-3" d="M281.2,478.49a2.23,2.23,0,0,1-.17.88,1.89,1.89,0,0,1-.51.65,2.32,2.32,0,0,1-.82.39,4.1,4.1,0,0,1-1.11.14,4.21,4.21,0,0,1-1-.12,2.51,2.51,0,0,1-.79-.37,1.65,1.65,0,0,1-.49-.59,1.85,1.85,0,0,1-.17-.8,1.76,1.76,0,0,1,.12-.66,1.86,1.86,0,0,1,.34-.55,2.53,2.53,0,0,1,.54-.47,5,5,0,0,1,.73-.42,4.56,4.56,0,0,1-.63-.38,2.36,2.36,0,0,1-.45-.44,1.86,1.86,0,0,1-.29-.51,2,2,0,0,1,.05-1.33,1.65,1.65,0,0,1,.43-.61,2.19,2.19,0,0,1,.74-.41,3.32,3.32,0,0,1,1.05-.15,3.24,3.24,0,0,1,1,.14,1.9,1.9,0,0,1,.69.38,1.38,1.38,0,0,1,.4.56,1.73,1.73,0,0,1,.13.69,1.67,1.67,0,0,1-.38,1.09,2.23,2.23,0,0,1-.46.46,3.48,3.48,0,0,1-.62.4,6.29,6.29,0,0,1,.74.43,2.51,2.51,0,0,1,.54.46,1.91,1.91,0,0,1,.34.53A1.74,1.74,0,0,1,281.2,478.49Zm-1,.11a1.1,1.1,0,0,0-.1-.49,1.14,1.14,0,0,0-.3-.41,2.6,2.6,0,0,0-.5-.37c-.2-.12-.44-.24-.7-.37a6.32,6.32,0,0,0-.65.36,2.27,2.27,0,0,0-.46.38,1.28,1.28,0,0,0-.27.4,1.23,1.23,0,0,0-.09.47,1.05,1.05,0,0,0,.39.88,1.84,1.84,0,0,0,1.17.31,1.75,1.75,0,0,0,1.13-.31A1.05,1.05,0,0,0,280.18,478.6Zm-.24-4a1,1,0,0,0-.09-.44.86.86,0,0,0-.25-.34,1,1,0,0,0-.4-.22,2,2,0,0,0-.56-.07,1.38,1.38,0,0,0-1,.29,1,1,0,0,0-.32.78,1,1,0,0,0,.08.43,1.17,1.17,0,0,0,.24.37,2.22,2.22,0,0,0,.43.34c.17.11.37.23.6.35a2.94,2.94,0,0,0,.91-.67A1.25,1.25,0,0,0,279.94,474.6Z" transform="translate(-255.1 -344.95)"/><path class="cls-3" d="M322.21,371.88a1.41,1.41,0,0,1,0,.22.44.44,0,0,1-.05.15.17.17,0,0,1-.06.06l-.07,0a1.17,1.17,0,0,1-.38-.1,3.81,3.81,0,0,1-.6-.28,6.93,6.93,0,0,1-.73-.45,6.7,6.7,0,0,1-.75-.61,2.69,2.69,0,0,1-.72.3,3.51,3.51,0,0,1-1,.13,3.89,3.89,0,0,1-1.48-.25,2.51,2.51,0,0,1-1-.74,3.14,3.14,0,0,1-.61-1.21,6.34,6.34,0,0,1-.2-1.66,5.54,5.54,0,0,1,.22-1.63,3.26,3.26,0,0,1,.65-1.24,2.86,2.86,0,0,1,1.08-.79,3.78,3.78,0,0,1,1.52-.28,3.73,3.73,0,0,1,1.43.25,2.69,2.69,0,0,1,1,.73,3.19,3.19,0,0,1,.63,1.2,5.71,5.71,0,0,1,.21,1.63,8.57,8.57,0,0,1,0,.9,4.94,4.94,0,0,1-.18.82,3.89,3.89,0,0,1-.3.72,2.89,2.89,0,0,1-.43.59,6.9,6.9,0,0,0,.75.55l.53.3.33.14a.5.5,0,0,1,.18.1.34.34,0,0,1,.08.16A1,1,0,0,1,322.21,371.88Zm-2-4.48a6.44,6.44,0,0,0-.11-1.2,3,3,0,0,0-.38-1,1.83,1.83,0,0,0-.72-.63,2.39,2.39,0,0,0-1.1-.23,2.29,2.29,0,0,0-1.1.24,1.91,1.91,0,0,0-.72.66,2.6,2.6,0,0,0-.4,1,5.27,5.27,0,0,0-.12,1.15,6.62,6.62,0,0,0,.11,1.23,2.88,2.88,0,0,0,.37,1,1.88,1.88,0,0,0,.71.63,2.46,2.46,0,0,0,1.11.23,2.22,2.22,0,0,0,1.11-.25,1.87,1.87,0,0,0,.73-.66,2.79,2.79,0,0,0,.39-1A5.52,5.52,0,0,0,320.22,367.4Z" transform="translate(-255.1 -344.95)"/><path class="cls-3" d="M327.43,370.81a.92.92,0,0,1,0,.19.33.33,0,0,1-.05.12.22.22,0,0,1-.06.07l-.08,0h-4l-.08,0-.07-.07a.33.33,0,0,1-.05-.12.92.92,0,0,1,0-.19.9.9,0,0,1,0-.18.5.5,0,0,1,.05-.13s0-.05.06-.07a.14.14,0,0,1,.09,0h1.58v-5.76l-1.47.87a.6.6,0,0,1-.18.07.09.09,0,0,1-.1,0,.17.17,0,0,1-.06-.12,1.48,1.48,0,0,1,0-.22V365a1,1,0,0,1,0-.12.3.3,0,0,1,.14-.15l1.74-1.12.06,0,.09,0h.53l.15,0a.13.13,0,0,1,.07.05.19.19,0,0,1,0,.07v6.66h1.37a.11.11,0,0,1,.08,0l.07.07a.5.5,0,0,1,0,.13A.9.9,0,0,1,327.43,370.81Z" transform="translate(-255.1 -344.95)"/><path class="cls-3" d="M322.21,387.52a1.41,1.41,0,0,1,0,.22.38.38,0,0,1-.05.14.14.14,0,0,1-.06.07l-.07,0a1.51,1.51,0,0,1-.38-.1,5,5,0,0,1-.6-.28,6.93,6.93,0,0,1-.73-.45,8,8,0,0,1-.75-.61,3.55,3.55,0,0,1-.72.3,3.51,3.51,0,0,1-1,.13,3.89,3.89,0,0,1-1.48-.25,2.6,2.6,0,0,1-1-.74,3.21,3.21,0,0,1-.61-1.21,6.4,6.4,0,0,1-.2-1.66,5.49,5.49,0,0,1,.22-1.63,3.38,3.38,0,0,1,.65-1.25,3,3,0,0,1,1.08-.79,4,4,0,0,1,1.52-.28,3.72,3.72,0,0,1,1.43.26,2.59,2.59,0,0,1,1,.73,3.15,3.15,0,0,1,.63,1.19,5.81,5.81,0,0,1,.21,1.63,8.76,8.76,0,0,1,0,.91,5.17,5.17,0,0,1-.18.82,3.89,3.89,0,0,1-.3.72,3.56,3.56,0,0,1-.43.59,8.57,8.57,0,0,0,.75.55,5.2,5.2,0,0,0,.53.29l.33.15a.5.5,0,0,1,.18.09.34.34,0,0,1,.08.16A1.1,1.1,0,0,1,322.21,387.52Zm-2-4.49a6.34,6.34,0,0,0-.11-1.19,3,3,0,0,0-.38-1,1.94,1.94,0,0,0-.72-.64,2.4,2.4,0,0,0-1.1-.22,2.29,2.29,0,0,0-1.1.24,1.91,1.91,0,0,0-.72.66,2.62,2.62,0,0,0-.4.95,5.43,5.43,0,0,0-.12,1.16,6.59,6.59,0,0,0,.11,1.22,2.73,2.73,0,0,0,.37,1,1.82,1.82,0,0,0,.71.64,2.46,2.46,0,0,0,1.11.23,2.33,2.33,0,0,0,1.11-.25,1.89,1.89,0,0,0,.73-.67,2.64,2.64,0,0,0,.39-1A5.52,5.52,0,0,0,320.22,383Z" transform="translate(-255.1 -344.95)"/><path class="cls-3" d="M327.41,386.41a1.09,1.09,0,0,1,0,.19.46.46,0,0,1,0,.14.14.14,0,0,1-.07.08.16.16,0,0,1-.09,0H323l-.15,0-.1-.07a.37.37,0,0,1-.07-.14,1.15,1.15,0,0,1,0-.21c0-.08,0-.15,0-.21a.54.54,0,0,1,0-.15,1,1,0,0,1,.08-.14l.12-.14,1.51-1.56a9.09,9.09,0,0,0,.84-1,4.45,4.45,0,0,0,.49-.78,2.44,2.44,0,0,0,.23-.63,3.61,3.61,0,0,0,0-.54,1.51,1.51,0,0,0-.08-.48,1.28,1.28,0,0,0-.25-.4,1.17,1.17,0,0,0-.4-.27,1.54,1.54,0,0,0-.55-.1,2.3,2.3,0,0,0-.67.1,4.11,4.11,0,0,0-.51.22,3.62,3.62,0,0,0-.37.22.55.55,0,0,1-.22.1.13.13,0,0,1-.08,0,.13.13,0,0,1,0-.07s0-.08,0-.14a1.25,1.25,0,0,1,0-.21c0-.06,0-.11,0-.16a.36.36,0,0,1,0-.11.2.2,0,0,1,0-.08.39.39,0,0,1,.09-.11l.25-.16a2.88,2.88,0,0,1,.43-.21,3.83,3.83,0,0,1,.57-.18,3.51,3.51,0,0,1,.66-.07,2.86,2.86,0,0,1,1,.16,1.87,1.87,0,0,1,.68.42,1.76,1.76,0,0,1,.41.63,2.13,2.13,0,0,1,.13.76,4.4,4.4,0,0,1-.06.73,2.79,2.79,0,0,1-.27.78,6,6,0,0,1-.6.93,13.44,13.44,0,0,1-1.05,1.18l-1.2,1.25h3.3l.09,0a.2.2,0,0,1,.08.08.39.39,0,0,1,0,.13A1,1,0,0,1,327.41,386.41Z" transform="translate(-255.1 -344.95)"/><path class="cls-3" d="M322.21,403.15a1.55,1.55,0,0,1,0,.23.38.38,0,0,1-.05.14.22.22,0,0,1-.06.07H322a1.38,1.38,0,0,1-.38-.09c-.17-.07-.37-.16-.6-.28s-.47-.28-.73-.45a6.83,6.83,0,0,1-.75-.62,3,3,0,0,1-.72.31,4.23,4.23,0,0,1-2.5-.13,2.49,2.49,0,0,1-1-.73,3.21,3.21,0,0,1-.61-1.21,6.45,6.45,0,0,1-.2-1.66,5.56,5.56,0,0,1,.22-1.64,3.34,3.34,0,0,1,.65-1.24,3,3,0,0,1,1.08-.79,3.78,3.78,0,0,1,1.52-.28,3.93,3.93,0,0,1,1.43.25,2.71,2.71,0,0,1,1,.74,3.15,3.15,0,0,1,.63,1.19,5.76,5.76,0,0,1,.21,1.63,8.76,8.76,0,0,1,0,.91,5.17,5.17,0,0,1-.18.82,3.52,3.52,0,0,1-.3.71,3.26,3.26,0,0,1-.43.6,8.2,8.2,0,0,0,.75.54l.53.3a3.13,3.13,0,0,0,.33.14.72.72,0,0,1,.18.1.34.34,0,0,1,.08.16A1.06,1.06,0,0,1,322.21,403.15Zm-2-4.48a6.26,6.26,0,0,0-.11-1.19,3,3,0,0,0-.38-1,1.86,1.86,0,0,0-.72-.64,2.39,2.39,0,0,0-1.1-.23,2.18,2.18,0,0,0-1.1.25,2,2,0,0,0-.72.65,2.75,2.75,0,0,0-.4,1,5.36,5.36,0,0,0-.12,1.16,6.59,6.59,0,0,0,.11,1.22,2.73,2.73,0,0,0,.37,1,1.82,1.82,0,0,0,.71.64,2.47,2.47,0,0,0,1.11.22,2.34,2.34,0,0,0,1.11-.24,2,2,0,0,0,.73-.67,2.71,2.71,0,0,0,.39-1A5.52,5.52,0,0,0,320.22,398.67Z" transform="translate(-255.1 -344.95)"/><path class="cls-3" d="M327.35,400.32a2.35,2.35,0,0,1-.18.94,2,2,0,0,1-.52.72,2.6,2.6,0,0,1-.84.46,3.88,3.88,0,0,1-1.12.16,4,4,0,0,1-.72-.06c-.22-.05-.41-.09-.59-.15a2.93,2.93,0,0,1-.42-.18,1,1,0,0,1-.22-.13.21.21,0,0,1-.06-.08l-.05-.1a.59.59,0,0,1,0-.14,1.34,1.34,0,0,1,0-.21.74.74,0,0,1,0-.3.14.14,0,0,1,.12-.08.52.52,0,0,1,.22.1l.4.2a5.06,5.06,0,0,0,.59.2,2.83,2.83,0,0,0,.74.09,2.48,2.48,0,0,0,.7-.09,1.43,1.43,0,0,0,.5-.29,1.1,1.1,0,0,0,.31-.43,1.33,1.33,0,0,0,.1-.54,1.21,1.21,0,0,0-.51-1,1.78,1.78,0,0,0-.62-.29,3,3,0,0,0-.83-.1h-.74l-.1,0a.27.27,0,0,1-.08-.07.33.33,0,0,1-.05-.12.59.59,0,0,1,0-.2,1,1,0,0,1,0-.19,1.17,1.17,0,0,1,.05-.11l.08-.07.09,0h.66a2.19,2.19,0,0,0,.7-.1,1.3,1.3,0,0,0,.85-.73,1.59,1.59,0,0,0,.11-.59,1.31,1.31,0,0,0-.07-.44,1.21,1.21,0,0,0-.23-.38,1.25,1.25,0,0,0-.39-.25,1.55,1.55,0,0,0-.55-.09,1.75,1.75,0,0,0-.62.11,3,3,0,0,0-.51.22,2.41,2.41,0,0,0-.37.22.6.6,0,0,1-.21.1l-.07,0a.12.12,0,0,1,0-.05.42.42,0,0,1,0-.13,1.22,1.22,0,0,1,0-.21.71.71,0,0,1,0-.15.37.37,0,0,1,0-.12l0-.09.08-.1a1.92,1.92,0,0,1,.23-.16,2.24,2.24,0,0,1,.41-.2,3.62,3.62,0,0,1,.58-.18,3.86,3.86,0,0,1,.7-.07,2.82,2.82,0,0,1,.92.14,1.75,1.75,0,0,1,.67.38,1.51,1.51,0,0,1,.4.59,2,2,0,0,1,.13.76,2.34,2.34,0,0,1-.09.66,1.9,1.9,0,0,1-.28.55,1.88,1.88,0,0,1-.44.4,1.72,1.72,0,0,1-.61.23h0a2.25,2.25,0,0,1,.71.2,1.76,1.76,0,0,1,.56.39,1.62,1.62,0,0,1,.37.55A1.67,1.67,0,0,1,327.35,400.32Z" transform="translate(-255.1 -344.95)"/><path class="cls-3" d="M322.21,418.79a1.55,1.55,0,0,1,0,.23.46.46,0,0,1-.05.14l-.06.06a.1.1,0,0,1-.07,0,1.38,1.38,0,0,1-.38-.09,5.27,5.27,0,0,1-.6-.29c-.23-.12-.47-.27-.73-.44a8.19,8.19,0,0,1-.75-.62,2.69,2.69,0,0,1-.72.3,3.51,3.51,0,0,1-1,.13,3.89,3.89,0,0,1-1.48-.25,2.51,2.51,0,0,1-1-.74,3.07,3.07,0,0,1-.61-1.21,6.34,6.34,0,0,1-.2-1.66,5.54,5.54,0,0,1,.22-1.63,3.26,3.26,0,0,1,.65-1.24,2.86,2.86,0,0,1,1.08-.79,3.78,3.78,0,0,1,1.52-.28,3.73,3.73,0,0,1,1.43.25,2.61,2.61,0,0,1,1,.74,3.15,3.15,0,0,1,.63,1.19,5.71,5.71,0,0,1,.21,1.63,8.92,8.92,0,0,1,0,.91,5.17,5.17,0,0,1-.18.82,4.09,4.09,0,0,1-.3.71,2.89,2.89,0,0,1-.43.59,6.9,6.9,0,0,0,.75.55l.53.3.33.14a.5.5,0,0,1,.18.1.34.34,0,0,1,.08.16A1.06,1.06,0,0,1,322.21,418.79Zm-2-4.48a6.44,6.44,0,0,0-.11-1.2,3.16,3.16,0,0,0-.38-1,1.83,1.83,0,0,0-.72-.63,2.39,2.39,0,0,0-1.1-.23,2.29,2.29,0,0,0-1.1.24,2,2,0,0,0-.72.66,2.67,2.67,0,0,0-.4,1,5.34,5.34,0,0,0-.12,1.15,6.62,6.62,0,0,0,.11,1.23,2.8,2.8,0,0,0,.37,1,2,2,0,0,0,.71.64,2.47,2.47,0,0,0,1.11.22,2.22,2.22,0,0,0,1.11-.25,1.87,1.87,0,0,0,.73-.66,2.71,2.71,0,0,0,.39-1A5.52,5.52,0,0,0,320.22,414.31Z" transform="translate(-255.1 -344.95)"/><path class="cls-3" d="M327.73,416a.61.61,0,0,1-.06.3.17.17,0,0,1-.16.11h-.86V418a.12.12,0,0,1,0,.08.16.16,0,0,1-.08.05l-.16,0h-.49a.46.46,0,0,1-.15,0,.12.12,0,0,1-.08-.05.12.12,0,0,1,0-.08v-1.6h-3.11a.2.2,0,0,1-.11,0,.24.24,0,0,1-.09-.06.39.39,0,0,1,0-.13,1.55,1.55,0,0,1,0-.23v-.2a.76.76,0,0,1,0-.16.57.57,0,0,1,0-.14l.07-.15,2.7-4.6.09-.09.15-.05.22,0h.65l.24,0a.3.3,0,0,1,.14.06.12.12,0,0,1,0,.09v4.84h.86a.17.17,0,0,1,.16.1A.67.67,0,0,1,327.73,416Zm-2.08-4.58h0l-2.43,4.16h2.45Z" transform="translate(-255.1 -344.95)"/><path class="cls-3" d="M322.21,434.43a1.41,1.41,0,0,1,0,.22.38.38,0,0,1-.05.14.14.14,0,0,1-.06.07l-.07,0a1.17,1.17,0,0,1-.38-.1,5,5,0,0,1-.6-.28,6.93,6.93,0,0,1-.73-.45,6.7,6.7,0,0,1-.75-.61,3.06,3.06,0,0,1-.72.3,3.51,3.51,0,0,1-1,.13,3.89,3.89,0,0,1-1.48-.25,2.51,2.51,0,0,1-1-.74,3.14,3.14,0,0,1-.61-1.21,6.4,6.4,0,0,1-.2-1.66,5.49,5.49,0,0,1,.22-1.63,3.26,3.26,0,0,1,.65-1.24,2.88,2.88,0,0,1,1.08-.8,4,4,0,0,1,1.52-.27,3.73,3.73,0,0,1,1.43.25,2.69,2.69,0,0,1,1,.73,3.19,3.19,0,0,1,.63,1.2,5.71,5.71,0,0,1,.21,1.63,8.72,8.72,0,0,1,0,.9,4.94,4.94,0,0,1-.18.82,3.89,3.89,0,0,1-.3.72,3.19,3.19,0,0,1-.43.59,8.57,8.57,0,0,0,.75.55,5.2,5.2,0,0,0,.53.29l.33.15a.5.5,0,0,1,.18.1.3.3,0,0,1,.08.16A1,1,0,0,1,322.21,434.43Zm-2-4.48a6.44,6.44,0,0,0-.11-1.2,3,3,0,0,0-.38-1,1.83,1.83,0,0,0-.72-.63,2.27,2.27,0,0,0-1.1-.23,2.29,2.29,0,0,0-1.1.24,1.91,1.91,0,0,0-.72.66,2.6,2.6,0,0,0-.4,1,5.27,5.27,0,0,0-.12,1.15,6.78,6.78,0,0,0,.11,1.23,2.88,2.88,0,0,0,.37,1,1.88,1.88,0,0,0,.71.63,2.46,2.46,0,0,0,1.11.23,2.22,2.22,0,0,0,1.11-.25,1.87,1.87,0,0,0,.73-.66,2.76,2.76,0,0,0,.39-1A5.36,5.36,0,0,0,320.22,430Z" transform="translate(-255.1 -344.95)"/><path class="cls-3" d="M327.38,431.32a2.68,2.68,0,0,1-.21,1.09,2.32,2.32,0,0,1-.58.8,2.65,2.65,0,0,1-.89.49,3.82,3.82,0,0,1-1.16.17,4.65,4.65,0,0,1-.66-.05,4.06,4.06,0,0,1-.57-.12l-.4-.15a.55.55,0,0,1-.2-.11.19.19,0,0,1-.06-.07.25.25,0,0,1,0-.09s0-.07,0-.12V433a.91.91,0,0,1,0-.17.23.23,0,0,1,0-.13.16.16,0,0,1,.05-.08l.08,0a.38.38,0,0,1,.18.07,1.7,1.7,0,0,0,.33.16,3.25,3.25,0,0,0,.52.16,3,3,0,0,0,.73.08,2.73,2.73,0,0,0,.72-.09,1.51,1.51,0,0,0,.56-.3,1.34,1.34,0,0,0,.37-.5,1.76,1.76,0,0,0,.14-.73,1.64,1.64,0,0,0-.12-.65,1.05,1.05,0,0,0-.35-.46,1.66,1.66,0,0,0-.6-.27,3.6,3.6,0,0,0-.86-.09,5.46,5.46,0,0,0-.62,0,4.23,4.23,0,0,1-.48,0,.33.33,0,0,1-.24-.08.49.49,0,0,1-.07-.29v-3.09a.37.37,0,0,1,.1-.29.34.34,0,0,1,.26-.09h3.35l.09,0,.08.08a.47.47,0,0,1,0,.14,1,1,0,0,1,0,.19.75.75,0,0,1-.06.33.18.18,0,0,1-.16.12H324v2.12a2.73,2.73,0,0,1,.41,0h.47a3.31,3.31,0,0,1,1.1.16,2.12,2.12,0,0,1,.78.44,1.73,1.73,0,0,1,.47.69A2.31,2.31,0,0,1,327.38,431.32Z" transform="translate(-255.1 -344.95)"/><path class="cls-3" d="M322.21,450.07a1.41,1.41,0,0,1,0,.22.38.38,0,0,1-.05.14.22.22,0,0,1-.06.07l-.07,0a1.51,1.51,0,0,1-.38-.1,5,5,0,0,1-.6-.28,6.93,6.93,0,0,1-.73-.45,8,8,0,0,1-.75-.61,3.55,3.55,0,0,1-.72.3,3.51,3.51,0,0,1-1,.13,4.09,4.09,0,0,1-1.48-.25,2.6,2.6,0,0,1-1-.74,3.21,3.21,0,0,1-.61-1.21,6.4,6.4,0,0,1-.2-1.66,5.49,5.49,0,0,1,.22-1.63,3.38,3.38,0,0,1,.65-1.25,3,3,0,0,1,1.08-.79,4,4,0,0,1,1.52-.28,3.72,3.72,0,0,1,1.43.26,2.59,2.59,0,0,1,1,.73,3.15,3.15,0,0,1,.63,1.19,5.81,5.81,0,0,1,.21,1.63,8.76,8.76,0,0,1,0,.91,5.17,5.17,0,0,1-.18.82,3.89,3.89,0,0,1-.3.72,3.56,3.56,0,0,1-.43.59c.29.23.54.41.75.55a5.2,5.2,0,0,0,.53.29l.33.15a.5.5,0,0,1,.18.09.34.34,0,0,1,.08.16A1.1,1.1,0,0,1,322.21,450.07Zm-2-4.49a6.26,6.26,0,0,0-.11-1.19,3,3,0,0,0-.38-1,1.94,1.94,0,0,0-.72-.64,2.4,2.4,0,0,0-1.1-.22,2.29,2.29,0,0,0-1.1.24,2,2,0,0,0-.72.65,2.75,2.75,0,0,0-.4,1,5.43,5.43,0,0,0-.12,1.16,6.59,6.59,0,0,0,.11,1.22,2.73,2.73,0,0,0,.37,1,1.82,1.82,0,0,0,.71.64,2.46,2.46,0,0,0,1.11.23,2.33,2.33,0,0,0,1.11-.25,1.89,1.89,0,0,0,.73-.67,2.64,2.64,0,0,0,.39-1A5.52,5.52,0,0,0,320.22,445.58Z" transform="translate(-255.1 -344.95)"/><path class="cls-3" d="M327.6,446.94a3.17,3.17,0,0,1-.15,1,2.31,2.31,0,0,1-.47.82,2.35,2.35,0,0,1-.8.56,3.07,3.07,0,0,1-2,.1,2.1,2.1,0,0,1-.63-.33,1.83,1.83,0,0,1-.45-.54,2.92,2.92,0,0,1-.28-.72,4.59,4.59,0,0,1-.16-.88c0-.32-.05-.67-.05-1a8.35,8.35,0,0,1,.06-1,5.09,5.09,0,0,1,.18-1,4.22,4.22,0,0,1,.37-.87,2.66,2.66,0,0,1,.58-.71,2.49,2.49,0,0,1,.83-.47,3.33,3.33,0,0,1,1.14-.18,3.11,3.11,0,0,1,.43,0,2.33,2.33,0,0,1,.41.07l.32.09.17.09a.13.13,0,0,1,.06.07.2.2,0,0,1,0,.08s0,.06,0,.1a.57.57,0,0,1,0,.14v.18a.35.35,0,0,1,0,.12.13.13,0,0,1-.05.07.12.12,0,0,1-.09,0l-.17,0-.27-.1-.38-.09a4.09,4.09,0,0,0-.53,0,1.9,1.9,0,0,0-.94.23,1.81,1.81,0,0,0-.64.59,2.86,2.86,0,0,0-.37.87,5.79,5.79,0,0,0-.14,1l.35-.18a3.19,3.19,0,0,1,.41-.16l.48-.11a3.12,3.12,0,0,1,.54,0,2.88,2.88,0,0,1,1,.16,1.69,1.69,0,0,1,.68.47,1.65,1.65,0,0,1,.37.69A3.05,3.05,0,0,1,327.6,446.94Zm-1,.1a2.9,2.9,0,0,0-.06-.62,1.15,1.15,0,0,0-.23-.47,1,1,0,0,0-.42-.3,1.76,1.76,0,0,0-.65-.11,2,2,0,0,0-.43,0,2.58,2.58,0,0,0-.42.11,2.26,2.26,0,0,0-.39.15,2.77,2.77,0,0,0-.34.2,6.53,6.53,0,0,0,.1,1.27,2.39,2.39,0,0,0,.28.81,1.08,1.08,0,0,0,.46.44,1.44,1.44,0,0,0,.64.13,1.32,1.32,0,0,0,1.11-.51,1.71,1.71,0,0,0,.27-.54A2,2,0,0,0,326.58,447Z" transform="translate(-255.1 -344.95)"/><path class="cls-3" d="M322.21,465.7a1.55,1.55,0,0,1,0,.23.38.38,0,0,1-.05.14l-.06.07H322a1.38,1.38,0,0,1-.38-.09c-.17-.07-.37-.16-.6-.28s-.47-.28-.73-.45a6.83,6.83,0,0,1-.75-.62,3,3,0,0,1-.72.31,4.23,4.23,0,0,1-2.5-.13,2.49,2.49,0,0,1-1-.73,3.21,3.21,0,0,1-.61-1.21,6.48,6.48,0,0,1-.2-1.67,5.54,5.54,0,0,1,.22-1.63,3.34,3.34,0,0,1,.65-1.24,2.86,2.86,0,0,1,1.08-.79,3.78,3.78,0,0,1,1.52-.28,3.73,3.73,0,0,1,1.43.25,2.71,2.71,0,0,1,1,.74,3.15,3.15,0,0,1,.63,1.19,5.76,5.76,0,0,1,.21,1.63,8.76,8.76,0,0,1,0,.91,5.17,5.17,0,0,1-.18.82,3.79,3.79,0,0,1-.3.71,2.89,2.89,0,0,1-.43.59,6.9,6.9,0,0,0,.75.55l.53.3.33.14a.5.5,0,0,1,.18.1.34.34,0,0,1,.08.16A1.06,1.06,0,0,1,322.21,465.7Zm-2-4.48a6.44,6.44,0,0,0-.11-1.2,3,3,0,0,0-.38-.95,1.78,1.78,0,0,0-.72-.64,2.39,2.39,0,0,0-1.1-.23,2.18,2.18,0,0,0-1.1.25,2,2,0,0,0-.72.65,2.75,2.75,0,0,0-.4,1,5.34,5.34,0,0,0-.12,1.15,6.62,6.62,0,0,0,.11,1.23,2.8,2.8,0,0,0,.37,1,1.9,1.9,0,0,0,.71.64,2.47,2.47,0,0,0,1.11.22A2.34,2.34,0,0,0,319,464a2,2,0,0,0,.73-.67,2.71,2.71,0,0,0,.39-1A5.52,5.52,0,0,0,320.22,461.22Z" transform="translate(-255.1 -344.95)"/><path class="cls-3" d="M327.52,457.89a1.15,1.15,0,0,1,0,.19.88.88,0,0,1,0,.16.83.83,0,0,1,0,.15l-.06.16-2.73,6.29a.36.36,0,0,1-.08.12.52.52,0,0,1-.11.07l-.17,0H324l-.31,0a.43.43,0,0,1-.16-.05.1.1,0,0,1,0-.1.27.27,0,0,1,0-.13l2.87-6.43H322.8a.18.18,0,0,1-.17-.12.76.76,0,0,1-.05-.33,1.09,1.09,0,0,1,0-.19,1.27,1.27,0,0,1,0-.14.2.2,0,0,1,.08-.08.12.12,0,0,1,.09,0h4.42l.14,0a.13.13,0,0,1,.09.07.29.29,0,0,1,.05.13A.72.72,0,0,1,327.52,457.89Z" transform="translate(-255.1 -344.95)"/><path class="cls-3" d="M322.21,481.34a1.62,1.62,0,0,1,0,.23.46.46,0,0,1-.05.14.17.17,0,0,1-.06.06.1.1,0,0,1-.07,0,1.17,1.17,0,0,1-.38-.1,3.81,3.81,0,0,1-.6-.28,6.93,6.93,0,0,1-.73-.45,6.7,6.7,0,0,1-.75-.61,2.69,2.69,0,0,1-.72.3,3.51,3.51,0,0,1-1,.13,3.89,3.89,0,0,1-1.48-.25,2.51,2.51,0,0,1-1-.74,3.07,3.07,0,0,1-.61-1.21,6.34,6.34,0,0,1-.2-1.66,5.54,5.54,0,0,1,.22-1.63,3.26,3.26,0,0,1,.65-1.24,2.86,2.86,0,0,1,1.08-.79A3.78,3.78,0,0,1,318,473a3.73,3.73,0,0,1,1.43.25,2.61,2.61,0,0,1,1,.74,3.15,3.15,0,0,1,.63,1.19,5.71,5.71,0,0,1,.21,1.63,8.92,8.92,0,0,1,0,.91,5.43,5.43,0,0,1-.18.82,4.09,4.09,0,0,1-.3.71,2.89,2.89,0,0,1-.43.59,6.9,6.9,0,0,0,.75.55l.53.3.33.14a.5.5,0,0,1,.18.1.34.34,0,0,1,.08.16A1.06,1.06,0,0,1,322.21,481.34Zm-2-4.48a6.44,6.44,0,0,0-.11-1.2,3.06,3.06,0,0,0-.38-1,1.83,1.83,0,0,0-.72-.63,2.39,2.39,0,0,0-1.1-.23,2.29,2.29,0,0,0-1.1.24,2,2,0,0,0-.72.66,2.6,2.6,0,0,0-.4,1,5.34,5.34,0,0,0-.12,1.15,6.62,6.62,0,0,0,.11,1.23,2.8,2.8,0,0,0,.37,1,1.88,1.88,0,0,0,.71.63,2.46,2.46,0,0,0,1.11.23,2.22,2.22,0,0,0,1.11-.25,1.87,1.87,0,0,0,.73-.66,2.71,2.71,0,0,0,.39-1A5.52,5.52,0,0,0,320.22,476.86Z" transform="translate(-255.1 -344.95)"/><path class="cls-3" d="M327.59,478.73a2,2,0,0,1-.18.87,1.8,1.8,0,0,1-.51.65,2.2,2.2,0,0,1-.81.4,4.25,4.25,0,0,1-1.12.13,4.21,4.21,0,0,1-1.05-.12,2.25,2.25,0,0,1-.78-.36,1.54,1.54,0,0,1-.49-.59,1.78,1.78,0,0,1-.17-.81,1.93,1.93,0,0,1,.11-.65,1.74,1.74,0,0,1,.34-.55,3.18,3.18,0,0,1,.54-.48c.22-.14.46-.28.73-.42a3.64,3.64,0,0,1-.62-.38,2.41,2.41,0,0,1-.46-.44,1.82,1.82,0,0,1-.28-.51,1.57,1.57,0,0,1-.1-.58,2,2,0,0,1,.14-.75,1.61,1.61,0,0,1,.44-.6,2,2,0,0,1,.74-.41,3.22,3.22,0,0,1,1-.15,2.92,2.92,0,0,1,1,.14,2,2,0,0,1,.7.37,1.56,1.56,0,0,1,.4.56,2,2,0,0,1,.13.69,1.91,1.91,0,0,1-.1.58,2,2,0,0,1-.28.52,2.86,2.86,0,0,1-.46.46,5.27,5.27,0,0,1-.63.4,7,7,0,0,1,.74.42,2.88,2.88,0,0,1,.55.47,1.82,1.82,0,0,1,.33.52A1.56,1.56,0,0,1,327.59,478.73Zm-1,.1a1.3,1.3,0,0,0-.1-.49,1.59,1.59,0,0,0-.3-.41,3.75,3.75,0,0,0-.51-.37c-.2-.12-.43-.24-.7-.37a6.32,6.32,0,0,0-.65.36,3,3,0,0,0-.45.38,1.33,1.33,0,0,0-.27.41,1.19,1.19,0,0,0-.09.47,1.06,1.06,0,0,0,.39.88,1.87,1.87,0,0,0,1.16.31,1.73,1.73,0,0,0,1.13-.32A1,1,0,0,0,326.57,478.83Zm-.25-4a1.25,1.25,0,0,0-.08-.45.94.94,0,0,0-.25-.34,1.22,1.22,0,0,0-.41-.21,1.87,1.87,0,0,0-.55-.08,1.39,1.39,0,0,0-1,.29,1,1,0,0,0-.33.79,1.16,1.16,0,0,0,.08.42,1.1,1.1,0,0,0,.25.37,2.59,2.59,0,0,0,.42.35,6.39,6.39,0,0,0,.61.34,2.85,2.85,0,0,0,.9-.67A1.24,1.24,0,0,0,326.32,474.84Z" transform="translate(-255.1 -344.95)"/><line class="cls-2" x1="42.95" y1="10.56" x2="42.95"/><path class="cls-3" d="M296.5,365.51a1,1,0,0,1,0,.18.4.4,0,0,1,0,.13.19.19,0,0,1-.07.08.11.11,0,0,1-.08,0h-3.64a.43.43,0,0,1-.26-.09.37.37,0,0,1-.12-.32v-6.76a.38.38,0,0,1,.12-.32.43.43,0,0,1,.26-.09h3.6l.08,0a.16.16,0,0,1,.06.08.5.5,0,0,1,0,.13,1,1,0,0,1,0,.2.9.9,0,0,1,0,.18.33.33,0,0,1,0,.13.12.12,0,0,1-.06.08l-.08,0h-3v2.38h2.55l.08,0a.16.16,0,0,1,.06.08.22.22,0,0,1,0,.13,1.09,1.09,0,0,1,0,.19,1,1,0,0,1,0,.18.21.21,0,0,1,0,.12.09.09,0,0,1-.06.07.11.11,0,0,1-.08,0h-2.55v2.71h3a.11.11,0,0,1,.08,0,.16.16,0,0,1,.07.07.4.4,0,0,1,0,.13A1.15,1.15,0,0,1,296.5,365.51Z" transform="translate(-255.1 -344.95)"/><path class="cls-3" d="M303.88,365.51a.65.65,0,0,1,0,.2.35.35,0,0,1-.11.13.39.39,0,0,1-.14.08l-.16,0h-.33a1.14,1.14,0,0,1-.28,0,.6.6,0,0,1-.22-.12,1.2,1.2,0,0,1-.21-.23,2.9,2.9,0,0,1-.23-.38l-2.31-4.31-.37-.7c-.12-.24-.23-.48-.34-.71h0c0,.28,0,.57,0,.86v5.45a.24.24,0,0,1,0,.08.2.2,0,0,1-.09.06l-.15,0-.24,0-.25,0-.15,0a.17.17,0,0,1-.08-.06.13.13,0,0,1,0-.08v-7a.39.39,0,0,1,.14-.33.45.45,0,0,1,.29-.1h.49a1.26,1.26,0,0,1,.3,0,.51.51,0,0,1,.21.1.76.76,0,0,1,.18.18,1.7,1.7,0,0,1,.18.31l1.78,3.32.32.6c.1.19.2.38.29.57l.28.55.28.55h0c0-.31,0-.63,0-1v-5.08a.24.24,0,0,1,0-.08l.09-.06.15,0h.49l.15,0,.08.06a.13.13,0,0,1,0,.08Z" transform="translate(-255.1 -344.95)"/></svg>