<svg id="Layer_1" data-name="Layer 1" xmlns="http://www.w3.org/2000/svg" viewBox="0 0 40.5053 31.19965"><defs><style>.cls-1{fill:none;stroke:#000;stroke-miterlimit:10;stroke-width:0.5px;}</style></defs><rect class="cls-1" x="8.02473" y="0.25" width="24.45583" height="30.69965" rx="4.38339"/><path d="M315.33449,393.02332c-.90918-.23975-1.79883-.50977-2.57813-.7793a1.29659,1.29659,0,0,0-.41015-.1001,3.09919,3.09919,0,0,1-2.96778-3.4082c0-2.15869,1.31934-3.54785,3.1377-3.54785,1.8291,0,3.01855,1.41894,3.01855,3.4082a3.13324,3.13324,0,0,1-1.91894,3.228v.04c.66992.16992,1.39941.33008,1.96875.42968Zm-.71973-4.38721c0-1.34961-.69922-2.73877-2.12793-2.73877-1.46972,0-2.18945,1.35938-2.17969,2.81836-.00976,1.4292.78028,2.71875,2.13965,2.71875C313.83547,391.43445,314.61476,390.17517,314.61476,388.63611Z" transform="translate(-286.43551 -380.90018)"/><path d="M315.721,406.78337c-.90918-.23975-1.79882-.50977-2.57861-.7793a1.29387,1.29387,0,0,0-.40967-.10009,3.09926,3.09926,0,0,1-2.96826-3.40821c0-2.15869,1.31934-3.54785,3.13818-3.54785,1.82911,0,3.01856,1.41895,3.01856,3.4082a3.13324,3.13324,0,0,1-1.91895,3.228v.04c.66944.16992,1.39893.33008,1.96875.42969Zm-.71972-4.38721c0-1.34961-.69922-2.73877-2.12842-2.73877-1.46924,0-2.189,1.35938-2.1792,2.81836-.00977,1.4292.77979,2.71875,2.13916,2.71875C314.222,405.1945,315.00126,403.93523,315.00126,402.39616Z" transform="translate(-286.43551 -380.90018)"/><line class="cls-1" x1="23.30691" y1="16.96521" x2="29.51687" y2="16.92281"/><line class="cls-1" x1="32.48057" y1="8.20542" x2="40.5053" y2="8.20542"/><line class="cls-1" x1="32.48057" y1="21.96547" x2="40.5053" y2="21.96547"/><line class="cls-1" y1="8.20029" x2="8.02473" y2="8.20029"/><line class="cls-1" y1="21.96547" x2="8.02473" y2="21.96547"/><path d="M297.17334,385.82214a12.49955,12.49955,0,0,1,1.84863-.13964,3.8565,3.8565,0,0,1,2.72852.83935,3.10315,3.10315,0,0,1,.94971,2.419,3.56137,3.56137,0,0,1-.96973,2.61816,4.1478,4.1478,0,0,1-2.978.96973,14.06822,14.06822,0,0,1-1.5791-.08008Zm.86914,5.957a5.49332,5.49332,0,0,0,.87988.0498,2.5893,2.5893,0,0,0,2.86817-2.8584A2.40271,2.40271,0,0,0,299.062,386.372a4.95647,4.95647,0,0,0-1.01953.08984Z" transform="translate(-286.43551 -380.90018)"/><path d="M299.51074,403.07561h-2.61865v2.42871h2.91846v.72949H296.023v-6.73633h3.63769v.72949h-2.76855v2.12891h2.61865Z" transform="translate(-286.43551 -380.90018)"/><path d="M300.94287,406.23381v-6.73633h.94922l2.15869,3.4082a18.999,18.999,0,0,1,1.20947,2.18848l.02-.00976c-.08007-.89942-.10009-1.71875-.10009-2.76856v-2.81836H306v6.73633h-.87939l-2.13916-3.418a21.44341,21.44341,0,0,1-1.25928-2.249l-.02979.00976c.04981.84961.06983,1.65918.06983,2.7793v2.87793Z" transform="translate(-286.43551 -380.90018)"/></svg>