<svg id="Layer_1" data-name="Layer 1" xmlns="http://www.w3.org/2000/svg" viewBox="0 0 40.5053 31.19965"><defs><style>.cls-1,.cls-2{fill:none;stroke:#000;stroke-miterlimit:10;stroke-width:0.5px;}.cls-2{stroke-linecap:round;}</style></defs><rect class="cls-1" x="8.02473" y="0.25" width="24.45583" height="30.69965" rx="4.38339"/><path d="M315.33449,393.02332c-.90918-.23975-1.79883-.50977-2.57813-.7793a1.29659,1.29659,0,0,0-.41015-.1001,3.09919,3.09919,0,0,1-2.96778-3.4082c0-2.15869,1.31934-3.54785,3.1377-3.54785,1.8291,0,3.01855,1.41894,3.01855,3.4082a3.13324,3.13324,0,0,1-1.91894,3.228v.04c.66992.16992,1.39941.33008,1.96875.42968Zm-.71973-4.38721c0-1.34961-.69922-2.73877-2.12793-2.73877-1.46972,0-2.18945,1.35938-2.17969,2.81836-.00976,1.4292.78028,2.71875,2.13965,2.71875C313.83547,391.43445,314.61476,390.17517,314.61476,388.63611Z" transform="translate(-286.43551 -380.90018)"/><line class="cls-1" x1="32.48057" y1="8.20542" x2="40.5053" y2="8.20542"/><line class="cls-1" y1="8.20029" x2="8.02473" y2="8.20029"/><line class="cls-1" y1="21.96547" x2="8.02473" y2="21.96547"/><path d="M297.17334,385.82214a12.49955,12.49955,0,0,1,1.84863-.13964,3.8565,3.8565,0,0,1,2.72852.83935,3.10315,3.10315,0,0,1,.94971,2.419,3.56137,3.56137,0,0,1-.96973,2.61816,4.1478,4.1478,0,0,1-2.978.96973,14.06822,14.06822,0,0,1-1.5791-.08008Zm.86914,5.957a5.49332,5.49332,0,0,0,.87988.0498,2.5893,2.5893,0,0,0,2.86817-2.8584A2.40271,2.40271,0,0,0,299.062,386.372a4.95647,4.95647,0,0,0-1.01953.08984Z" transform="translate(-286.43551 -380.90018)"/><line class="cls-2" x1="8.02473" y1="18.55271" x2="11.60697" y2="21.96547"/><line class="cls-2" x1="8.02473" y1="25.37823" x2="11.60697" y2="21.96547"/><path d="M304.23186,405.706a3.87984,3.87984,0,0,1-1.60254.28808,2.83511,2.83511,0,0,1-2.99755-3.06933,3.01943,3.01943,0,0,1,3.16894-3.1875,3.25889,3.25889,0,0,1,1.43994.26953l-.18847.63965a2.86152,2.86152,0,0,0-1.22461-.252,2.25621,2.25621,0,0,0-2.36768,2.50293,2.20554,2.20554,0,0,0,2.33154,2.43946,3.12845,3.12845,0,0,0,1.27832-.252Z" transform="translate(-286.43551 -380.90018)"/><path d="M305.21233,399.83586h.78321V405.247h2.59277v.65723h-3.376Z" transform="translate(-286.43551 -380.90018)"/><path d="M309.4594,399.83586h.78321v2.92676h.02636c.16211-.23438.32422-.4502.47754-.64844l1.85449-2.27832h.97266l-2.19727,2.5752,2.36817,3.49316h-.92774l-1.998-2.97949-.57617.666v2.31348h-.78321Z" transform="translate(-286.43551 -380.90018)"/></svg>