<svg id="Layer_1" data-name="Layer 1" xmlns="http://www.w3.org/2000/svg" viewBox="0 0 102.15527 13.22124"><defs><style>.cls-1{fill:#231f20;}.cls-2{fill:none;stroke:#231f20;stroke-miterlimit:10;}</style></defs><path class="cls-1" d="M133.60791,343.21729h1.04346v3.89794h.03564c.21631-.312.43213-.59961.63574-.86377l2.47071-3.03417h1.29541l-2.92627,3.43017,3.15381,4.65332h-1.23487l-2.66259-3.96973-.76758.88721v3.08252h-1.04346Z" transform="translate(-133.60791 -342.65332)"/><path class="cls-1" d="M143.48193,351.30078l-.084-.73144h-.03613a2.16194,2.16194,0,0,1-1.77491.86328,1.65376,1.65376,0,0,1-1.7749-1.667c0-1.40332,1.24707-2.17089,3.48975-2.15869v-.12011a1.19671,1.19671,0,0,0-1.31934-1.34327,2.89243,2.89243,0,0,0-1.51074.43165l-.24023-.69532a3.603,3.603,0,0,1,1.90722-.51562c1.7749,0,2.20654,1.21094,2.20654,2.37451v2.1709a8.14222,8.14222,0,0,0,.0962,1.39111Zm-.15576-2.9624c-1.15137-.02393-2.459.18017-2.459,1.30713a.93446.93446,0,0,0,.9956,1.00781,1.44483,1.44483,0,0,0,1.40332-.97168,1.11259,1.11259,0,0,0,.06006-.33594Z" transform="translate(-133.60791 -342.65332)"/><path class="cls-1" d="M150.90918,349.71777c0,.59961.01172,1.12744.04785,1.583h-.93555l-.06-.94726h-.02393a2.18346,2.18346,0,0,1-1.91895,1.0791c-.91113,0-2.00293-.50342-2.00293-2.54248v-3.394h1.05567V348.71c0,1.10352.33594,1.84717,1.29541,1.84717a1.484,1.484,0,0,0,1.48682-1.499v-3.562h1.05566Z" transform="translate(-133.60791 -342.65332)"/><path class="cls-1" d="M152.77148,351.30078v-5.00146h-.81543v-.80323h.81543v-.27588a2.73691,2.73691,0,0,1,.67188-2.02685,2.01907,2.01907,0,0,1,1.415-.54,2.44565,2.44565,0,0,1,.89941.168l-.144.81592a1.56894,1.56894,0,0,0-.67139-.13233c-.89941,0-1.12744.792-1.12744,1.6792v.312h1.40332v.80323h-1.40332v5.00146Z" transform="translate(-133.60791 -342.65332)"/><path class="cls-1" d="M156.16748,347.06689c0-.5996-.01221-1.0913-.04785-1.5708h.92334l.04785.93555h.03613a2.00091,2.00091,0,0,1,1.82325-1.06738,1.71592,1.71592,0,0,1,1.64306,1.16308h.02393a2.38741,2.38741,0,0,1,.64746-.75537,1.97853,1.97853,0,0,1,1.2832-.40771c.76758,0,1.90723.50342,1.90723,2.51855v3.418h-1.03174v-3.28613c0-1.11524-.40772-1.78711-1.25928-1.78711a1.36606,1.36606,0,0,0-1.24707.95947,1.74332,1.74332,0,0,0-.084.52783v3.58594h-1.03125v-3.478c0-.92334-.40821-1.59521-1.21143-1.59521a1.4427,1.4427,0,0,0-1.30762,1.05566,1.46162,1.46162,0,0,0-.084.51563v3.50195h-1.03125Z" transform="translate(-133.60791 -342.65332)"/><path class="cls-1" d="M169.38965,351.30078l-.084-.73144h-.03613a2.16192,2.16192,0,0,1-1.7749.86328,1.65376,1.65376,0,0,1-1.7749-1.667c0-1.40332,1.24707-2.17089,3.48974-2.15869v-.12011a1.19655,1.19655,0,0,0-1.31885-1.34327,2.89291,2.89291,0,0,0-1.51123.43165l-.24023-.69532a3.6017,3.6017,0,0,1,1.90723-.51562c1.7749,0,2.20654,1.21094,2.20654,2.37451v2.1709a8.1433,8.1433,0,0,0,.09619,1.39111Zm-.15625-2.9624c-1.15137-.02393-2.4585.18017-2.4585,1.30713a.93447.93447,0,0,0,.99561,1.00781,1.44483,1.44483,0,0,0,1.40332-.97168,1.11206,1.11206,0,0,0,.05957-.33594Z" transform="translate(-133.60791 -342.65332)"/><path class="cls-1" d="M171.959,347.06689c0-.5996-.01171-1.0913-.04785-1.5708h.93555l.05957.95948h.02441a2.13415,2.13415,0,0,1,1.919-1.09131c.80322,0,2.05078.47949,2.05078,2.47021v3.46631h-1.05566v-3.34619c0-.93555-.34766-1.71484-1.34327-1.71484a1.49939,1.49939,0,0,0-1.415,1.0791,1.52118,1.52118,0,0,0-.07178.4917v3.49023H171.959Z" transform="translate(-133.60791 -342.65332)"/><path class="cls-1" d="M178.61914,347.06689c0-.5996-.01172-1.0913-.04785-1.5708h.93555l.05957.95948h.02441a2.13414,2.13414,0,0,1,1.91895-1.09131c.80322,0,2.05078.47949,2.05078,2.47021v3.46631h-1.05567v-3.34619c0-.93555-.34765-1.71484-1.34326-1.71484a1.49941,1.49941,0,0,0-1.415,1.0791,1.52145,1.52145,0,0,0-.07178.4917v3.49023h-1.05566Z" transform="translate(-133.60791 -342.65332)"/><path class="cls-1" d="M188.90283,343.21729v8.08349h-1.04345v-8.08349Z" transform="translate(-133.60791 -342.65332)"/><path class="cls-1" d="M190.81152,347.06689c0-.5996-.01172-1.0913-.04785-1.5708h.93555l.05957.95948h.02441a2.13415,2.13415,0,0,1,1.91895-1.09131c.80322,0,2.05078.47949,2.05078,2.47021v3.46631h-1.05566v-3.34619c0-.93555-.34766-1.71484-1.34327-1.71484a1.49941,1.49941,0,0,0-1.415,1.0791,1.52147,1.52147,0,0,0-.07177.4917v3.49023h-1.05567Z" transform="translate(-133.60791 -342.65332)"/><path class="cls-1" d="M202.48486,342.78564v7.01612c0,.51562.01221,1.103.04785,1.499h-.94726l-.04785-1.00732h-.02393a2.14818,2.14818,0,0,1-1.979,1.13916c-1.40332,0-2.48291-1.1875-2.48291-2.9502-.01172-1.93115,1.1875-3.11816,2.60254-3.11816a1.94157,1.94157,0,0,1,1.75146.8872h.02393v-3.46582Zm-1.05517,5.07325a1.85393,1.85393,0,0,0-.04834-.44385,1.5519,1.5519,0,0,0-1.523-1.22363c-1.09131,0-1.73926.95947-1.73926,2.24316,0,1.17529.57568,2.14648,1.71533,2.14648a1.58641,1.58641,0,0,0,1.54688-1.25927,1.82469,1.82469,0,0,0,.04834-.45557Z" transform="translate(-133.60791 -342.65332)"/><path class="cls-1" d="M209.09717,349.71777c0,.59961.01172,1.12744.04785,1.583h-.93555l-.06006-.94726h-.02392a2.18346,2.18346,0,0,1-1.919,1.0791c-.91113,0-2.00293-.50342-2.00293-2.54248v-3.394h1.05567V348.71c0,1.10352.33593,1.84717,1.29541,1.84717a1.484,1.484,0,0,0,1.48681-1.499v-3.562h1.05567Z" transform="translate(-133.60791 -342.65332)"/><path class="cls-1" d="M210.70752,350.22119a2.76554,2.76554,0,0,0,1.3916.41992c.76758,0,1.12695-.38379,1.12695-.86328,0-.5039-.2998-.77978-1.0791-1.06787-1.04345-.37158-1.53515-.94726-1.53515-1.64307a1.79015,1.79015,0,0,1,2.00293-1.70263,2.89973,2.89973,0,0,1,1.42724.35937l-.26416.76758a2.261,2.261,0,0,0-1.187-.33545c-.624,0-.97168.35986-.97168.79151,0,.47949.34766.69531,1.10352.98339,1.00732.38379,1.523.8877,1.523,1.751,0,1.01953-.79151,1.73926-2.1709,1.73926a3.31157,3.31157,0,0,1-1.63086-.396Z" transform="translate(-133.60791 -342.65332)"/><path class="cls-1" d="M216.875,343.8291v1.667h1.51123v.80323H216.875v3.13037c0,.71972.20361,1.12744.7915,1.12744a2.36766,2.36766,0,0,0,.61182-.07178l.04785.79151a2.5841,2.5841,0,0,1-.93555.144,1.46426,1.46426,0,0,1-1.13964-.44385,2.15116,2.15116,0,0,1-.40772-1.51123v-3.1665h-.89941v-.80323h.89941v-1.3916Z" transform="translate(-133.60791 -342.65332)"/><path class="cls-1" d="M219.5752,347.30713c0-.68359-.01172-1.27149-.04786-1.811h.92334l.03614,1.13916h.04785a1.74135,1.74135,0,0,1,1.60693-1.271,1.14263,1.14263,0,0,1,.29981.03564v.99561a1.58617,1.58617,0,0,0-.35938-.03613,1.48111,1.48111,0,0,0-1.41553,1.35546,2.97668,2.97668,0,0,0-.04785.4917v3.09424H219.5752Z" transform="translate(-133.60791 -342.65332)"/><path class="cls-1" d="M224.72217,343.86475a.65359.65359,0,0,1-1.30713,0,.64327.64327,0,0,1,.65967-.65967A.62661.62661,0,0,1,224.72217,343.86475Zm-1.17529,7.436v-5.80469h1.05566v5.80469Z" transform="translate(-133.60791 -342.65332)"/><path class="cls-1" d="M226.94287,348.59033a1.85914,1.85914,0,0,0,1.99072,2.01465,3.8147,3.8147,0,0,0,1.60694-.2998l.18017.75586a4.70152,4.70152,0,0,1-1.93115.35986,2.69593,2.69593,0,0,1-2.85449-2.92676c0-1.751,1.03174-3.12988,2.72265-3.12988a2.45938,2.45938,0,0,1,2.39893,2.73437,4.0295,4.0295,0,0,1-.03613.4917Zm3.09424-.75586a1.50283,1.50283,0,0,0-1.46338-1.71484,1.74915,1.74915,0,0,0-1.61914,1.71484Z" transform="translate(-133.60791 -342.65332)"/><path class="cls-1" d="M232.22266,350.22119a2.76554,2.76554,0,0,0,1.3916.41992c.76758,0,1.12695-.38379,1.12695-.86328,0-.5039-.2998-.77978-1.0791-1.06787-1.04346-.37158-1.53516-.94726-1.53516-1.64307a1.79015,1.79015,0,0,1,2.00293-1.70263,2.89826,2.89826,0,0,1,1.42725.35937l-.26416.76758a2.261,2.261,0,0,0-1.187-.33545c-.624,0-.97168.35986-.97168.79151,0,.47949.34765.69531,1.10351.98339,1.00733.38379,1.523.8877,1.523,1.751,0,1.01953-.7915,1.73926-2.1709,1.73926a3.31163,3.31163,0,0,1-1.63086-.396Z" transform="translate(-133.60791 -342.65332)"/><line class="cls-2" x1="0.00049" y1="12.72124" x2="102.15527" y2="12.72124"/></svg>