<svg id="Layer_1" data-name="Layer 1" xmlns="http://www.w3.org/2000/svg" viewBox="0 0 40.5 22.06983"><defs><style>.cls-1,.cls-2{fill:none;stroke:#020202;stroke-linecap:square;stroke-width:0.5px;}.cls-1{stroke-linejoin:bevel;}.cls-3{fill:#010101;}</style></defs><g id="Artwork_42" data-name="Artwork 42"><line class="cls-1" x1="10.75" y1="11.03491" x2="0.25" y2="11.03491"/><polygon class="cls-2" points="29.15 11.035 10.95 21.635 10.95 0.435 29.15 11.035"/><line class="cls-1" x1="40.25" y1="11.03491" x2="33.35" y2="11.03491"/><circle class="cls-1" cx="31.35" cy="11.03491" r="2"/></g><path class="cls-3" d="M301.50049,398.63647a.26539.26539,0,0,1-.02.10938.21823.21823,0,0,1-.05078.07129.19737.19737,0,0,1-.06934.03808.27414.27414,0,0,1-.0708.01075h-.09082a.43871.43871,0,0,1-.13281-.01856.33763.33763,0,0,1-.11621-.06347.63152.63152,0,0,1-.1128-.12207,2.25439,2.25439,0,0,1-.12548-.19532L299.0542,395.53q-.123-.21461-.249-.44189-.12525-.22706-.2378-.44141h-.0039q.00366.26514.0039.54346v3.58886a.08477.08477,0,0,1-.01074.04.074.074,0,0,1-.03662.02832.28534.28534,0,0,1-.06738.01856.64621.64621,0,0,1-.10694.00683.65449.65449,0,0,1-.10547-.00683.27389.27389,0,0,1-.06884-.01856.074.074,0,0,1-.03662-.02832.07948.07948,0,0,1-.01075-.04v-4.40136a.20681.20681,0,0,1,.06885-.17969.233.233,0,0,1,.13477-.04932h.18164a.61017.61017,0,0,1,.14551.01465.29249.29249,0,0,1,.105.04932.42041.42041,0,0,1,.09277.09814,1.72165,1.72165,0,0,1,.1001.16162l1.26855,2.24951q.11938.21094.22705.40528c.07129.12988.14112.25635.209.38135s.13476.248.20166.36914c.0664.12109.13281.24316.19824.36621h.00342q-.00366-.30469-.00342-.63575v-3.37207a.07578.07578,0,0,1,.01074-.04.08481.08481,0,0,1,.03613-.03077.20321.20321,0,0,1,.06739-.01806.79772.79772,0,0,1,.10742-.00586.7695.7695,0,0,1,.10156.00586.19962.19962,0,0,1,.06885.01806.09975.09975,0,0,1,.03857.03077.06959.06959,0,0,1,.0127.04Z" transform="translate(-286.25 -385.46509)"/><path class="cls-3" d="M306.65747,396.4563a3.73609,3.73609,0,0,1-.12891,1.019,2.17362,2.17362,0,0,1-.38769.77832,1.71254,1.71254,0,0,1-.65039.4961,2.51672,2.51672,0,0,1-1.81543.00879,1.57735,1.57735,0,0,1-.61768-.47266,2.00953,2.00953,0,0,1-.35644-.751,3.99836,3.99836,0,0,1-.11426-.99853,3.70062,3.70062,0,0,1,.12695-1.00293,2.09979,2.09979,0,0,1,.38721-.76856,1.74224,1.74224,0,0,1,.65039-.49267,2.2378,2.2378,0,0,1,.918-.17432,2.19785,2.19785,0,0,1,.88672.16357,1.60337,1.60337,0,0,1,.61963.46875,1.99366,1.99366,0,0,1,.36279.74122A3.71573,3.71573,0,0,1,306.65747,396.4563Zm-.47266.04a3.76568,3.76568,0,0,0-.07812-.7832,1.82672,1.82672,0,0,0-.2583-.63575,1.25474,1.25474,0,0,0-.478-.42529,1.58979,1.58979,0,0,0-.73779-.1543,1.53215,1.53215,0,0,0-.73584.16162,1.36918,1.36918,0,0,0-.48682.43409,1.81538,1.81538,0,0,0-.269.63623,3.47409,3.47409,0,0,0-.082.7666,4.01338,4.01338,0,0,0,.0747.79785,1.82251,1.82251,0,0,0,.25245.64111,1.23375,1.23375,0,0,0,.47607.42676,1.603,1.603,0,0,0,.74512.1543,1.53145,1.53145,0,0,0,.74511-.165,1.36136,1.36136,0,0,0,.48731-.44336,1.87647,1.87647,0,0,0,.26514-.64209A3.60356,3.60356,0,0,0,306.18481,396.49634Z" transform="translate(-286.25 -385.46509)"/><path class="cls-3" d="M310.376,394.3523a.42437.42437,0,0,1-.00684.08349.17936.17936,0,0,1-.02246.06006.10816.10816,0,0,1-.03613.03662.09388.09388,0,0,1-.04688.0127h-1.40332v4.23388a.0749.0749,0,0,1-.01074.04.07263.07263,0,0,1-.03613.02832.29108.29108,0,0,1-.06934.01856.81776.81776,0,0,1-.21094,0,.28174.28174,0,0,1-.06836-.01856.07553.07553,0,0,1-.03711-.02832.08489.08489,0,0,1-.01074-.04v-4.23388h-1.40283a.0943.0943,0,0,1-.0498-.0127.12387.12387,0,0,1-.03418-.03662.17963.17963,0,0,1-.02149-.06006.41884.41884,0,0,1-.00781-.08349.47369.47369,0,0,1,.00781-.08887.20891.20891,0,0,1,.02149-.064.11889.11889,0,0,1,.03418-.03808.0943.0943,0,0,1,.0498-.0127h3.24951a.09388.09388,0,0,1,.04688.0127.10458.10458,0,0,1,.03613.03808.20849.20849,0,0,1,.02246.064A.48011.48011,0,0,1,310.376,394.3523Z" transform="translate(-286.25 -385.46509)"/></svg>