<?xml version="1.0" encoding="utf-8"?>
<!-- Generator: Adobe Illustrator 25.2.1, SVG Export Plug-In . SVG Version: 6.00 Build 0)  -->
<svg version="1.1" id="Layer_1" xmlns="http://www.w3.org/2000/svg" xmlns:xlink="http://www.w3.org/1999/xlink" x="0px" y="0px"
	 viewBox="0 0 30 16.4" style="enable-background:new 0 0 30 16.4;" xml:space="preserve">
<style type="text/css">
	.st0{fill:none;stroke:#010101;stroke-width:0.5;stroke-linecap:square;stroke-linejoin:bevel;}
	.st1{fill:none;stroke:#010101;stroke-width:0.5;stroke-linecap:square;}
</style>
<g id="Artwork_42">
	<line class="st0" x1="5.5" y1="8.2" x2="-5" y2="8.2"/>
	<polygon class="st1" points="23.9,8.2 5.7,18.8 5.7,-2.4 	"/>
	<line class="st0" x1="35" y1="8.2" x2="28.1" y2="8.2"/>
	<circle class="st0" cx="26.1" cy="8.2" r="2"/>
</g>
<path d="M10,10.3c0,0,0,0.1,0,0.1c0,0,0,0.1-0.1,0.1c0,0,0,0-0.1,0c0,0,0,0-0.1,0H9.7c0,0-0.1,0-0.1,0c0,0-0.1,0-0.1-0.1
	s-0.1-0.1-0.1-0.1c0-0.1-0.1-0.1-0.1-0.2L7.6,7.2C7.5,7.1,7.4,6.9,7.3,6.8C7.2,6.6,7.1,6.5,7.1,6.3h0c0,0.2,0,0.4,0,0.5
	c0,0.2,0,0.4,0,0.5v3c0,0,0,0,0,0c0,0,0,0,0,0c0,0,0,0-0.1,0s-0.1,0-0.1,0c0,0-0.1,0-0.1,0s-0.1,0-0.1,0c0,0,0,0,0,0c0,0,0,0,0,0
	V6.1c0-0.1,0-0.1,0.1-0.2s0.1,0,0.1,0H7c0.1,0,0.1,0,0.1,0c0,0,0.1,0,0.1,0c0,0,0.1,0.1,0.1,0.1c0,0,0.1,0.1,0.1,0.2l1.3,2.2
	c0.1,0.1,0.2,0.3,0.2,0.4C9,9,9.1,9.1,9.2,9.2s0.1,0.2,0.2,0.4c0.1,0.1,0.1,0.2,0.2,0.4h0c0-0.2,0-0.4,0-0.6s0-0.4,0-0.6V5.9
	c0,0,0,0,0,0s0,0,0,0c0,0,0,0,0.1,0c0,0,0.1,0,0.1,0c0,0,0.1,0,0.1,0c0,0,0.1,0,0.1,0c0,0,0,0,0,0c0,0,0,0,0,0V10.3z"/>
<path d="M15.2,8.2c0,0.4,0,0.7-0.1,1c-0.1,0.3-0.2,0.6-0.4,0.8c-0.2,0.2-0.4,0.4-0.7,0.5s-0.6,0.2-0.9,0.2c-0.3,0-0.6-0.1-0.9-0.2
	s-0.5-0.3-0.6-0.5s-0.3-0.5-0.4-0.8c-0.1-0.3-0.1-0.6-0.1-1c0-0.4,0-0.7,0.1-1c0.1-0.3,0.2-0.6,0.4-0.8C11.8,6.3,12,6.1,12.3,6
	c0.3-0.1,0.6-0.2,0.9-0.2c0.3,0,0.6,0.1,0.9,0.2c0.2,0.1,0.5,0.3,0.6,0.5S15,6.9,15,7.2C15.1,7.5,15.2,7.8,15.2,8.2z M14.7,8.2
	c0-0.3,0-0.5-0.1-0.8c-0.1-0.2-0.1-0.5-0.3-0.6c-0.1-0.2-0.3-0.3-0.5-0.4s-0.4-0.2-0.7-0.2c-0.3,0-0.5,0.1-0.7,0.2S12,6.6,11.9,6.8
	c-0.1,0.2-0.2,0.4-0.3,0.6s-0.1,0.5-0.1,0.8c0,0.3,0,0.6,0.1,0.8c0,0.2,0.1,0.5,0.3,0.6s0.3,0.3,0.5,0.4c0.2,0.1,0.4,0.2,0.7,0.2
	c0.3,0,0.5-0.1,0.7-0.2s0.4-0.3,0.5-0.4s0.2-0.4,0.3-0.6C14.7,8.7,14.7,8.5,14.7,8.2z"/>
<path d="M18.9,6.1C18.9,6.1,18.9,6.1,18.9,6.1c0,0.1,0,0.1,0,0.1s0,0,0,0c0,0,0,0,0,0h-1.4v4.2c0,0,0,0,0,0c0,0,0,0,0,0
	c0,0,0,0-0.1,0s-0.1,0-0.1,0s-0.1,0-0.1,0c0,0-0.1,0-0.1,0c0,0,0,0,0,0c0,0,0,0,0,0V6.2h-1.4c0,0,0,0,0,0c0,0,0,0,0,0s0,0,0-0.1
	c0,0,0-0.1,0-0.1c0,0,0-0.1,0-0.1s0,0,0-0.1c0,0,0,0,0,0c0,0,0,0,0,0h3.2c0,0,0,0,0,0c0,0,0,0,0,0C18.9,5.9,18.9,5.9,18.9,6.1
	C18.9,6,18.9,6,18.9,6.1z"/>
</svg>
