<svg id="Layer_1" data-name="Layer 1" xmlns="http://www.w3.org/2000/svg" viewBox="0 0 42.42241 19.72258"><defs><style>.cls-1{fill:none;stroke:#010101;stroke-linecap:round;stroke-linejoin:bevel;stroke-width:0.5px;}</style></defs><g id="Artwork_43" data-name="Artwork 43"><path class="cls-1" d="M210.5345,321.27331c1.62327,2.84378,3.03541,12.19882.16955,19.19339" transform="translate(-203 -321)"/><line class="cls-1" x1="7.52192" y1="0.25" x2="18.16386" y2="0.25"/><line class="cls-1" x1="7.74699" y1="19.47258" x2="18.16386" y2="19.47258"/><path class="cls-1" d="M221.16386,321.25c8.09321,0,13.95727,4.31741,15.85694,9.59138" transform="translate(-203 -321)"/><path class="cls-1" d="M221.19045,340.47258c8.05638.00213,13.89139-4.35013,15.83035-9.60269" transform="translate(-203 -321)"/><line class="cls-1" x1="8.40161" y1="2.55396" x2="0.25" y2="2.55396"/><line class="cls-1" x1="8.53318" y1="16.80526" x2="0.38157" y2="16.80526"/><line class="cls-1" x1="42.17241" y1="9.85835" x2="34.0208" y2="9.85835"/></g><path d="M222.22632,330.76081a5.54072,5.54072,0,0,1-.19043,1.50684,3.21568,3.21568,0,0,1-.57227,1.14941,2.53234,2.53234,0,0,1-.96142.73291,3.70828,3.70828,0,0,1-2.68311.01318,2.33637,2.33637,0,0,1-.91308-.69824,2.97627,2.97627,0,0,1-.52637-1.10888,5.94208,5.94208,0,0,1-.16895-1.47706,5.44323,5.44323,0,0,1,.188-1.48242,3.104,3.104,0,0,1,.57178-1.13574,2.57928,2.57928,0,0,1,.96191-.728,3.30157,3.30157,0,0,1,1.356-.25781,3.25536,3.25536,0,0,1,1.31055.2417,2.36908,2.36908,0,0,1,.91552.69287,2.95009,2.95009,0,0,1,.53711,1.0957A5.56088,5.56088,0,0,1,222.22632,330.76081Zm-.69824.05908a5.55645,5.55645,0,0,0-.11524-1.15771,2.69651,2.69651,0,0,0-.38183-.93946,1.85542,1.85542,0,0,0-.70606-.6289,2.35549,2.35549,0,0,0-1.09033-.228,2.266,2.266,0,0,0-1.0874.23877,2.02085,2.02085,0,0,0-.71973.64209,2.67139,2.67139,0,0,0-.39746.93994,5.1199,5.1199,0,0,0-.12109,1.1333,5.93686,5.93686,0,0,0,.11035,1.1792,2.68784,2.68784,0,0,0,.373.94776,1.83184,1.83184,0,0,0,.70362.63134,2.38133,2.38133,0,0,0,1.10107.228,2.26369,2.26369,0,0,0,1.10108-.24463,2.00446,2.00446,0,0,0,.71972-.65527,2.75373,2.75373,0,0,0,.39209-.9502A5.31591,5.31591,0,0,0,221.52808,330.81989Z" transform="translate(-203 -321)"/><path d="M228.18286,334.19831a.14593.14593,0,0,1-.01318.06445.11131.11131,0,0,1-.05127.0459.38832.38832,0,0,1-.105.0293,1.07709,1.07709,0,0,1-.16895.01074,1.32836,1.32836,0,0,1-.15332-.00781.30953.30953,0,0,1-.10449-.03223.21067.21067,0,0,1-.06982-.06445.44031.44031,0,0,1-.04834-.105l-.64991-1.68652q-.11278-.28493-.2417-.53711a1.76636,1.76636,0,0,0-.31152-.438,1.33353,1.33353,0,0,0-.44043-.29248,1.59984,1.59984,0,0,0-.61767-.10742h-.71973v3.13134a.11314.11314,0,0,1-.01611.05909.11053.11053,0,0,1-.05372.043.4605.4605,0,0,1-.0996.02686.93342.93342,0,0,1-.15821.01074.9458.9458,0,0,1-.15576-.01074.46388.46388,0,0,1-.10205-.02686.1105.1105,0,0,1-.05371-.043.11314.11314,0,0,1-.01611-.05909v-6.50439a.30681.30681,0,0,1,.102-.26611.34686.34686,0,0,1,.19873-.07227h1.30517c.17188,0,.31446.00439.42676.01367.11328.00879.21582.02051.30908.03467a2.33894,2.33894,0,0,1,.69287.22559,1.62529,1.62529,0,0,1,.48877.38427,1.522,1.522,0,0,1,.2876.51563,1.98586,1.98586,0,0,1,.09375.62011,1.82817,1.82817,0,0,1-.09668.61524,1.49888,1.49888,0,0,1-.27392.47754,1.74952,1.74952,0,0,1-.42432.35742,2.794,2.794,0,0,1-.54248.25244,1.42683,1.42683,0,0,1,.31982.19873,1.53847,1.53847,0,0,1,.2627.28467,2.5932,2.5932,0,0,1,.22851.38428q.10767.21679.21485.48584l.6499,1.62207c.04639.12549.07617.21142.08838.25781A.43891.43891,0,0,1,228.18286,334.19831Zm-1.15478-4.96826a1.3653,1.3653,0,0,0-.19873-.7544,1.11671,1.11671,0,0,0-.666-.44335,2.026,2.026,0,0,0-.33838-.06153c-.12158-.01269-.28125-.019-.478-.019h-.85937V330.503h.999a2.141,2.141,0,0,0,.69287-.09961,1.36088,1.36088,0,0,0,.48047-.271,1.03054,1.03054,0,0,0,.2793-.40283A1.37108,1.37108,0,0,0,227.02808,329.23005Z" transform="translate(-203 -321)"/></svg>