<svg id="Layer_1" data-name="Layer 1" xmlns="http://www.w3.org/2000/svg" viewBox="0 0 40.5053 31.19965"><defs><style>.cls-1{fill:none;stroke:#000;stroke-miterlimit:10;stroke-width:0.5px;}</style></defs><rect class="cls-1" x="8.02473" y="0.25" width="24.45583" height="30.69965" rx="4.38339"/><path d="M250.13721,275.87667a3.07732,3.07732,0,0,0,1.55908.43994c.88965,0,1.40918-.46973,1.40918-1.14942,0-.62939-.35986-.98925-1.269-1.33935-1.09961-.38965-1.7793-.95948-1.7793-1.90869a1.9393,1.9393,0,0,1,2.17871-1.82911,3.06034,3.06034,0,0,1,1.48926.32959l-.23975.71a2.67945,2.67945,0,0,0-1.2793-.31983c-.91943,0-1.269.54932-1.269,1.00928,0,.62988.40967.93945,1.33887,1.29931,1.13965.44,1.71924.98926,1.71924,1.979,0,1.03906-.76953,1.939-2.35889,1.939a3.48219,3.48219,0,0,1-1.71875-.42968Z" transform="translate(-239.15901 -265.35777)"/><path d="M249.91748,284.06982a9.06513,9.06513,0,0,1,1.66895-.13964,2.75311,2.75311,0,0,1,1.94873.5498,1.67716,1.67716,0,0,1,.52978,1.2793,1.76848,1.76848,0,0,1-1.269,1.71875v.03027a1.67757,1.67757,0,0,1,.98926,1.35889,10.739,10.739,0,0,0,.51953,1.84912h-.89942a8.74031,8.74031,0,0,1-.4497-1.60889c-.19971-.92969-.55957-1.2793-1.34912-1.30957h-.81983v2.91846h-.86914Zm.86914,3.06836h.88965c.92969,0,1.519-.50976,1.519-1.27929,0-.86963-.62939-1.249-1.54883-1.25928a3.5759,3.5759,0,0,0-.85986.08008Z" transform="translate(-239.15901 -265.35777)"/><path d="M268.058,277.48091c-.90918-.23974-1.79883-.50976-2.57813-.77929a1.29638,1.29638,0,0,0-.41015-.1001,3.09919,3.09919,0,0,1-2.96778-3.4082c0-2.1587,1.31934-3.54786,3.1377-3.54786,1.8291,0,3.01855,1.41895,3.01855,3.40821a3.13324,3.13324,0,0,1-1.91894,3.228v.04c.66992.16993,1.39941.33008,1.96875.42969Zm-.71973-4.3872c0-1.34961-.69922-2.73877-2.12793-2.73877-1.46973,0-2.18945,1.35937-2.17969,2.81836-.00976,1.4292.78028,2.71875,2.13965,2.71875C266.559,275.89205,267.33826,274.63277,267.33826,273.09371Z" transform="translate(-239.15901 -265.35777)"/><path d="M268.44448,291.241c-.90918-.23975-1.79883-.50977-2.57861-.7793a1.294,1.294,0,0,0-.40967-.1001,3.09926,3.09926,0,0,1-2.96826-3.4082c0-2.15869,1.31934-3.54785,3.13818-3.54785,1.8291,0,3.01856,1.41894,3.01856,3.4082a3.13325,3.13325,0,0,1-1.91895,3.228v.04c.66944.16992,1.39893.33008,1.96875.42968Zm-.71972-4.38721c0-1.34961-.69922-2.73877-2.12842-2.73877-1.46924,0-2.189,1.35938-2.1792,2.81836-.00977,1.4292.77978,2.71875,2.13916,2.71875C266.94546,289.6521,267.72476,288.39282,267.72476,286.85376Z" transform="translate(-239.15901 -265.35777)"/><line class="cls-1" x1="23.30691" y1="16.96521" x2="29.51687" y2="16.92281"/><line class="cls-1" x1="32.48057" y1="8.20542" x2="40.5053" y2="8.20542"/><line class="cls-1" x1="32.48057" y1="21.96547" x2="40.5053" y2="21.96547"/><line class="cls-1" y1="8.20542" x2="8.02473" y2="8.20542"/><line class="cls-1" y1="21.96547" x2="8.02473" y2="21.96547"/></svg>