<svg id="Layer_1" data-name="Layer 1" xmlns="http://www.w3.org/2000/svg" viewBox="0 0 45.2788 19.8"><defs><style>.cls-1{fill:none;stroke:#020202;stroke-linecap:round;stroke-linejoin:bevel;stroke-width:0.5px;}</style></defs><g id="Artwork_43" data-name="Artwork 43"><path class="cls-1" d="M10.2.2c1.6,2.8,3,12.3.2,19.3" transform="translate(0.05 0.05)"/><line class="cls-1" x1="10.25" y1="0.25" x2="20.95" y2="0.25"/><line class="cls-1" x1="10.45" y1="19.55" x2="20.95" y2="19.55"/><path class="cls-1" d="M20.9.2c8.1,0,14,4.3,15.9,9.6" transform="translate(0.05 0.05)"/><path class="cls-1" d="M20.9,19.5c8.1,0,13.9-4.4,15.8-9.6" transform="translate(0.05 0.05)"/><line class="cls-1" x1="8.45" y1="2.75" x2="0.25" y2="2.75"/><line class="cls-1" x1="8.55" y1="16.95" x2="0.45" y2="16.95"/><line class="cls-1" x1="45.0288" y1="9.85" x2="36.8288" y2="9.85"/></g><path class="cls-1" d="M7.6.2c1.6,2.8,3,12.2.2,19.2" transform="translate(0.05 0.05)"/></svg>